<?xml version="1.0" encoding="UTF-8" standalone="no"?>
<svg width="64px" height="64px" viewBox="0 0 64 64" version="1.1" xmlns="http://www.w3.org/2000/svg" xmlns:xlink="http://www.w3.org/1999/xlink" xmlns:sketch="http://www.bohemiancoding.com/sketch/ns">
    <!-- Generator: Sketch 3.4.1 (15681) - http://www.bohemiancoding.com/sketch -->
    <title>wall-black</title>
    <desc>Created with Sketch.</desc>
    <defs></defs>
    <g id="Page-1" stroke="none" stroke-width="1" fill="none" fill-rule="evenodd" sketch:type="MSPage">
        <g id="wall-black" sketch:type="MSLayerGroup">
            <path d="M55.75,2.75 L55.65,2.85 C55.2166667,3.35 54.9166667,3.86666667 54.75,4.4 C54.5166667,4.9 54.4,5.45 54.4,6.05 L54.4,6.15 C54.4,6.75 54.5166667,7.33333333 54.75,7.9 L55.65,9.35 C56.3166667,9.95 57.0833333,10.35 57.95,10.55 L58.75,10.6 L62.2,10.6 L62.2,21.8 L58.85,21.8 C57.6166667,21.8 56.55,22.2166667 55.65,23.05 C54.8166667,23.9833333 54.4,25.05 54.4,26.25 C54.4,27.55 54.8166667,28.6166667 55.65,29.45 C56.55,30.3833333 57.6166667,30.85 58.85,30.85 L62.2,30.85 L62.2,42.15 L58.85,42.15 C57.6166667,42.15 56.55,42.5833333 55.65,43.45 C54.8166667,44.35 54.4,45.4166667 54.4,46.65 L54.4,46.75 L54.5,47.65 C54.6,48.5166667 54.9833333,49.2833333 55.65,49.95 C56.55,50.85 57.6166667,51.3 58.85,51.3 L61.3,51.3 L61.3,51.2 L62.2,51.2 L62.2,61.25 L59.2,61.25 L60.4,60.35 C61.3,59.5166667 61.75,58.45 61.75,57.15 C61.75,55.95 61.3,54.8833333 60.4,53.95 C59.5333333,53.1166667 58.4666667,52.7 57.2,52.7 L49.95,52.7 C48.7166667,52.7 47.65,53.1166667 46.75,53.95 C45.9166667,54.8833333 45.5,55.95 45.5,57.15 L45.5,57.35 C45.5,58.55 45.9166667,59.6166667 46.75,60.55 L47.75,61.25 L41.2,61.25 L42.2,60.55 C43.1,59.6166667 43.55,58.55 43.55,57.35 C43.55,56.05 43.1,54.9833333 42.2,54.15 C41.3666667,53.2166667 40.3,52.75 39,52.75 L31.75,52.75 C30.55,52.75 29.4833333,53.2166667 28.55,54.15 C27.7166667,54.9833333 27.3,56.05 27.3,57.35 C27.3,58.55 27.7166667,59.6166667 28.55,60.55 C28.85,60.85 29.1833333,61.0833333 29.55,61.25 L23,61.25 L23.65,60.9 L24,60.55 C24.9333333,59.6166667 25.4,58.55 25.4,57.35 C25.4,56.05 24.9333333,54.9833333 24,54.15 L23.65,53.8 C22.8833333,53.1 21.95,52.75 20.85,52.75 L13.55,52.75 C12.35,52.75 11.3,53.2166667 10.4,54.15 C9.53333333,54.9833333 9.1,56.05 9.1,57.35 C9.1,58.55 9.53333333,59.6166667 10.4,60.55 L11.4,61.25 L5.1,61.25 L6.1,60.45 L6.3,60.35 C7.1,59.5166667 7.5,58.5166667 7.5,57.35 L7.5,57.25 C7.5,56.0166667 7.03333333,54.95 6.1,54.05 C5.33333333,53.25 4.33333333,52.8166667 3.1,52.75 L2.95,52.75 L1.55,52.75 L1.55,50.5 C2.05,50.8666667 2.56666667,51.1333333 3.1,51.3 L4.4,51.5 L11.75,51.5 C12.95,51.5 14.0166667,51.0333333 14.95,50.1 C15.55,49.5 15.9333333,48.7833333 16.1,47.95 L16.2,47.1 L16.2,46.9 L16.2,46.85 L16.1,46 C15.9333333,45.1666667 15.55,44.4 14.95,43.7 C14.45,43.3 13.9666667,43 13.5,42.8 L11.75,42.45 L4.4,42.45 L3.1,42.6 L1.55,43.45 L1.55,41.8 L2.95,41.8 L3.1,41.8 C4.26666667,41.7333333 5.26666667,41.2833333 6.1,40.45 C7.03333333,39.5833333 7.5,38.5166667 7.5,37.25 C7.5,36.0166667 7.03333333,34.95 6.1,34.05 C5.26666667,33.1833333 4.26666667,32.75 3.1,32.75 L2.95,32.75 L1.55,32.75 L1.55,29.8 L3.1,30.65 L4.4,30.85 L11.75,30.85 C12.95,30.85 14.0166667,30.3833333 14.95,29.45 C15.55,28.85 15.9333333,28.1166667 16.1,27.25 L16.2,26.45 L16.2,26.25 L16.2,26.15 L16.1,25.35 C15.9333333,24.4833333 15.55,23.7166667 14.95,23.05 C14.45,22.6166667 13.9666667,22.3166667 13.5,22.15 L11.75,21.8 L4.4,21.8 L3.1,21.95 L1.55,22.8 L1.55,21.3 L2.95,21.3 L3.1,21.3 C4.26666667,21.2666667 5.26666667,20.8166667 6.1,19.95 C7.03333333,19.0833333 7.5,18.0166667 7.5,16.75 C7.5,15.5166667 7.03333333,14.45 6.1,13.55 C5.26666667,12.6833333 4.26666667,12.25 3.1,12.25 L2.95,12.25 L1.55,12.25 L1.55,9.8 C2.05,10.1666667 2.56666667,10.4333333 3.1,10.6 L4.4,10.8 L11.75,10.8 C12.95,10.8 14.0166667,10.3833333 14.95,9.55 C15.7833333,8.61666667 16.2,7.55 16.2,6.35 L16.2,6.25 L16,4.85 C15.7666667,4.18333333 15.4166667,3.61666667 14.95,3.15 L14.85,3.05 L14.55,2.75 L19.5,2.75 L19.1,3.15 C18.2666667,3.98333333 17.85,5.05 17.85,6.35 C17.85,7.55 18.2666667,8.61666667 19.1,9.55 C20.0333333,10.3833333 21.1,10.8 22.3,10.8 L29.55,10.8 C30.85,10.8 31.9166667,10.3833333 32.75,9.55 C33.65,8.61666667 34.1,7.55 34.1,6.35 C34.1,5.05 33.65,3.98333333 32.75,3.15 L32.5,2.75 L37.3,2.75 L37.1,2.95 C36.2666667,3.78333333 35.85,4.85 35.85,6.15 C35.85,7.35 36.2666667,8.41666667 37.1,9.35 C38.0333333,10.1833333 39.1,10.6 40.3,10.6 L47.55,10.6 C48.85,10.6 49.9166667,10.1833333 50.75,9.35 C51.65,8.41666667 52.1,7.35 52.1,6.15 C52.1,4.85 51.65,3.78333333 50.75,2.95 L50.65,2.75 L55.75,2.75 M60.4,33.3 C59.5333333,32.4333333 58.4666667,32 57.2,32 L49.95,32 C48.7166667,32 47.65,32.4333333 46.75,33.3 C45.9166667,34.2 45.5,35.2666667 45.5,36.5 L45.5,36.6 L45.55,37.5 C45.6833333,38.3666667 46.0833333,39.1333333 46.75,39.8 C47.65,40.7 48.7166667,41.15 49.95,41.15 L57.2,41.15 C58.4666667,41.15 59.5333333,40.7 60.4,39.8 L61.3,38.5 C61.6,37.9 61.75,37.2333333 61.75,36.5 C61.75,35.2666667 61.3,34.2 60.4,33.3 M57.2,20.6 C58.4666667,20.6 59.5333333,20.1333333 60.4,19.2 L61.1,18.4 C61.5333333,17.7333333 61.75,16.9333333 61.75,16 C61.75,15.1 61.5,14.2833333 61,13.55 L60.4,12.8 C59.5333333,11.9666667 58.4666667,11.55 57.2,11.55 L49.95,11.55 C48.7166667,11.55 47.65,11.9666667 46.75,12.8 C45.9166667,13.7333333 45.5,14.8 45.5,16 C45.5,17.3 45.9166667,18.3666667 46.75,19.2 C47.65,20.1333333 48.7166667,20.6 49.95,20.6 L57.2,20.6 M40.3,21.8 C39.1,21.8 38.0333333,22.2166667 37.1,23.05 C36.2666667,23.9833333 35.85,25.05 35.85,26.25 C35.85,27.55 36.2666667,28.6166667 37.1,29.45 C38.0333333,30.3833333 39.1,30.85 40.3,30.85 L47.55,30.85 C48.85,30.85 49.9166667,30.3833333 50.75,29.45 C51.65,28.6166667 52.1,27.55 52.1,26.25 C52.1,25.05 51.65,23.9833333 50.75,23.05 C49.9166667,22.2166667 48.85,21.8 47.55,21.8 L40.3,21.8 M42.2,19.6 C43.1,18.7333333 43.55,17.6666667 43.55,16.4 C43.55,15.1666667 43.1,14.1 42.2,13.2 C41.3666667,12.3333333 40.3,11.9 39,11.9 L31.75,11.9 C30.55,11.9 29.4833333,12.3333333 28.55,13.2 C27.7166667,14.1 27.3,15.1666667 27.3,16.4 C27.3,17.6666667 27.7166667,18.7333333 28.55,19.6 C29.4833333,20.5 30.55,20.95 31.75,20.95 L39,20.95 C40.3,20.95 41.3666667,20.5 42.2,19.6 M22.3,21.8 C21.1,21.8 20.0333333,22.2166667 19.1,23.05 C18.2666667,23.9833333 17.85,25.05 17.85,26.25 C17.85,27.55 18.2666667,28.6166667 19.1,29.45 C20.0333333,30.3833333 21.1,30.85 22.3,30.85 L29.55,30.85 C30.85,30.85 31.9166667,30.3833333 32.75,29.45 C33.65,28.6166667 34.1,27.55 34.1,26.25 C34.1,25.05 33.65,23.9833333 32.75,23.05 C31.9166667,22.2166667 30.85,21.8 29.55,21.8 L22.3,21.8 M20.85,20.95 C21.95,20.95 22.8833333,20.6166667 23.65,19.95 L24,19.6 C24.9333333,18.7333333 25.4,17.6666667 25.4,16.4 C25.4,15.1666667 24.9333333,14.1 24,13.2 L23.65,12.9 C22.8833333,12.2333333 21.95,11.9 20.85,11.9 L13.55,11.9 C12.35,11.9 11.3,12.3333333 10.4,13.2 C9.53333333,14.1 9.1,15.1666667 9.1,16.4 C9.1,17.6666667 9.53333333,18.7333333 10.4,19.6 C11.3,20.5 12.35,20.95 13.55,20.95 L20.85,20.95 M40.3,42.25 C39.4333333,42.25 38.65,42.4666667 37.95,42.9 C37.65,43.0666667 37.3666667,43.2833333 37.1,43.55 C36.2666667,44.45 35.85,45.5166667 35.85,46.75 C35.85,48.0166667 36.2666667,49.0833333 37.1,49.95 C38.0333333,50.85 39.1,51.3 40.3,51.3 L47.55,51.3 C48.85,51.3 49.9166667,50.85 50.75,49.95 C51.65,49.0833333 52.1,48.0166667 52.1,46.75 C52.1,45.5166667 51.65,44.45 50.75,43.55 C50.5166667,43.2833333 50.25,43.0666667 49.95,42.9 C49.2833333,42.4666667 48.4833333,42.25 47.55,42.25 L40.3,42.25 M19.1,43.55 C18.2666667,44.45 17.85,45.5166667 17.85,46.75 C17.85,48.0166667 18.2666667,49.0833333 19.1,49.95 C20.0333333,50.85 21.1,51.3 22.3,51.3 L29.55,51.3 C30.85,51.3 31.9166667,50.85 32.75,49.95 C33.65,49.0833333 34.1,48.0166667 34.1,46.75 C34.1,45.5166667 33.65,44.45 32.75,43.55 L31.95,42.9 C31.2833333,42.4666667 30.4833333,42.25 29.55,42.25 L22.3,42.25 C21.4333333,42.25 20.65,42.4666667 19.95,42.9 L19.1,43.55 M23.65,33.1 C22.8833333,32.4333333 21.95,32.1 20.85,32.1 L13.55,32.1 C12.35,32.1 11.3,32.5333333 10.4,33.4 C9.53333333,34.3 9.1,35.3666667 9.1,36.6 C9.1,37.8666667 9.53333333,38.9333333 10.4,39.8 C11.3,40.7 12.35,41.15 13.55,41.15 L20.85,41.15 C21.95,41.15 22.8833333,40.8166667 23.65,40.15 L24,39.8 C24.9333333,38.9333333 25.4,37.8666667 25.4,36.6 L24.95,34.65 L24,33.4 L23.65,33.1 M31.75,32.1 C30.55,32.1 29.4833333,32.5333333 28.55,33.4 C28.1833333,33.8333333 27.9166667,34.25 27.75,34.65 C27.45,35.2833333 27.3,35.9333333 27.3,36.6 C27.3,37.8666667 27.7166667,38.9333333 28.55,39.8 C29.4833333,40.7 30.55,41.15 31.75,41.15 L39,41.15 C40.3,41.15 41.3666667,40.7 42.2,39.8 C43.1,38.9333333 43.55,37.8666667 43.55,36.6 C43.55,35.9333333 43.4,35.2833333 43.1,34.65 L42.2,33.4 C41.3666667,32.5333333 40.3,32.1 39,32.1 L31.75,32.1" id="Shape" fill="#5C5C5C" sketch:type="MSShapeGroup"></path>
            <path d="M31.75,32.1 L39,32.1 C40.3,32.1 41.3666667,32.5333333 42.2,33.4 L43.1,34.65 C43.4,35.2833333 43.55,35.9333333 43.55,36.6 C43.55,37.8666667 43.1,38.9333333 42.2,39.8 C41.3666667,40.7 40.3,41.15 39,41.15 L31.75,41.15 C30.55,41.15 29.4833333,40.7 28.55,39.8 C27.7166667,38.9333333 27.3,37.8666667 27.3,36.6 C27.3,35.9333333 27.45,35.2833333 27.75,34.65 C27.9166667,34.25 28.1833333,33.8333333 28.55,33.4 C29.4833333,32.5333333 30.55,32.1 31.75,32.1 M62.2,10.6 L58.75,10.6 L57.95,10.55 C57.0833333,10.35 56.3166667,9.95 55.65,9.35 L54.75,7.9 C54.5166667,7.33333333 54.4,6.75 54.4,6.15 L54.4,6.05 C54.4,5.45 54.5166667,4.9 54.75,4.4 C54.9166667,3.86666667 55.2166667,3.35 55.65,2.85 L55.75,2.75 L62.2,2.75 L62.2,10.6 M50.65,2.75 L50.75,2.95 C51.65,3.78333333 52.1,4.85 52.1,6.15 C52.1,7.35 51.65,8.41666667 50.75,9.35 C49.9166667,10.1833333 48.85,10.6 47.55,10.6 L40.3,10.6 C39.1,10.6 38.0333333,10.1833333 37.1,9.35 C36.2666667,8.41666667 35.85,7.35 35.85,6.15 C35.85,4.85 36.2666667,3.78333333 37.1,2.95 L37.3,2.75 L50.65,2.75 M32.5,2.75 L32.75,3.15 C33.65,3.98333333 34.1,5.05 34.1,6.35 C34.1,7.55 33.65,8.61666667 32.75,9.55 C31.9166667,10.3833333 30.85,10.8 29.55,10.8 L22.3,10.8 C21.1,10.8 20.0333333,10.3833333 19.1,9.55 C18.2666667,8.61666667 17.85,7.55 17.85,6.35 C17.85,5.05 18.2666667,3.98333333 19.1,3.15 L19.5,2.75 L32.5,2.75 M14.55,2.75 L14.85,3.05 L14.95,3.15 C15.4166667,3.61666667 15.7666667,4.18333333 16,4.85 L16.2,6.25 L16.2,6.35 C16.2,7.55 15.7833333,8.61666667 14.95,9.55 C14.0166667,10.3833333 12.95,10.8 11.75,10.8 L4.4,10.8 L3.1,10.6 C2.56666667,10.4333333 2.05,10.1666667 1.55,9.8 L1.55,2.75 L14.55,2.75 M1.55,12.25 L2.95,12.25 L3.1,12.25 C4.26666667,12.25 5.26666667,12.6833333 6.1,13.55 C7.03333333,14.45 7.5,15.5166667 7.5,16.75 C7.5,18.0166667 7.03333333,19.0833333 6.1,19.95 C5.26666667,20.8166667 4.26666667,21.2666667 3.1,21.3 L2.95,21.3 L1.55,21.3 L1.55,12.25 M1.55,22.8 L3.1,21.95 L4.4,21.8 L11.75,21.8 L13.5,22.15 C13.9666667,22.3166667 14.45,22.6166667 14.95,23.05 C15.55,23.7166667 15.9333333,24.4833333 16.1,25.35 L16.2,26.15 L16.2,26.25 L16.2,26.45 L16.1,27.25 C15.9333333,28.1166667 15.55,28.85 14.95,29.45 C14.0166667,30.3833333 12.95,30.85 11.75,30.85 L4.4,30.85 L3.1,30.65 L1.55,29.8 L1.55,22.8 M1.55,32.75 L2.95,32.75 L3.1,32.75 C4.26666667,32.75 5.26666667,33.1833333 6.1,34.05 C7.03333333,34.95 7.5,36.0166667 7.5,37.25 C7.5,38.5166667 7.03333333,39.5833333 6.1,40.45 C5.26666667,41.2833333 4.26666667,41.7333333 3.1,41.8 L2.95,41.8 L1.55,41.8 L1.55,32.75 M1.55,43.45 L3.1,42.6 L4.4,42.45 L11.75,42.45 L13.5,42.8 C13.9666667,43 14.45,43.3 14.95,43.7 C15.55,44.4 15.9333333,45.1666667 16.1,46 L16.2,46.85 L16.2,46.9 L16.2,47.1 L16.1,47.95 C15.9333333,48.7833333 15.55,49.5 14.95,50.1 C14.0166667,51.0333333 12.95,51.5 11.75,51.5 L4.4,51.5 L3.1,51.3 C2.56666667,51.1333333 2.05,50.8666667 1.55,50.5 L1.55,43.45 M1.55,52.75 L2.95,52.75 L3.1,52.75 C4.33333333,52.8166667 5.33333333,53.25 6.1,54.05 C7.03333333,54.95 7.5,56.0166667 7.5,57.25 L7.5,57.35 C7.5,58.5166667 7.1,59.5166667 6.3,60.35 L6.1,60.45 L5.1,61.25 L1.55,61.25 L1.55,52.75 M11.4,61.25 L10.4,60.55 C9.53333333,59.6166667 9.1,58.55 9.1,57.35 C9.1,56.05 9.53333333,54.9833333 10.4,54.15 C11.3,53.2166667 12.35,52.75 13.55,52.75 L20.85,52.75 C21.95,52.75 22.8833333,53.1 23.65,53.8 L24,54.15 C24.9333333,54.9833333 25.4,56.05 25.4,57.35 C25.4,58.55 24.9333333,59.6166667 24,60.55 L23.65,60.9 L23,61.25 L11.4,61.25 M29.55,61.25 C29.1833333,61.0833333 28.85,60.85 28.55,60.55 C27.7166667,59.6166667 27.3,58.55 27.3,57.35 C27.3,56.05 27.7166667,54.9833333 28.55,54.15 C29.4833333,53.2166667 30.55,52.75 31.75,52.75 L39,52.75 C40.3,52.75 41.3666667,53.2166667 42.2,54.15 C43.1,54.9833333 43.55,56.05 43.55,57.35 C43.55,58.55 43.1,59.6166667 42.2,60.55 L41.2,61.25 L29.55,61.25 M47.75,61.25 L46.75,60.55 C45.9166667,59.6166667 45.5,58.55 45.5,57.35 L45.5,57.15 C45.5,55.95 45.9166667,54.8833333 46.75,53.95 C47.65,53.1166667 48.7166667,52.7 49.95,52.7 L57.2,52.7 C58.4666667,52.7 59.5333333,53.1166667 60.4,53.95 C61.3,54.8833333 61.75,55.95 61.75,57.15 C61.75,58.45 61.3,59.5166667 60.4,60.35 L59.2,61.25 L47.75,61.25 M62.2,51.2 L61.3,51.2 L61.3,51.3 L58.85,51.3 C57.6166667,51.3 56.55,50.85 55.65,49.95 C54.9833333,49.2833333 54.6,48.5166667 54.5,47.65 L54.4,46.75 L54.4,46.65 C54.4,45.4166667 54.8166667,44.35 55.65,43.45 C56.55,42.5833333 57.6166667,42.15 58.85,42.15 L62.2,42.15 L62.2,51.2 M62.2,30.85 L58.85,30.85 C57.6166667,30.85 56.55,30.3833333 55.65,29.45 C54.8166667,28.6166667 54.4,27.55 54.4,26.25 C54.4,25.05 54.8166667,23.9833333 55.65,23.05 C56.55,22.2166667 57.6166667,21.8 58.85,21.8 L62.2,21.8 L62.2,30.85 M57.2,20.6 L49.95,20.6 C48.7166667,20.6 47.65,20.1333333 46.75,19.2 C45.9166667,18.3666667 45.5,17.3 45.5,16 C45.5,14.8 45.9166667,13.7333333 46.75,12.8 C47.65,11.9666667 48.7166667,11.55 49.95,11.55 L57.2,11.55 C58.4666667,11.55 59.5333333,11.9666667 60.4,12.8 L61,13.55 C61.5,14.2833333 61.75,15.1 61.75,16 C61.75,16.9333333 61.5333333,17.7333333 61.1,18.4 L60.4,19.2 C59.5333333,20.1333333 58.4666667,20.6 57.2,20.6 M60.4,33.3 C61.3,34.2 61.75,35.2666667 61.75,36.5 C61.75,37.2333333 61.6,37.9 61.3,38.5 L60.4,39.8 C59.5333333,40.7 58.4666667,41.15 57.2,41.15 L49.95,41.15 C48.7166667,41.15 47.65,40.7 46.75,39.8 C46.0833333,39.1333333 45.6833333,38.3666667 45.55,37.5 L45.5,36.6 L45.5,36.5 C45.5,35.2666667 45.9166667,34.2 46.75,33.3 C47.65,32.4333333 48.7166667,32 49.95,32 L57.2,32 C58.4666667,32 59.5333333,32.4333333 60.4,33.3 M42.2,19.6 C41.3666667,20.5 40.3,20.95 39,20.95 L31.75,20.95 C30.55,20.95 29.4833333,20.5 28.55,19.6 C27.7166667,18.7333333 27.3,17.6666667 27.3,16.4 C27.3,15.1666667 27.7166667,14.1 28.55,13.2 C29.4833333,12.3333333 30.55,11.9 31.75,11.9 L39,11.9 C40.3,11.9 41.3666667,12.3333333 42.2,13.2 C43.1,14.1 43.55,15.1666667 43.55,16.4 C43.55,17.6666667 43.1,18.7333333 42.2,19.6 M40.3,21.8 L47.55,21.8 C48.85,21.8 49.9166667,22.2166667 50.75,23.05 C51.65,23.9833333 52.1,25.05 52.1,26.25 C52.1,27.55 51.65,28.6166667 50.75,29.45 C49.9166667,30.3833333 48.85,30.85 47.55,30.85 L40.3,30.85 C39.1,30.85 38.0333333,30.3833333 37.1,29.45 C36.2666667,28.6166667 35.85,27.55 35.85,26.25 C35.85,25.05 36.2666667,23.9833333 37.1,23.05 C38.0333333,22.2166667 39.1,21.8 40.3,21.8 M20.85,20.95 L13.55,20.95 C12.35,20.95 11.3,20.5 10.4,19.6 C9.53333333,18.7333333 9.1,17.6666667 9.1,16.4 C9.1,15.1666667 9.53333333,14.1 10.4,13.2 C11.3,12.3333333 12.35,11.9 13.55,11.9 L20.85,11.9 C21.95,11.9 22.8833333,12.2333333 23.65,12.9 L24,13.2 C24.9333333,14.1 25.4,15.1666667 25.4,16.4 C25.4,17.6666667 24.9333333,18.7333333 24,19.6 L23.65,19.95 C22.8833333,20.6166667 21.95,20.95 20.85,20.95 M22.3,21.8 L29.55,21.8 C30.85,21.8 31.9166667,22.2166667 32.75,23.05 C33.65,23.9833333 34.1,25.05 34.1,26.25 C34.1,27.55 33.65,28.6166667 32.75,29.45 C31.9166667,30.3833333 30.85,30.85 29.55,30.85 L22.3,30.85 C21.1,30.85 20.0333333,30.3833333 19.1,29.45 C18.2666667,28.6166667 17.85,27.55 17.85,26.25 C17.85,25.05 18.2666667,23.9833333 19.1,23.05 C20.0333333,22.2166667 21.1,21.8 22.3,21.8 M23.65,33.1 L24,33.4 L24.95,34.65 L25.4,36.6 C25.4,37.8666667 24.9333333,38.9333333 24,39.8 L23.65,40.15 C22.8833333,40.8166667 21.95,41.15 20.85,41.15 L13.55,41.15 C12.35,41.15 11.3,40.7 10.4,39.8 C9.53333333,38.9333333 9.1,37.8666667 9.1,36.6 C9.1,35.3666667 9.53333333,34.3 10.4,33.4 C11.3,32.5333333 12.35,32.1 13.55,32.1 L20.85,32.1 C21.95,32.1 22.8833333,32.4333333 23.65,33.1 M19.1,43.55 L19.95,42.9 C20.65,42.4666667 21.4333333,42.25 22.3,42.25 L29.55,42.25 C30.4833333,42.25 31.2833333,42.4666667 31.95,42.9 L32.75,43.55 C33.65,44.45 34.1,45.5166667 34.1,46.75 C34.1,48.0166667 33.65,49.0833333 32.75,49.95 C31.9166667,50.85 30.85,51.3 29.55,51.3 L22.3,51.3 C21.1,51.3 20.0333333,50.85 19.1,49.95 C18.2666667,49.0833333 17.85,48.0166667 17.85,46.75 C17.85,45.5166667 18.2666667,44.45 19.1,43.55 M40.3,42.25 L47.55,42.25 C48.4833333,42.25 49.2833333,42.4666667 49.95,42.9 C50.25,43.0666667 50.5166667,43.2833333 50.75,43.55 C51.65,44.45 52.1,45.5166667 52.1,46.75 C52.1,48.0166667 51.65,49.0833333 50.75,49.95 C49.9166667,50.85 48.85,51.3 47.55,51.3 L40.3,51.3 C39.1,51.3 38.0333333,50.85 37.1,49.95 C36.2666667,49.0833333 35.85,48.0166667 35.85,46.75 C35.85,45.5166667 36.2666667,44.45 37.1,43.55 C37.3666667,43.2833333 37.65,43.0666667 37.95,42.9 C38.65,42.4666667 39.4333333,42.25 40.3,42.25" id="Shape" fill="#494949" sketch:type="MSShapeGroup"></path>
            <path d="M55.75,2.75 L50.65,2.75 L37.3,2.75 L32.5,2.75 L19.5,2.75 L14.55,2.75 L1.55,2.75 L1.55,9.8 L1.55,12.25 L1.55,21.3 L1.55,22.8 L1.55,29.8 L1.55,32.75 L1.55,41.8 L1.55,43.45 L1.55,50.5 L1.55,52.75 L1.55,61.25 L5.1,61.25 L11.4,61.25 L23,61.25 L29.55,61.25 L41.2,61.25 L47.75,61.25 L59.2,61.25 L62.2,61.25 L62.2,51.2 L62.2,42.15 L62.2,30.85 L62.2,21.8 L62.2,10.6 L62.2,2.75 L55.75,2.75 M64,0 L64,64 L0,64 L0,0 L9.75,0 L10.4,0 L64,0" id="Shape" fill="#2E2E2E" sketch:type="MSShapeGroup"></path>
            <path d="M10.1,2.75 C5.63333333,2.88333333 3.3,5.5 3.1,10.6 L3.1,11.15 L3.1,52.95 C3.1,56.6166667 4.16666667,59.0833333 6.3,60.35 C7.33333333,60.9166667 8.6,61.2166667 10.1,61.25 L0.4,61.25 L0.4,2.75 L10.1,2.75 M61.3,10.6 C61.1666667,6.03333333 59.3166667,3.48333333 55.75,2.95 L54.8,2.75 L64,2.75 L64,61.25 L54.5,61.25 C58.3666667,61.15 60.6,59.1166667 61.2,55.15 L61.3,52.95 L61.3,11.15 L61.3,10.6" id="Shape" fill-opacity="0.6" fill="#2E2E2E" sketch:type="MSShapeGroup"></path>
        </g>
    </g>
</svg>