<?xml version="1.0" encoding="UTF-8" standalone="no"?>
<svg width="64px" height="64px" viewBox="0 0 64 64" version="1.1" xmlns="http://www.w3.org/2000/svg" xmlns:xlink="http://www.w3.org/1999/xlink" xmlns:sketch="http://www.bohemiancoding.com/sketch/ns">
    <!-- Generator: Sketch 3.4.1 (15681) - http://www.bohemiancoding.com/sketch -->
    <title>wall-black-rounded</title>
    <desc>Created with Sketch.</desc>
    <defs></defs>
    <g id="Page-1" stroke="none" stroke-width="1" fill="none" fill-rule="evenodd" sketch:type="MSPage">
        <g id="wall-black-rounded" sketch:type="MSLayerGroup" transform="translate(0.000000, -1.000000)">
            <path d="M56.35,1.3 L56.15,1.3 C61.2166667,1.83333333 63.8333333,5.25 64,11.55 L64,11.6 L64,12.15 L64,53.95 L63.9,56.4 L63.9,56.6 C63.0666667,62.2 59.75,65 53.95,65 L10.05,65 C7.88333333,65 6.1,64.5833333 4.7,63.75 L4.6,63.75 C1.53333333,62.0833333 0,58.8166667 0,53.95 L0,12.15 L0,11.6 L0,11.55 C0.266666667,4.41666667 3.61666667,0.9 10.05,1 L53.95,1 L56.35,1.3" id="Shape" fill="#2E2E2E" sketch:type="MSShapeGroup"></path>
            <path d="M19.2,3.75 L18.85,4.15 C17.9833333,4.98333333 17.55,6.05 17.55,7.35 C17.55,8.55 17.9833333,9.61666667 18.85,10.55 C19.75,11.3833333 20.8166667,11.8 22.05,11.8 L29.35,11.8 C30.65,11.8 31.7166667,11.3833333 32.55,10.55 C33.4833333,9.61666667 33.95,8.55 33.95,7.35 C33.95,6.05 33.4833333,4.98333333 32.55,4.15 L32.3,3.75 L37.15,3.75 L36.95,3.95 C36.0833333,4.78333333 35.65,5.85 35.65,7.15 C35.65,8.35 36.0833333,9.41666667 36.95,10.35 C37.85,11.1833333 38.9166667,11.6 40.15,11.6 L47.45,11.6 C48.75,11.6 49.8166667,11.1833333 50.65,10.35 C51.5833333,9.41666667 52.05,8.35 52.05,7.15 C52.05,5.85 51.5833333,4.78333333 50.65,3.95 L50.6,3.75 L53.95,3.75 L55.7,3.95 L55.6,3.95 C54.7333333,4.78333333 54.3,5.85 54.3,7.15 C54.3,8.35 54.7333333,9.41666667 55.6,10.35 C56.5333333,11.1833333 57.6,11.6 58.8,11.6 L61.25,11.6 L61.25,12.15 L61.25,15.1 L60.35,13.8 C59.5166667,12.9666667 58.45,12.55 57.15,12.55 L49.85,12.55 C48.6166667,12.55 47.55,12.9666667 46.65,13.8 C45.7833333,14.7333333 45.35,15.8 45.35,17 C45.35,18.3 45.7833333,19.3666667 46.65,20.2 C47.55,21.1333333 48.6166667,21.6 49.85,21.6 L57.15,21.6 C58.45,21.6 59.5166667,21.1333333 60.35,20.2 L61.25,18.95 L61.25,22.8 L58.8,22.8 C57.6,22.8 56.5333333,23.2166667 55.6,24.05 C54.7333333,24.9833333 54.3,26.05 54.3,27.25 C54.3,28.55 54.7333333,29.6166667 55.6,30.45 C56.5333333,31.3833333 57.6,31.85 58.8,31.85 L61.25,31.85 L61.25,35.65 L60.35,34.4 C59.5166667,33.5333333 58.45,33.1 57.15,33.1 L49.85,33.1 C48.6166667,33.1 47.55,33.5333333 46.65,34.4 C45.7833333,35.3 45.35,36.3666667 45.35,37.6 C45.35,38.8666667 45.7833333,39.9333333 46.65,40.8 C47.55,41.7 48.6166667,42.15 49.85,42.15 L57.15,42.15 C58.45,42.15 59.5166667,41.7 60.35,40.8 C60.7833333,40.4333333 61.0833333,40 61.25,39.5 L61.25,43.25 L58.8,43.25 C57.6,43.25 56.5333333,43.6833333 55.6,44.55 C54.7333333,45.45 54.3,46.5166667 54.3,47.75 C54.3,49.0166667 54.7333333,50.0833333 55.6,50.95 C56.5333333,51.85 57.6,52.3 58.8,52.3 L61.25,52.3 L61.25,53.95 L61.2,56.15 L60.35,55.15 C59.5166667,54.2166667 58.45,53.75 57.15,53.75 L49.85,53.75 C48.6166667,53.75 47.55,54.2166667 46.65,55.15 C45.7833333,55.9833333 45.35,57.05 45.35,58.35 C45.35,59.55 45.7833333,60.6166667 46.65,61.55 C46.95,61.85 47.2833333,62.0833333 47.65,62.25 L41.05,62.25 L42.05,61.55 C42.9833333,60.6166667 43.45,59.55 43.45,58.35 C43.45,57.05 42.9833333,55.9833333 42.05,55.15 C41.2166667,54.2166667 40.15,53.75 38.85,53.75 L31.55,53.75 C30.35,53.75 29.2833333,54.2166667 28.35,55.15 C27.5166667,55.9833333 27.1,57.05 27.1,58.35 C27.1,59.55 27.5166667,60.6166667 28.35,61.55 L29.35,62.25 L22.8,62.25 L23.8,61.55 C24.7,60.6166667 25.15,59.55 25.15,58.35 C25.15,57.05 24.7,55.9833333 23.8,55.15 C22.9333333,54.2166667 21.8666667,53.75 20.6,53.75 L13.25,53.75 C12.05,53.75 10.9833333,54.2166667 10.05,55.15 C9.21666667,55.9833333 8.8,57.05 8.8,58.35 C8.8,59.55 9.21666667,60.6166667 10.05,61.55 L11.1,62.25 L10.05,62.25 C8.41666667,62.25 7.05,61.95 5.95,61.35 C6.75,60.5166667 7.15,59.5166667 7.15,58.35 C7.15,57.05 6.68333333,55.9833333 5.75,55.15 C4.91666667,54.2833333 3.91666667,53.8166667 2.75,53.75 L2.75,52.3 L4.15,52.5 L11.45,52.5 C12.65,52.5 13.7166667,52.0333333 14.65,51.1 C15.4833333,50.2666667 15.9,49.2 15.9,47.9 C15.9,46.7 15.4833333,45.6333333 14.65,44.7 C13.7166667,43.8666667 12.65,43.45 11.45,43.45 L4.15,43.45 L2.75,43.6 L2.75,42.8 C3.91666667,42.7333333 4.91666667,42.2833333 5.75,41.45 C6.68333333,40.5833333 7.15,39.5166667 7.15,38.25 C7.15,37.0166667 6.68333333,35.95 5.75,35.05 C4.91666667,34.1833333 3.91666667,33.75 2.75,33.75 L2.75,31.65 L4.15,31.85 L11.45,31.85 C12.65,31.85 13.7166667,31.3833333 14.65,30.45 C15.4833333,29.6166667 15.9,28.55 15.9,27.25 C15.9,26.05 15.4833333,24.9833333 14.65,24.05 C13.7166667,23.2166667 12.65,22.8 11.45,22.8 L4.15,22.8 L2.75,22.95 L2.75,22.3 C3.91666667,22.2666667 4.91666667,21.8166667 5.75,20.95 C6.68333333,20.0833333 7.15,19.0166667 7.15,17.75 C7.15,16.5166667 6.68333333,15.45 5.75,14.55 C4.91666667,13.6833333 3.91666667,13.25 2.75,13.25 L2.75,12.15 L2.75,11.6 L4.15,11.8 L11.45,11.8 C12.65,11.8 13.7166667,11.3833333 14.65,10.55 C15.4833333,9.61666667 15.9,8.55 15.9,7.35 C15.9,6.05 15.4833333,4.98333333 14.65,4.15 L14.3,3.75 L19.2,3.75 M23.8,14.2 C22.9333333,13.3333333 21.8666667,12.9 20.6,12.9 L13.25,12.9 C12.05,12.9 10.9833333,13.3333333 10.05,14.2 C9.21666667,15.1 8.8,16.1666667 8.8,17.4 C8.8,18.6666667 9.21666667,19.7333333 10.05,20.6 C10.9833333,21.5 12.05,21.95 13.25,21.95 L20.6,21.95 C21.8666667,21.95 22.9333333,21.5 23.8,20.6 C24.7,19.7333333 25.15,18.6666667 25.15,17.4 C25.15,16.1666667 24.7,15.1 23.8,14.2 M22.05,22.8 C20.8166667,22.8 19.75,23.2166667 18.85,24.05 C17.9833333,24.9833333 17.55,26.05 17.55,27.25 C17.55,28.55 17.9833333,29.6166667 18.85,30.45 C19.75,31.3833333 20.8166667,31.85 22.05,31.85 L29.35,31.85 C30.65,31.85 31.7166667,31.3833333 32.55,30.45 C33.4833333,29.6166667 33.95,28.55 33.95,27.25 C33.95,26.05 33.4833333,24.9833333 32.55,24.05 C31.7166667,23.2166667 30.65,22.8 29.35,22.8 L22.05,22.8 M18.85,44.55 C17.9833333,45.45 17.55,46.5166667 17.55,47.75 C17.55,49.0166667 17.9833333,50.0833333 18.85,50.95 C19.75,51.85 20.8166667,52.3 22.05,52.3 L29.35,52.3 C30.65,52.3 31.7166667,51.85 32.55,50.95 C33.4833333,50.0833333 33.95,49.0166667 33.95,47.75 C33.95,46.5166667 33.4833333,45.45 32.55,44.55 C31.7166667,43.6833333 30.65,43.25 29.35,43.25 L22.05,43.25 C20.8166667,43.25 19.75,43.6833333 18.85,44.55 M23.8,34.4 C22.9333333,33.5333333 21.8666667,33.1 20.6,33.1 L13.25,33.1 C12.05,33.1 10.9833333,33.5333333 10.05,34.4 C9.21666667,35.3 8.8,36.3666667 8.8,37.6 C8.8,38.8666667 9.21666667,39.9333333 10.05,40.8 C10.9833333,41.7 12.05,42.15 13.25,42.15 L20.6,42.15 C21.8666667,42.15 22.9333333,41.7 23.8,40.8 C24.7,39.9333333 25.15,38.8666667 25.15,37.6 C25.15,36.3666667 24.7,35.3 23.8,34.4 M50.65,24.05 C49.8166667,23.2166667 48.75,22.8 47.45,22.8 L40.15,22.8 C38.9166667,22.8 37.85,23.2166667 36.95,24.05 C36.0833333,24.9833333 35.65,26.05 35.65,27.25 C35.65,28.55 36.0833333,29.6166667 36.95,30.45 C37.85,31.3833333 38.9166667,31.85 40.15,31.85 L47.45,31.85 C48.75,31.85 49.8166667,31.3833333 50.65,30.45 C51.5833333,29.6166667 52.05,28.55 52.05,27.25 C52.05,26.05 51.5833333,24.9833333 50.65,24.05 M40.15,43.25 C38.9166667,43.25 37.85,43.6833333 36.95,44.55 C36.0833333,45.45 35.65,46.5166667 35.65,47.75 C35.65,49.0166667 36.0833333,50.0833333 36.95,50.95 C37.85,51.85 38.9166667,52.3 40.15,52.3 L47.45,52.3 C48.75,52.3 49.8166667,51.85 50.65,50.95 C51.5833333,50.0833333 52.05,49.0166667 52.05,47.75 C52.05,46.5166667 51.5833333,45.45 50.65,44.55 C49.8166667,43.6833333 48.75,43.25 47.45,43.25 L40.15,43.25 M43.45,37.6 C43.45,36.3666667 42.9833333,35.3 42.05,34.4 C41.2166667,33.5333333 40.15,33.1 38.85,33.1 L31.55,33.1 C30.35,33.1 29.2833333,33.5333333 28.35,34.4 C27.5166667,35.3 27.1,36.3666667 27.1,37.6 C27.1,38.8666667 27.5166667,39.9333333 28.35,40.8 C29.2833333,41.7 30.35,42.15 31.55,42.15 L38.85,42.15 C40.15,42.15 41.2166667,41.7 42.05,40.8 C42.9833333,39.9333333 43.45,38.8666667 43.45,37.6 M42.05,14.2 C41.2166667,13.3333333 40.15,12.9 38.85,12.9 L31.55,12.9 C30.35,12.9 29.2833333,13.3333333 28.35,14.2 C27.5166667,15.1 27.1,16.1666667 27.1,17.4 C27.1,18.6666667 27.5166667,19.7333333 28.35,20.6 C29.2833333,21.5 30.35,21.95 31.55,21.95 L38.85,21.95 C40.15,21.95 41.2166667,21.5 42.05,20.6 C42.9833333,19.7333333 43.45,18.6666667 43.45,17.4 C43.45,16.1666667 42.9833333,15.1 42.05,14.2" id="Shape" fill="#5C5C5C" sketch:type="MSShapeGroup"></path>
            <path d="M42.05,14.2 C42.9833333,15.1 43.45,16.1666667 43.45,17.4 C43.45,18.6666667 42.9833333,19.7333333 42.05,20.6 C41.2166667,21.5 40.15,21.95 38.85,21.95 L31.55,21.95 C30.35,21.95 29.2833333,21.5 28.35,20.6 C27.5166667,19.7333333 27.1,18.6666667 27.1,17.4 C27.1,16.1666667 27.5166667,15.1 28.35,14.2 C29.2833333,13.3333333 30.35,12.9 31.55,12.9 L38.85,12.9 C40.15,12.9 41.2166667,13.3333333 42.05,14.2 M32.3,3.75 L32.55,4.15 C33.4833333,4.98333333 33.95,6.05 33.95,7.35 C33.95,8.55 33.4833333,9.61666667 32.55,10.55 C31.7166667,11.3833333 30.65,11.8 29.35,11.8 L22.05,11.8 C20.8166667,11.8 19.75,11.3833333 18.85,10.55 C17.9833333,9.61666667 17.55,8.55 17.55,7.35 C17.55,6.05 17.9833333,4.98333333 18.85,4.15 L19.2,3.75 L32.3,3.75 M14.3,3.75 L14.65,4.15 C15.4833333,4.98333333 15.9,6.05 15.9,7.35 C15.9,8.55 15.4833333,9.61666667 14.65,10.55 C13.7166667,11.3833333 12.65,11.8 11.45,11.8 L4.15,11.8 L2.75,11.6 C2.95,6.36666667 5.38333333,3.75 10.05,3.75 L14.3,3.75 M2.75,13.25 C3.91666667,13.25 4.91666667,13.6833333 5.75,14.55 C6.68333333,15.45 7.15,16.5166667 7.15,17.75 C7.15,19.0166667 6.68333333,20.0833333 5.75,20.95 C4.91666667,21.8166667 3.91666667,22.2666667 2.75,22.3 L2.75,13.25 M2.75,22.95 L4.15,22.8 L11.45,22.8 C12.65,22.8 13.7166667,23.2166667 14.65,24.05 C15.4833333,24.9833333 15.9,26.05 15.9,27.25 C15.9,28.55 15.4833333,29.6166667 14.65,30.45 C13.7166667,31.3833333 12.65,31.85 11.45,31.85 L4.15,31.85 L2.75,31.65 L2.75,22.95 M2.75,33.75 C3.91666667,33.75 4.91666667,34.1833333 5.75,35.05 C6.68333333,35.95 7.15,37.0166667 7.15,38.25 C7.15,39.5166667 6.68333333,40.5833333 5.75,41.45 C4.91666667,42.2833333 3.91666667,42.7333333 2.75,42.8 L2.75,33.75 M2.75,43.6 L4.15,43.45 L11.45,43.45 C12.65,43.45 13.7166667,43.8666667 14.65,44.7 C15.4833333,45.6333333 15.9,46.7 15.9,47.9 C15.9,49.2 15.4833333,50.2666667 14.65,51.1 C13.7166667,52.0333333 12.65,52.5 11.45,52.5 L4.15,52.5 L2.75,52.3 L2.75,43.6 M2.75,53.75 C3.91666667,53.8166667 4.91666667,54.2833333 5.75,55.15 C6.68333333,55.9833333 7.15,57.05 7.15,58.35 C7.15,59.5166667 6.75,60.5166667 5.95,61.35 C3.81666667,60.0833333 2.75,57.6166667 2.75,53.95 L2.75,53.75 M11.1,62.25 L10.05,61.55 C9.21666667,60.6166667 8.8,59.55 8.8,58.35 C8.8,57.05 9.21666667,55.9833333 10.05,55.15 C10.9833333,54.2166667 12.05,53.75 13.25,53.75 L20.6,53.75 C21.8666667,53.75 22.9333333,54.2166667 23.8,55.15 C24.7,55.9833333 25.15,57.05 25.15,58.35 C25.15,59.55 24.7,60.6166667 23.8,61.55 L22.8,62.25 L11.1,62.25 M29.35,62.25 L28.35,61.55 C27.5166667,60.6166667 27.1,59.55 27.1,58.35 C27.1,57.05 27.5166667,55.9833333 28.35,55.15 C29.2833333,54.2166667 30.35,53.75 31.55,53.75 L38.85,53.75 C40.15,53.75 41.2166667,54.2166667 42.05,55.15 C42.9833333,55.9833333 43.45,57.05 43.45,58.35 C43.45,59.55 42.9833333,60.6166667 42.05,61.55 L41.05,62.25 L29.35,62.25 M47.65,62.25 C47.2833333,62.0833333 46.95,61.85 46.65,61.55 C45.7833333,60.6166667 45.35,59.55 45.35,58.35 C45.35,57.05 45.7833333,55.9833333 46.65,55.15 C47.55,54.2166667 48.6166667,53.75 49.85,53.75 L57.15,53.75 C58.45,53.75 59.5166667,54.2166667 60.35,55.15 L61.2,56.15 C60.5666667,60.2166667 58.15,62.25 53.95,62.25 L47.65,62.25 M61.25,52.3 L58.8,52.3 C57.6,52.3 56.5333333,51.85 55.6,50.95 C54.7333333,50.0833333 54.3,49.0166667 54.3,47.75 C54.3,46.5166667 54.7333333,45.45 55.6,44.55 C56.5333333,43.6833333 57.6,43.25 58.8,43.25 L61.25,43.25 L61.25,52.3 M61.25,39.5 C61.0833333,40 60.7833333,40.4333333 60.35,40.8 C59.5166667,41.7 58.45,42.15 57.15,42.15 L49.85,42.15 C48.6166667,42.15 47.55,41.7 46.65,40.8 C45.7833333,39.9333333 45.35,38.8666667 45.35,37.6 C45.35,36.3666667 45.7833333,35.3 46.65,34.4 C47.55,33.5333333 48.6166667,33.1 49.85,33.1 L57.15,33.1 C58.45,33.1 59.5166667,33.5333333 60.35,34.4 L61.25,35.65 L61.25,39.5 M61.25,31.85 L58.8,31.85 C57.6,31.85 56.5333333,31.3833333 55.6,30.45 C54.7333333,29.6166667 54.3,28.55 54.3,27.25 C54.3,26.05 54.7333333,24.9833333 55.6,24.05 C56.5333333,23.2166667 57.6,22.8 58.8,22.8 L61.25,22.8 L61.25,31.85 M61.25,18.95 L60.35,20.2 C59.5166667,21.1333333 58.45,21.6 57.15,21.6 L49.85,21.6 C48.6166667,21.6 47.55,21.1333333 46.65,20.2 C45.7833333,19.3666667 45.35,18.3 45.35,17 C45.35,15.8 45.7833333,14.7333333 46.65,13.8 C47.55,12.9666667 48.6166667,12.55 49.85,12.55 L57.15,12.55 C58.45,12.55 59.5166667,12.9666667 60.35,13.8 L61.25,15.1 L61.25,18.95 M61.25,11.6 L58.8,11.6 C57.6,11.6 56.5333333,11.1833333 55.6,10.35 C54.7333333,9.41666667 54.3,8.35 54.3,7.15 C54.3,5.85 54.7333333,4.78333333 55.6,3.95 L55.7,3.95 C59.3,4.48333333 61.15,7.03333333 61.25,11.6 M50.6,3.75 L50.65,3.95 C51.5833333,4.78333333 52.05,5.85 52.05,7.15 C52.05,8.35 51.5833333,9.41666667 50.65,10.35 C49.8166667,11.1833333 48.75,11.6 47.45,11.6 L40.15,11.6 C38.9166667,11.6 37.85,11.1833333 36.95,10.35 C36.0833333,9.41666667 35.65,8.35 35.65,7.15 C35.65,5.85 36.0833333,4.78333333 36.95,3.95 L37.15,3.75 L50.6,3.75 M23.8,14.2 C24.7,15.1 25.15,16.1666667 25.15,17.4 C25.15,18.6666667 24.7,19.7333333 23.8,20.6 C22.9333333,21.5 21.8666667,21.95 20.6,21.95 L13.25,21.95 C12.05,21.95 10.9833333,21.5 10.05,20.6 C9.21666667,19.7333333 8.8,18.6666667 8.8,17.4 C8.8,16.1666667 9.21666667,15.1 10.05,14.2 C10.9833333,13.3333333 12.05,12.9 13.25,12.9 L20.6,12.9 C21.8666667,12.9 22.9333333,13.3333333 23.8,14.2 M22.05,22.8 L29.35,22.8 C30.65,22.8 31.7166667,23.2166667 32.55,24.05 C33.4833333,24.9833333 33.95,26.05 33.95,27.25 C33.95,28.55 33.4833333,29.6166667 32.55,30.45 C31.7166667,31.3833333 30.65,31.85 29.35,31.85 L22.05,31.85 C20.8166667,31.85 19.75,31.3833333 18.85,30.45 C17.9833333,29.6166667 17.55,28.55 17.55,27.25 C17.55,26.05 17.9833333,24.9833333 18.85,24.05 C19.75,23.2166667 20.8166667,22.8 22.05,22.8 M23.8,34.4 C24.7,35.3 25.15,36.3666667 25.15,37.6 C25.15,38.8666667 24.7,39.9333333 23.8,40.8 C22.9333333,41.7 21.8666667,42.15 20.6,42.15 L13.25,42.15 C12.05,42.15 10.9833333,41.7 10.05,40.8 C9.21666667,39.9333333 8.8,38.8666667 8.8,37.6 C8.8,36.3666667 9.21666667,35.3 10.05,34.4 C10.9833333,33.5333333 12.05,33.1 13.25,33.1 L20.6,33.1 C21.8666667,33.1 22.9333333,33.5333333 23.8,34.4 M18.85,44.55 C19.75,43.6833333 20.8166667,43.25 22.05,43.25 L29.35,43.25 C30.65,43.25 31.7166667,43.6833333 32.55,44.55 C33.4833333,45.45 33.95,46.5166667 33.95,47.75 C33.95,49.0166667 33.4833333,50.0833333 32.55,50.95 C31.7166667,51.85 30.65,52.3 29.35,52.3 L22.05,52.3 C20.8166667,52.3 19.75,51.85 18.85,50.95 C17.9833333,50.0833333 17.55,49.0166667 17.55,47.75 C17.55,46.5166667 17.9833333,45.45 18.85,44.55 M50.65,24.05 C51.5833333,24.9833333 52.05,26.05 52.05,27.25 C52.05,28.55 51.5833333,29.6166667 50.65,30.45 C49.8166667,31.3833333 48.75,31.85 47.45,31.85 L40.15,31.85 C38.9166667,31.85 37.85,31.3833333 36.95,30.45 C36.0833333,29.6166667 35.65,28.55 35.65,27.25 C35.65,26.05 36.0833333,24.9833333 36.95,24.05 C37.85,23.2166667 38.9166667,22.8 40.15,22.8 L47.45,22.8 C48.75,22.8 49.8166667,23.2166667 50.65,24.05 M43.45,37.6 C43.45,38.8666667 42.9833333,39.9333333 42.05,40.8 C41.2166667,41.7 40.15,42.15 38.85,42.15 L31.55,42.15 C30.35,42.15 29.2833333,41.7 28.35,40.8 C27.5166667,39.9333333 27.1,38.8666667 27.1,37.6 C27.1,36.3666667 27.5166667,35.3 28.35,34.4 C29.2833333,33.5333333 30.35,33.1 31.55,33.1 L38.85,33.1 C40.15,33.1 41.2166667,33.5333333 42.05,34.4 C42.9833333,35.3 43.45,36.3666667 43.45,37.6 M40.15,43.25 L47.45,43.25 C48.75,43.25 49.8166667,43.6833333 50.65,44.55 C51.5833333,45.45 52.05,46.5166667 52.05,47.75 C52.05,49.0166667 51.5833333,50.0833333 50.65,50.95 C49.8166667,51.85 48.75,52.3 47.45,52.3 L40.15,52.3 C38.9166667,52.3 37.85,51.85 36.95,50.95 C36.0833333,50.0833333 35.65,49.0166667 35.65,47.75 C35.65,46.5166667 36.0833333,45.45 36.95,44.55 C37.85,43.6833333 38.9166667,43.25 40.15,43.25" id="Shape" fill="#494949" sketch:type="MSShapeGroup"></path>
        </g>
    </g>
</svg>