<?xml version="1.0" encoding="UTF-8" standalone="no"?>
<svg width="64px" height="64px" viewBox="0 0 64 64" version="1.1" xmlns="http://www.w3.org/2000/svg" xmlns:xlink="http://www.w3.org/1999/xlink" xmlns:sketch="http://www.bohemiancoding.com/sketch/ns">
    <!-- Generator: Sketch 3.4.1 (15681) - http://www.bohemiancoding.com/sketch -->
    <title>wall-gray</title>
    <desc>Created with Sketch.</desc>
    <defs></defs>
    <g id="Page-1" stroke="none" stroke-width="1" fill="none" fill-rule="evenodd" sketch:type="MSPage">
        <g id="wall-gray" sketch:type="MSLayerGroup">
            <path d="M9.75,0 L10.4,0 L64,0 L64,64 L0,64 L0,0 L9.75,0 M1.55,9.8 L1.55,12.25 L1.55,21.3 L1.55,22.8 L1.55,29.8 L1.55,32.75 L1.55,41.8 L1.55,43.45 L1.55,50.5 L1.55,52.75 L1.55,61.25 L5.1,61.25 L11.4,61.25 L23,61.25 L29.55,61.25 L41.2,61.25 L47.75,61.25 L59.2,61.25 L62.2,61.25 L62.2,51.2 L62.2,42.15 L62.2,30.85 L62.2,21.8 L62.2,10.6 L62.2,2.75 L55.75,2.75 L50.65,2.75 L37.3,2.75 L32.5,2.75 L19.5,2.75 L14.55,2.75 L1.55,2.75 L1.55,9.8" id="Shape" fill="#9C9C9C" sketch:type="MSShapeGroup"></path>
            <path d="M1,10.05 C1.5,10.4166667 2.01666667,10.6833333 2.55,10.85 L3.85,11.05 L11.2,11.05 C12.4,11.05 13.4666667,10.6333333 14.4,9.8 C15.2333333,8.86666667 15.65,7.8 15.65,6.6 L15.65,6.5 L15.45,5.1 C15.2166667,4.43333333 14.8666667,3.86666667 14.4,3.4 L14.3,3.3 L14,3 L18.95,3 L18.55,3.4 C17.7166667,4.23333333 17.3,5.3 17.3,6.6 C17.3,7.8 17.7166667,8.86666667 18.55,9.8 C19.4833333,10.6333333 20.55,11.05 21.75,11.05 L29,11.05 C30.3,11.05 31.3666667,10.6333333 32.2,9.8 C33.1,8.86666667 33.55,7.8 33.55,6.6 C33.55,5.3 33.1,4.23333333 32.2,3.4 L31.95,3 L36.75,3 L36.55,3.2 C35.7166667,4.03333333 35.3,5.1 35.3,6.4 C35.3,7.6 35.7166667,8.66666667 36.55,9.6 C37.4833333,10.4333333 38.55,10.85 39.75,10.85 L47,10.85 C48.3,10.85 49.3666667,10.4333333 50.2,9.6 C51.1,8.66666667 51.55,7.6 51.55,6.4 C51.55,5.1 51.1,4.03333333 50.2,3.2 L50.1,3 L55.2,3 L55.1,3.1 C54.6666667,3.6 54.3666667,4.11666667 54.2,4.65 C53.9666667,5.15 53.85,5.7 53.85,6.3 L53.85,6.4 C53.85,7 53.9666667,7.58333333 54.2,8.15 L55.1,9.6 C55.7666667,10.2 56.5333333,10.6 57.4,10.8 L58.2,10.85 L61.65,10.85 L61.65,22.05 L58.3,22.05 C57.0666667,22.05 56,22.4666667 55.1,23.3 C54.2666667,24.2333333 53.85,25.3 53.85,26.5 C53.85,27.8 54.2666667,28.8666667 55.1,29.7 C56,30.6333333 57.0666667,31.1 58.3,31.1 L61.65,31.1 L61.65,42.4 L58.3,42.4 C57.0666667,42.4 56,42.8333333 55.1,43.7 C54.2666667,44.6 53.85,45.6666667 53.85,46.9 L53.85,47 L53.95,47.9 C54.05,48.7666667 54.4333333,49.5333333 55.1,50.2 C56,51.1 57.0666667,51.55 58.3,51.55 L60.75,51.55 L60.75,51.45 L61.65,51.45 L61.65,61.5 L58.65,61.5 L59.85,60.6 C60.75,59.7666667 61.2,58.7 61.2,57.4 C61.2,56.2 60.75,55.1333333 59.85,54.2 C58.9833333,53.3666667 57.9166667,52.95 56.65,52.95 L49.4,52.95 C48.1666667,52.95 47.1,53.3666667 46.2,54.2 C45.3666667,55.1333333 44.95,56.2 44.95,57.4 L44.95,57.6 C44.95,58.8 45.3666667,59.8666667 46.2,60.8 L47.2,61.5 L40.65,61.5 L41.65,60.8 C42.55,59.8666667 43,58.8 43,57.6 C43,56.3 42.55,55.2333333 41.65,54.4 C40.8166667,53.4666667 39.75,53 38.45,53 L31.2,53 C30,53 28.9333333,53.4666667 28,54.4 C27.1666667,55.2333333 26.75,56.3 26.75,57.6 C26.75,58.8 27.1666667,59.8666667 28,60.8 C28.3,61.1 28.6333333,61.3333333 29,61.5 L22.45,61.5 L23.1,61.15 L23.45,60.8 C24.3833333,59.8666667 24.85,58.8 24.85,57.6 C24.85,56.3 24.3833333,55.2333333 23.45,54.4 L23.1,54.05 C22.3333333,53.35 21.4,53 20.3,53 L13,53 C11.8,53 10.75,53.4666667 9.85,54.4 C8.98333333,55.2333333 8.55,56.3 8.55,57.6 C8.55,58.8 8.98333333,59.8666667 9.85,60.8 L10.85,61.5 L4.55,61.5 L5.55,60.7 L5.75,60.6 C6.55,59.7666667 6.95,58.7666667 6.95,57.6 L6.95,57.5 C6.95,56.2666667 6.48333333,55.2 5.55,54.3 C4.78333333,53.5 3.78333333,53.0666667 2.55,53 L2.4,53 L1,53 L1,50.75 C1.5,51.1166667 2.01666667,51.3833333 2.55,51.55 L3.85,51.75 L11.2,51.75 C12.4,51.75 13.4666667,51.2833333 14.4,50.35 C15,49.75 15.3833333,49.0333333 15.55,48.2 L15.65,47.35 L15.65,47.15 L15.65,47.1 L15.55,46.25 C15.3833333,45.4166667 15,44.65 14.4,43.95 C13.9,43.55 13.4166667,43.25 12.95,43.05 L11.2,42.7 L3.85,42.7 L2.55,42.85 L1,43.7 L1,42.05 L2.4,42.05 L2.55,42.05 C3.71666667,41.9833333 4.71666667,41.5333333 5.55,40.7 C6.48333333,39.8333333 6.95,38.7666667 6.95,37.5 C6.95,36.2666667 6.48333333,35.2 5.55,34.3 C4.71666667,33.4333333 3.71666667,33 2.55,33 L2.4,33 L1,33 L1,30.05 L2.55,30.9 L3.85,31.1 L11.2,31.1 C12.4,31.1 13.4666667,30.6333333 14.4,29.7 C15,29.1 15.3833333,28.3666667 15.55,27.5 L15.65,26.7 L15.65,26.5 L15.65,26.4 L15.55,25.6 C15.3833333,24.7333333 15,23.9666667 14.4,23.3 C13.9,22.8666667 13.4166667,22.5666667 12.95,22.4 L11.2,22.05 L3.85,22.05 L2.55,22.2 L1,23.05 L1,21.55 L2.4,21.55 L2.55,21.55 C3.71666667,21.5166667 4.71666667,21.0666667 5.55,20.2 C6.48333333,19.3333333 6.95,18.2666667 6.95,17 C6.95,15.7666667 6.48333333,14.7 5.55,13.8 C4.71666667,12.9333333 3.71666667,12.5 2.55,12.5 L2.4,12.5 L1,12.5 L1,10.05 M13,12.15 C11.8,12.15 10.75,12.5833333 9.85,13.45 C8.98333333,14.35 8.55,15.4166667 8.55,16.65 C8.55,17.9166667 8.98333333,18.9833333 9.85,19.85 C10.75,20.75 11.8,21.2 13,21.2 L20.3,21.2 C21.4,21.2 22.3333333,20.8666667 23.1,20.2 L23.45,19.85 C24.3833333,18.9833333 24.85,17.9166667 24.85,16.65 C24.85,15.4166667 24.3833333,14.35 23.45,13.45 L23.1,13.15 C22.3333333,12.4833333 21.4,12.15 20.3,12.15 L13,12.15 M13,32.35 C11.8,32.35 10.75,32.7833333 9.85,33.65 C8.98333333,34.55 8.55,35.6166667 8.55,36.85 C8.55,38.1166667 8.98333333,39.1833333 9.85,40.05 C10.75,40.95 11.8,41.4 13,41.4 L20.3,41.4 C21.4,41.4 22.3333333,41.0666667 23.1,40.4 L23.45,40.05 C24.3833333,39.1833333 24.85,38.1166667 24.85,36.85 L24.4,34.9 L23.45,33.65 L23.1,33.35 C22.3333333,32.6833333 21.4,32.35 20.3,32.35 L13,32.35 M28,13.45 C27.1666667,14.35 26.75,15.4166667 26.75,16.65 C26.75,17.9166667 27.1666667,18.9833333 28,19.85 C28.9333333,20.75 30,21.2 31.2,21.2 L38.45,21.2 C39.75,21.2 40.8166667,20.75 41.65,19.85 C42.55,18.9833333 43,17.9166667 43,16.65 C43,15.4166667 42.55,14.35 41.65,13.45 C40.8166667,12.5833333 39.75,12.15 38.45,12.15 L31.2,12.15 C30,12.15 28.9333333,12.5833333 28,13.45 M59.85,13.05 C58.9833333,12.2166667 57.9166667,11.8 56.65,11.8 L49.4,11.8 C48.1666667,11.8 47.1,12.2166667 46.2,13.05 C45.3666667,13.9833333 44.95,15.05 44.95,16.25 C44.95,17.55 45.3666667,18.6166667 46.2,19.45 C47.1,20.3833333 48.1666667,20.85 49.4,20.85 L56.65,20.85 C57.9166667,20.85 58.9833333,20.3833333 59.85,19.45 L60.55,18.65 C60.9833333,17.9833333 61.2,17.1833333 61.2,16.25 C61.2,15.35 60.95,14.5333333 60.45,13.8 L59.85,13.05 M21.75,42.5 C20.8833333,42.5 20.1,42.7166667 19.4,43.15 L18.55,43.8 C17.7166667,44.7 17.3,45.7666667 17.3,47 C17.3,48.2666667 17.7166667,49.3333333 18.55,50.2 C19.4833333,51.1 20.55,51.55 21.75,51.55 L29,51.55 C30.3,51.55 31.3666667,51.1 32.2,50.2 C33.1,49.3333333 33.55,48.2666667 33.55,47 C33.55,45.7666667 33.1,44.7 32.2,43.8 L31.4,43.15 C30.7333333,42.7166667 29.9333333,42.5 29,42.5 L21.75,42.5 M29,31.1 C30.3,31.1 31.3666667,30.6333333 32.2,29.7 C33.1,28.8666667 33.55,27.8 33.55,26.5 C33.55,25.3 33.1,24.2333333 32.2,23.3 C31.3666667,22.4666667 30.3,22.05 29,22.05 L21.75,22.05 C20.55,22.05 19.4833333,22.4666667 18.55,23.3 C17.7166667,24.2333333 17.3,25.3 17.3,26.5 C17.3,27.8 17.7166667,28.8666667 18.55,29.7 C19.4833333,30.6333333 20.55,31.1 21.75,31.1 L29,31.1 M44.95,36.75 L44.95,36.85 L45,37.75 C45.1333333,38.6166667 45.5333333,39.3833333 46.2,40.05 C47.1,40.95 48.1666667,41.4 49.4,41.4 L56.65,41.4 C57.9166667,41.4 58.9833333,40.95 59.85,40.05 L60.75,38.75 C61.05,38.15 61.2,37.4833333 61.2,36.75 C61.2,35.5166667 60.75,34.45 59.85,33.55 C58.9833333,32.6833333 57.9166667,32.25 56.65,32.25 L49.4,32.25 C48.1666667,32.25 47.1,32.6833333 46.2,33.55 C45.3666667,34.45 44.95,35.5166667 44.95,36.75 M43,36.85 C43,36.1833333 42.85,35.5333333 42.55,34.9 L41.65,33.65 C40.8166667,32.7833333 39.75,32.35 38.45,32.35 L31.2,32.35 C30,32.35 28.9333333,32.7833333 28,33.65 C27.6333333,34.0833333 27.3666667,34.5 27.2,34.9 C26.9,35.5333333 26.75,36.1833333 26.75,36.85 C26.75,38.1166667 27.1666667,39.1833333 28,40.05 C28.9333333,40.95 30,41.4 31.2,41.4 L38.45,41.4 C39.75,41.4 40.8166667,40.95 41.65,40.05 C42.55,39.1833333 43,38.1166667 43,36.85 M39.75,42.5 C38.8833333,42.5 38.1,42.7166667 37.4,43.15 C37.1,43.3166667 36.8166667,43.5333333 36.55,43.8 C35.7166667,44.7 35.3,45.7666667 35.3,47 C35.3,48.2666667 35.7166667,49.3333333 36.55,50.2 C37.4833333,51.1 38.55,51.55 39.75,51.55 L47,51.55 C48.3,51.55 49.3666667,51.1 50.2,50.2 C51.1,49.3333333 51.55,48.2666667 51.55,47 C51.55,45.7666667 51.1,44.7 50.2,43.8 C49.9666667,43.5333333 49.7,43.3166667 49.4,43.15 C48.7333333,42.7166667 47.9333333,42.5 47,42.5 L39.75,42.5 M50.2,23.3 C49.3666667,22.4666667 48.3,22.05 47,22.05 L39.75,22.05 C38.55,22.05 37.4833333,22.4666667 36.55,23.3 C35.7166667,24.2333333 35.3,25.3 35.3,26.5 C35.3,27.8 35.7166667,28.8666667 36.55,29.7 C37.4833333,30.6333333 38.55,31.1 39.75,31.1 L47,31.1 C48.3,31.1 49.3666667,30.6333333 50.2,29.7 C51.1,28.8666667 51.55,27.8 51.55,26.5 C51.55,25.3 51.1,24.2333333 50.2,23.3" id="Shape" fill="#E5E5E5" sketch:type="MSShapeGroup"></path>
            <path d="M50.2,23.3 C51.1,24.2333333 51.55,25.3 51.55,26.5 C51.55,27.8 51.1,28.8666667 50.2,29.7 C49.3666667,30.6333333 48.3,31.1 47,31.1 L39.75,31.1 C38.55,31.1 37.4833333,30.6333333 36.55,29.7 C35.7166667,28.8666667 35.3,27.8 35.3,26.5 C35.3,25.3 35.7166667,24.2333333 36.55,23.3 C37.4833333,22.4666667 38.55,22.05 39.75,22.05 L47,22.05 C48.3,22.05 49.3666667,22.4666667 50.2,23.3 M14,3 L14.3,3.3 L14.4,3.4 C14.8666667,3.86666667 15.2166667,4.43333333 15.45,5.1 L15.65,6.5 L15.65,6.6 C15.65,7.8 15.2333333,8.86666667 14.4,9.8 C13.4666667,10.6333333 12.4,11.05 11.2,11.05 L3.85,11.05 L2.55,10.85 C2.01666667,10.6833333 1.5,10.4166667 1,10.05 L1,3 L14,3 M1,12.5 L2.4,12.5 L2.55,12.5 C3.71666667,12.5 4.71666667,12.9333333 5.55,13.8 C6.48333333,14.7 6.95,15.7666667 6.95,17 C6.95,18.2666667 6.48333333,19.3333333 5.55,20.2 C4.71666667,21.0666667 3.71666667,21.5166667 2.55,21.55 L2.4,21.55 L1,21.55 L1,12.5 M1,23.05 L2.55,22.2 L3.85,22.05 L11.2,22.05 L12.95,22.4 C13.4166667,22.5666667 13.9,22.8666667 14.4,23.3 C15,23.9666667 15.3833333,24.7333333 15.55,25.6 L15.65,26.4 L15.65,26.5 L15.65,26.7 L15.55,27.5 C15.3833333,28.3666667 15,29.1 14.4,29.7 C13.4666667,30.6333333 12.4,31.1 11.2,31.1 L3.85,31.1 L2.55,30.9 L1,30.05 L1,23.05 M1,33 L2.4,33 L2.55,33 C3.71666667,33 4.71666667,33.4333333 5.55,34.3 C6.48333333,35.2 6.95,36.2666667 6.95,37.5 C6.95,38.7666667 6.48333333,39.8333333 5.55,40.7 C4.71666667,41.5333333 3.71666667,41.9833333 2.55,42.05 L2.4,42.05 L1,42.05 L1,33 M1,43.7 L2.55,42.85 L3.85,42.7 L11.2,42.7 L12.95,43.05 C13.4166667,43.25 13.9,43.55 14.4,43.95 C15,44.65 15.3833333,45.4166667 15.55,46.25 L15.65,47.1 L15.65,47.15 L15.65,47.35 L15.55,48.2 C15.3833333,49.0333333 15,49.75 14.4,50.35 C13.4666667,51.2833333 12.4,51.75 11.2,51.75 L3.85,51.75 L2.55,51.55 C2.01666667,51.3833333 1.5,51.1166667 1,50.75 L1,43.7 M1,53 L2.4,53 L2.55,53 C3.78333333,53.0666667 4.78333333,53.5 5.55,54.3 C6.48333333,55.2 6.95,56.2666667 6.95,57.5 L6.95,57.6 C6.95,58.7666667 6.55,59.7666667 5.75,60.6 L5.55,60.7 L4.55,61.5 L1,61.5 L1,53 M10.85,61.5 L9.85,60.8 C8.98333333,59.8666667 8.55,58.8 8.55,57.6 C8.55,56.3 8.98333333,55.2333333 9.85,54.4 C10.75,53.4666667 11.8,53 13,53 L20.3,53 C21.4,53 22.3333333,53.35 23.1,54.05 L23.45,54.4 C24.3833333,55.2333333 24.85,56.3 24.85,57.6 C24.85,58.8 24.3833333,59.8666667 23.45,60.8 L23.1,61.15 L22.45,61.5 L10.85,61.5 M29,61.5 C28.6333333,61.3333333 28.3,61.1 28,60.8 C27.1666667,59.8666667 26.75,58.8 26.75,57.6 C26.75,56.3 27.1666667,55.2333333 28,54.4 C28.9333333,53.4666667 30,53 31.2,53 L38.45,53 C39.75,53 40.8166667,53.4666667 41.65,54.4 C42.55,55.2333333 43,56.3 43,57.6 C43,58.8 42.55,59.8666667 41.65,60.8 L40.65,61.5 L29,61.5 M47.2,61.5 L46.2,60.8 C45.3666667,59.8666667 44.95,58.8 44.95,57.6 L44.95,57.4 C44.95,56.2 45.3666667,55.1333333 46.2,54.2 C47.1,53.3666667 48.1666667,52.95 49.4,52.95 L56.65,52.95 C57.9166667,52.95 58.9833333,53.3666667 59.85,54.2 C60.75,55.1333333 61.2,56.2 61.2,57.4 C61.2,58.7 60.75,59.7666667 59.85,60.6 L58.65,61.5 L47.2,61.5 M61.65,51.45 L60.75,51.45 L60.75,51.55 L58.3,51.55 C57.0666667,51.55 56,51.1 55.1,50.2 C54.4333333,49.5333333 54.05,48.7666667 53.95,47.9 L53.85,47 L53.85,46.9 C53.85,45.6666667 54.2666667,44.6 55.1,43.7 C56,42.8333333 57.0666667,42.4 58.3,42.4 L61.65,42.4 L61.65,51.45 M61.65,31.1 L58.3,31.1 C57.0666667,31.1 56,30.6333333 55.1,29.7 C54.2666667,28.8666667 53.85,27.8 53.85,26.5 C53.85,25.3 54.2666667,24.2333333 55.1,23.3 C56,22.4666667 57.0666667,22.05 58.3,22.05 L61.65,22.05 L61.65,31.1 M61.65,10.85 L58.2,10.85 L57.4,10.8 C56.5333333,10.6 55.7666667,10.2 55.1,9.6 L54.2,8.15 C53.9666667,7.58333333 53.85,7 53.85,6.4 L53.85,6.3 C53.85,5.7 53.9666667,5.15 54.2,4.65 C54.3666667,4.11666667 54.6666667,3.6 55.1,3.1 L55.2,3 L61.65,3 L61.65,10.85 M50.1,3 L50.2,3.2 C51.1,4.03333333 51.55,5.1 51.55,6.4 C51.55,7.6 51.1,8.66666667 50.2,9.6 C49.3666667,10.4333333 48.3,10.85 47,10.85 L39.75,10.85 C38.55,10.85 37.4833333,10.4333333 36.55,9.6 C35.7166667,8.66666667 35.3,7.6 35.3,6.4 C35.3,5.1 35.7166667,4.03333333 36.55,3.2 L36.75,3 L50.1,3 M31.95,3 L32.2,3.4 C33.1,4.23333333 33.55,5.3 33.55,6.6 C33.55,7.8 33.1,8.86666667 32.2,9.8 C31.3666667,10.6333333 30.3,11.05 29,11.05 L21.75,11.05 C20.55,11.05 19.4833333,10.6333333 18.55,9.8 C17.7166667,8.86666667 17.3,7.8 17.3,6.6 C17.3,5.3 17.7166667,4.23333333 18.55,3.4 L18.95,3 L31.95,3 M13,12.15 L20.3,12.15 C21.4,12.15 22.3333333,12.4833333 23.1,13.15 L23.45,13.45 C24.3833333,14.35 24.85,15.4166667 24.85,16.65 C24.85,17.9166667 24.3833333,18.9833333 23.45,19.85 L23.1,20.2 C22.3333333,20.8666667 21.4,21.2 20.3,21.2 L13,21.2 C11.8,21.2 10.75,20.75 9.85,19.85 C8.98333333,18.9833333 8.55,17.9166667 8.55,16.65 C8.55,15.4166667 8.98333333,14.35 9.85,13.45 C10.75,12.5833333 11.8,12.15 13,12.15 M13,32.35 L20.3,32.35 C21.4,32.35 22.3333333,32.6833333 23.1,33.35 L23.45,33.65 L24.4,34.9 L24.85,36.85 C24.85,38.1166667 24.3833333,39.1833333 23.45,40.05 L23.1,40.4 C22.3333333,41.0666667 21.4,41.4 20.3,41.4 L13,41.4 C11.8,41.4 10.75,40.95 9.85,40.05 C8.98333333,39.1833333 8.55,38.1166667 8.55,36.85 C8.55,35.6166667 8.98333333,34.55 9.85,33.65 C10.75,32.7833333 11.8,32.35 13,32.35 M59.85,13.05 L60.45,13.8 C60.95,14.5333333 61.2,15.35 61.2,16.25 C61.2,17.1833333 60.9833333,17.9833333 60.55,18.65 L59.85,19.45 C58.9833333,20.3833333 57.9166667,20.85 56.65,20.85 L49.4,20.85 C48.1666667,20.85 47.1,20.3833333 46.2,19.45 C45.3666667,18.6166667 44.95,17.55 44.95,16.25 C44.95,15.05 45.3666667,13.9833333 46.2,13.05 C47.1,12.2166667 48.1666667,11.8 49.4,11.8 L56.65,11.8 C57.9166667,11.8 58.9833333,12.2166667 59.85,13.05 M28,13.45 C28.9333333,12.5833333 30,12.15 31.2,12.15 L38.45,12.15 C39.75,12.15 40.8166667,12.5833333 41.65,13.45 C42.55,14.35 43,15.4166667 43,16.65 C43,17.9166667 42.55,18.9833333 41.65,19.85 C40.8166667,20.75 39.75,21.2 38.45,21.2 L31.2,21.2 C30,21.2 28.9333333,20.75 28,19.85 C27.1666667,18.9833333 26.75,17.9166667 26.75,16.65 C26.75,15.4166667 27.1666667,14.35 28,13.45 M39.75,42.5 L47,42.5 C47.9333333,42.5 48.7333333,42.7166667 49.4,43.15 C49.7,43.3166667 49.9666667,43.5333333 50.2,43.8 C51.1,44.7 51.55,45.7666667 51.55,47 C51.55,48.2666667 51.1,49.3333333 50.2,50.2 C49.3666667,51.1 48.3,51.55 47,51.55 L39.75,51.55 C38.55,51.55 37.4833333,51.1 36.55,50.2 C35.7166667,49.3333333 35.3,48.2666667 35.3,47 C35.3,45.7666667 35.7166667,44.7 36.55,43.8 C36.8166667,43.5333333 37.1,43.3166667 37.4,43.15 C38.1,42.7166667 38.8833333,42.5 39.75,42.5 M43,36.85 C43,38.1166667 42.55,39.1833333 41.65,40.05 C40.8166667,40.95 39.75,41.4 38.45,41.4 L31.2,41.4 C30,41.4 28.9333333,40.95 28,40.05 C27.1666667,39.1833333 26.75,38.1166667 26.75,36.85 C26.75,36.1833333 26.9,35.5333333 27.2,34.9 C27.3666667,34.5 27.6333333,34.0833333 28,33.65 C28.9333333,32.7833333 30,32.35 31.2,32.35 L38.45,32.35 C39.75,32.35 40.8166667,32.7833333 41.65,33.65 L42.55,34.9 C42.85,35.5333333 43,36.1833333 43,36.85 M44.95,36.75 C44.95,35.5166667 45.3666667,34.45 46.2,33.55 C47.1,32.6833333 48.1666667,32.25 49.4,32.25 L56.65,32.25 C57.9166667,32.25 58.9833333,32.6833333 59.85,33.55 C60.75,34.45 61.2,35.5166667 61.2,36.75 C61.2,37.4833333 61.05,38.15 60.75,38.75 L59.85,40.05 C58.9833333,40.95 57.9166667,41.4 56.65,41.4 L49.4,41.4 C48.1666667,41.4 47.1,40.95 46.2,40.05 C45.5333333,39.3833333 45.1333333,38.6166667 45,37.75 L44.95,36.85 L44.95,36.75 M29,31.1 L21.75,31.1 C20.55,31.1 19.4833333,30.6333333 18.55,29.7 C17.7166667,28.8666667 17.3,27.8 17.3,26.5 C17.3,25.3 17.7166667,24.2333333 18.55,23.3 C19.4833333,22.4666667 20.55,22.05 21.75,22.05 L29,22.05 C30.3,22.05 31.3666667,22.4666667 32.2,23.3 C33.1,24.2333333 33.55,25.3 33.55,26.5 C33.55,27.8 33.1,28.8666667 32.2,29.7 C31.3666667,30.6333333 30.3,31.1 29,31.1 M21.75,42.5 L29,42.5 C29.9333333,42.5 30.7333333,42.7166667 31.4,43.15 L32.2,43.8 C33.1,44.7 33.55,45.7666667 33.55,47 C33.55,48.2666667 33.1,49.3333333 32.2,50.2 C31.3666667,51.1 30.3,51.55 29,51.55 L21.75,51.55 C20.55,51.55 19.4833333,51.1 18.55,50.2 C17.7166667,49.3333333 17.3,48.2666667 17.3,47 C17.3,45.7666667 17.7166667,44.7 18.55,43.8 L19.4,43.15 C20.1,42.7166667 20.8833333,42.5 21.75,42.5" id="Shape" fill="#CDCDCD" sketch:type="MSShapeGroup"></path>
            <path d="M60.9,10.85 C60.7666667,6.28333333 58.9166667,3.73333333 55.35,3.2 L54.4,3 L63.6,3 L63.6,61.5 L54.1,61.5 C57.9666667,61.4 60.2,59.3666667 60.8,55.4 L60.9,53.2 L60.9,11.4 L60.9,10.85 M9.7,3 C5.23333333,3.13333333 2.9,5.75 2.7,10.85 L2.7,11.4 L2.7,53.2 C2.7,56.8666667 3.76666667,59.3333333 5.9,60.6 C6.93333333,61.1666667 8.2,61.4666667 9.7,61.5 L1.77635684e-15,61.5 L1.77635684e-15,3 L9.7,3" id="Shape" fill-opacity="0.6" fill="#9C9C9C" sketch:type="MSShapeGroup"></path>
        </g>
    </g>
</svg>