<?xml version="1.0" encoding="UTF-8" standalone="no"?>
<svg width="64px" height="64px" viewBox="0 0 64 64" version="1.1" xmlns="http://www.w3.org/2000/svg" xmlns:xlink="http://www.w3.org/1999/xlink" xmlns:sketch="http://www.bohemiancoding.com/sketch/ns">
    <!-- Generator: Sketch 3.4.1 (15681) - http://www.bohemiancoding.com/sketch -->
    <title>wall-gray-rounded</title>
    <desc>Created with Sketch.</desc>
    <defs></defs>
    <g id="Page-1" stroke="none" stroke-width="1" fill="none" fill-rule="evenodd" sketch:type="MSPage">
        <g id="wall-gray-rounded" sketch:type="MSLayerGroup">
            <path d="M64,10.5520737 L64,10.6020737 L64,11.1520737 L64,52.9520737 L63.9,55.4020737 L63.9,55.6020737 C63.0666667,61.2020737 59.75,64.0020737 53.95,64.0020737 L10.05,64.0020737 C7.88333333,64.0020737 6.1,63.5854071 4.7,62.7520737 L4.6,62.7520737 C1.53333333,61.0854071 0,57.8187404 0,52.9520737 L0,11.1520737 L0,10.6020737 L0,10.5520737 C0.266666667,3.4187404 3.61666667,-0.0979262673 10.05,0.00207373272 L53.95,0.00207373272 L56.35,0.302073733 L56.15,0.302073733 C61.2166667,0.835407066 63.8333333,4.25207373 64,10.5520737" id="Shape" fill="#9C9C9C" sketch:type="MSShapeGroup"></path>
            <path d="M37.4,3 L37.2,3.2 C36.3333333,4.03333333 35.9,5.1 35.9,6.4 C35.9,7.6 36.3333333,8.66666667 37.2,9.6 C38.1,10.4333333 39.1666667,10.85 40.4,10.85 L47.7,10.85 C49,10.85 50.0666667,10.4333333 50.9,9.6 C51.8333333,8.66666667 52.3,7.6 52.3,6.4 C52.3,5.1 51.8333333,4.03333333 50.9,3.2 L50.85,3 L54.2,3 L55.95,3.2 L55.85,3.2 C54.9833333,4.03333333 54.55,5.1 54.55,6.4 C54.55,7.6 54.9833333,8.66666667 55.85,9.6 C56.7833333,10.4333333 57.85,10.85 59.05,10.85 L61.5,10.85 L61.5,11.4 L61.5,14.35 L60.6,13.05 C59.7666667,12.2166667 58.7,11.8 57.4,11.8 L50.1,11.8 C48.8666667,11.8 47.8,12.2166667 46.9,13.05 C46.0333333,13.9833333 45.6,15.05 45.6,16.25 C45.6,17.55 46.0333333,18.6166667 46.9,19.45 C47.8,20.3833333 48.8666667,20.85 50.1,20.85 L57.4,20.85 C58.7,20.85 59.7666667,20.3833333 60.6,19.45 L61.5,18.2 L61.5,22.05 L59.05,22.05 C57.85,22.05 56.7833333,22.4666667 55.85,23.3 C54.9833333,24.2333333 54.55,25.3 54.55,26.5 C54.55,27.8 54.9833333,28.8666667 55.85,29.7 C56.7833333,30.6333333 57.85,31.1 59.05,31.1 L61.5,31.1 L61.5,34.9 L60.6,33.65 C59.7666667,32.7833333 58.7,32.35 57.4,32.35 L50.1,32.35 C48.8666667,32.35 47.8,32.7833333 46.9,33.65 C46.0333333,34.55 45.6,35.6166667 45.6,36.85 C45.6,38.1166667 46.0333333,39.1833333 46.9,40.05 C47.8,40.95 48.8666667,41.4 50.1,41.4 L57.4,41.4 C58.7,41.4 59.7666667,40.95 60.6,40.05 C61.0333333,39.6833333 61.3333333,39.25 61.5,38.75 L61.5,42.5 L59.05,42.5 C57.85,42.5 56.7833333,42.9333333 55.85,43.8 C54.9833333,44.7 54.55,45.7666667 54.55,47 C54.55,48.2666667 54.9833333,49.3333333 55.85,50.2 C56.7833333,51.1 57.85,51.55 59.05,51.55 L61.5,51.55 L61.5,53.2 L61.45,55.4 L60.6,54.4 C59.7666667,53.4666667 58.7,53 57.4,53 L50.1,53 C48.8666667,53 47.8,53.4666667 46.9,54.4 C46.0333333,55.2333333 45.6,56.3 45.6,57.6 C45.6,58.8 46.0333333,59.8666667 46.9,60.8 C47.2,61.1 47.5333333,61.3333333 47.9,61.5 L41.3,61.5 L42.3,60.8 C43.2333333,59.8666667 43.7,58.8 43.7,57.6 C43.7,56.3 43.2333333,55.2333333 42.3,54.4 C41.4666667,53.4666667 40.4,53 39.1,53 L31.8,53 C30.6,53 29.5333333,53.4666667 28.6,54.4 C27.7666667,55.2333333 27.35,56.3 27.35,57.6 C27.35,58.8 27.7666667,59.8666667 28.6,60.8 L29.6,61.5 L23.05,61.5 L24.05,60.8 C24.95,59.8666667 25.4,58.8 25.4,57.6 C25.4,56.3 24.95,55.2333333 24.05,54.4 C23.1833333,53.4666667 22.1166667,53 20.85,53 L13.5,53 C12.3,53 11.2333333,53.4666667 10.3,54.4 C9.46666667,55.2333333 9.05,56.3 9.05,57.6 C9.05,58.8 9.46666667,59.8666667 10.3,60.8 L11.35,61.5 L10.3,61.5 C8.66666667,61.5 7.3,61.2 6.2,60.6 C7,59.7666667 7.4,58.7666667 7.4,57.6 C7.4,56.3 6.93333333,55.2333333 6,54.4 C5.16666667,53.5333333 4.16666667,53.0666667 3,53 L3,51.55 L4.4,51.75 L11.7,51.75 C12.9,51.75 13.9666667,51.2833333 14.9,50.35 C15.7333333,49.5166667 16.15,48.45 16.15,47.15 C16.15,45.95 15.7333333,44.8833333 14.9,43.95 C13.9666667,43.1166667 12.9,42.7 11.7,42.7 L4.4,42.7 L3,42.85 L3,42.05 C4.16666667,41.9833333 5.16666667,41.5333333 6,40.7 C6.93333333,39.8333333 7.4,38.7666667 7.4,37.5 C7.4,36.2666667 6.93333333,35.2 6,34.3 C5.16666667,33.4333333 4.16666667,33 3,33 L3,30.9 L4.4,31.1 L11.7,31.1 C12.9,31.1 13.9666667,30.6333333 14.9,29.7 C15.7333333,28.8666667 16.15,27.8 16.15,26.5 C16.15,25.3 15.7333333,24.2333333 14.9,23.3 C13.9666667,22.4666667 12.9,22.05 11.7,22.05 L4.4,22.05 L3,22.2 L3,21.55 C4.16666667,21.5166667 5.16666667,21.0666667 6,20.2 C6.93333333,19.3333333 7.4,18.2666667 7.4,17 C7.4,15.7666667 6.93333333,14.7 6,13.8 C5.16666667,12.9333333 4.16666667,12.5 3,12.5 L3,11.4 L3,10.85 L4.4,11.05 L11.7,11.05 C12.9,11.05 13.9666667,10.6333333 14.9,9.8 C15.7333333,8.86666667 16.15,7.8 16.15,6.6 C16.15,5.3 15.7333333,4.23333333 14.9,3.4 L14.55,3 L19.45,3 L19.1,3.4 C18.2333333,4.23333333 17.8,5.3 17.8,6.6 C17.8,7.8 18.2333333,8.86666667 19.1,9.8 C20,10.6333333 21.0666667,11.05 22.3,11.05 L29.6,11.05 C30.9,11.05 31.9666667,10.6333333 32.8,9.8 C33.7333333,8.86666667 34.2,7.8 34.2,6.6 C34.2,5.3 33.7333333,4.23333333 32.8,3.4 L32.55,3 L37.4,3 M28.6,13.45 C27.7666667,14.35 27.35,15.4166667 27.35,16.65 C27.35,17.9166667 27.7666667,18.9833333 28.6,19.85 C29.5333333,20.75 30.6,21.2 31.8,21.2 L39.1,21.2 C40.4,21.2 41.4666667,20.75 42.3,19.85 C43.2333333,18.9833333 43.7,17.9166667 43.7,16.65 C43.7,15.4166667 43.2333333,14.35 42.3,13.45 C41.4666667,12.5833333 40.4,12.15 39.1,12.15 L31.8,12.15 C30.6,12.15 29.5333333,12.5833333 28.6,13.45 M50.9,43.8 C50.0666667,42.9333333 49,42.5 47.7,42.5 L40.4,42.5 C39.1666667,42.5 38.1,42.9333333 37.2,43.8 C36.3333333,44.7 35.9,45.7666667 35.9,47 C35.9,48.2666667 36.3333333,49.3333333 37.2,50.2 C38.1,51.1 39.1666667,51.55 40.4,51.55 L47.7,51.55 C49,51.55 50.0666667,51.1 50.9,50.2 C51.8333333,49.3333333 52.3,48.2666667 52.3,47 C52.3,45.7666667 51.8333333,44.7 50.9,43.8 M50.9,23.3 C50.0666667,22.4666667 49,22.05 47.7,22.05 L40.4,22.05 C39.1666667,22.05 38.1,22.4666667 37.2,23.3 C36.3333333,24.2333333 35.9,25.3 35.9,26.5 C35.9,27.8 36.3333333,28.8666667 37.2,29.7 C38.1,30.6333333 39.1666667,31.1 40.4,31.1 L47.7,31.1 C49,31.1 50.0666667,30.6333333 50.9,29.7 C51.8333333,28.8666667 52.3,27.8 52.3,26.5 C52.3,25.3 51.8333333,24.2333333 50.9,23.3 M28.6,40.05 C29.5333333,40.95 30.6,41.4 31.8,41.4 L39.1,41.4 C40.4,41.4 41.4666667,40.95 42.3,40.05 C43.2333333,39.1833333 43.7,38.1166667 43.7,36.85 C43.7,35.6166667 43.2333333,34.55 42.3,33.65 C41.4666667,32.7833333 40.4,32.35 39.1,32.35 L31.8,32.35 C30.6,32.35 29.5333333,32.7833333 28.6,33.65 C27.7666667,34.55 27.35,35.6166667 27.35,36.85 C27.35,38.1166667 27.7666667,39.1833333 28.6,40.05 M32.8,43.8 C31.9666667,42.9333333 30.9,42.5 29.6,42.5 L22.3,42.5 C21.0666667,42.5 20,42.9333333 19.1,43.8 C18.2333333,44.7 17.8,45.7666667 17.8,47 C17.8,48.2666667 18.2333333,49.3333333 19.1,50.2 C20,51.1 21.0666667,51.55 22.3,51.55 L29.6,51.55 C30.9,51.55 31.9666667,51.1 32.8,50.2 C33.7333333,49.3333333 34.2,48.2666667 34.2,47 C34.2,45.7666667 33.7333333,44.7 32.8,43.8 M32.8,23.3 C31.9666667,22.4666667 30.9,22.05 29.6,22.05 L22.3,22.05 C21.0666667,22.05 20,22.4666667 19.1,23.3 C18.2333333,24.2333333 17.8,25.3 17.8,26.5 C17.8,27.8 18.2333333,28.8666667 19.1,29.7 C20,30.6333333 21.0666667,31.1 22.3,31.1 L29.6,31.1 C30.9,31.1 31.9666667,30.6333333 32.8,29.7 C33.7333333,28.8666667 34.2,27.8 34.2,26.5 C34.2,25.3 33.7333333,24.2333333 32.8,23.3 M10.3,40.05 C11.2333333,40.95 12.3,41.4 13.5,41.4 L20.85,41.4 C22.1166667,41.4 23.1833333,40.95 24.05,40.05 C24.95,39.1833333 25.4,38.1166667 25.4,36.85 C25.4,35.6166667 24.95,34.55 24.05,33.65 C23.1833333,32.7833333 22.1166667,32.35 20.85,32.35 L13.5,32.35 C12.3,32.35 11.2333333,32.7833333 10.3,33.65 C9.46666667,34.55 9.05,35.6166667 9.05,36.85 C9.05,38.1166667 9.46666667,39.1833333 10.3,40.05 M13.5,12.15 C12.3,12.15 11.2333333,12.5833333 10.3,13.45 C9.46666667,14.35 9.05,15.4166667 9.05,16.65 C9.05,17.9166667 9.46666667,18.9833333 10.3,19.85 C11.2333333,20.75 12.3,21.2 13.5,21.2 L20.85,21.2 C22.1166667,21.2 23.1833333,20.75 24.05,19.85 C24.95,18.9833333 25.4,17.9166667 25.4,16.65 C25.4,15.4166667 24.95,14.35 24.05,13.45 C23.1833333,12.5833333 22.1166667,12.15 20.85,12.15 L13.5,12.15" id="Shape" fill="#E5E5E5" sketch:type="MSShapeGroup"></path>
            <path d="M13.5,12.15 L20.85,12.15 C22.1166667,12.15 23.1833333,12.5833333 24.05,13.45 C24.95,14.35 25.4,15.4166667 25.4,16.65 C25.4,17.9166667 24.95,18.9833333 24.05,19.85 C23.1833333,20.75 22.1166667,21.2 20.85,21.2 L13.5,21.2 C12.3,21.2 11.2333333,20.75 10.3,19.85 C9.46666667,18.9833333 9.05,17.9166667 9.05,16.65 C9.05,15.4166667 9.46666667,14.35 10.3,13.45 C11.2333333,12.5833333 12.3,12.15 13.5,12.15 M50.85,3 L50.9,3.2 C51.8333333,4.03333333 52.3,5.1 52.3,6.4 C52.3,7.6 51.8333333,8.66666667 50.9,9.6 C50.0666667,10.4333333 49,10.85 47.7,10.85 L40.4,10.85 C39.1666667,10.85 38.1,10.4333333 37.2,9.6 C36.3333333,8.66666667 35.9,7.6 35.9,6.4 C35.9,5.1 36.3333333,4.03333333 37.2,3.2 L37.4,3 L50.85,3 M32.55,3 L32.8,3.4 C33.7333333,4.23333333 34.2,5.3 34.2,6.6 C34.2,7.8 33.7333333,8.86666667 32.8,9.8 C31.9666667,10.6333333 30.9,11.05 29.6,11.05 L22.3,11.05 C21.0666667,11.05 20,10.6333333 19.1,9.8 C18.2333333,8.86666667 17.8,7.8 17.8,6.6 C17.8,5.3 18.2333333,4.23333333 19.1,3.4 L19.45,3 L32.55,3 M14.55,3 L14.9,3.4 C15.7333333,4.23333333 16.15,5.3 16.15,6.6 C16.15,7.8 15.7333333,8.86666667 14.9,9.8 C13.9666667,10.6333333 12.9,11.05 11.7,11.05 L4.4,11.05 L3,10.85 C3.2,5.61666667 5.63333333,3 10.3,3 L14.55,3 M3,12.5 C4.16666667,12.5 5.16666667,12.9333333 6,13.8 C6.93333333,14.7 7.4,15.7666667 7.4,17 C7.4,18.2666667 6.93333333,19.3333333 6,20.2 C5.16666667,21.0666667 4.16666667,21.5166667 3,21.55 L3,12.5 M3,22.2 L4.4,22.05 L11.7,22.05 C12.9,22.05 13.9666667,22.4666667 14.9,23.3 C15.7333333,24.2333333 16.15,25.3 16.15,26.5 C16.15,27.8 15.7333333,28.8666667 14.9,29.7 C13.9666667,30.6333333 12.9,31.1 11.7,31.1 L4.4,31.1 L3,30.9 L3,22.2 M3,33 C4.16666667,33 5.16666667,33.4333333 6,34.3 C6.93333333,35.2 7.4,36.2666667 7.4,37.5 C7.4,38.7666667 6.93333333,39.8333333 6,40.7 C5.16666667,41.5333333 4.16666667,41.9833333 3,42.05 L3,33 M3,42.85 L4.4,42.7 L11.7,42.7 C12.9,42.7 13.9666667,43.1166667 14.9,43.95 C15.7333333,44.8833333 16.15,45.95 16.15,47.15 C16.15,48.45 15.7333333,49.5166667 14.9,50.35 C13.9666667,51.2833333 12.9,51.75 11.7,51.75 L4.4,51.75 L3,51.55 L3,42.85 M3,53 C4.16666667,53.0666667 5.16666667,53.5333333 6,54.4 C6.93333333,55.2333333 7.4,56.3 7.4,57.6 C7.4,58.7666667 7,59.7666667 6.2,60.6 C4.06666667,59.3333333 3,56.8666667 3,53.2 L3,53 M11.35,61.5 L10.3,60.8 C9.46666667,59.8666667 9.05,58.8 9.05,57.6 C9.05,56.3 9.46666667,55.2333333 10.3,54.4 C11.2333333,53.4666667 12.3,53 13.5,53 L20.85,53 C22.1166667,53 23.1833333,53.4666667 24.05,54.4 C24.95,55.2333333 25.4,56.3 25.4,57.6 C25.4,58.8 24.95,59.8666667 24.05,60.8 L23.05,61.5 L11.35,61.5 M29.6,61.5 L28.6,60.8 C27.7666667,59.8666667 27.35,58.8 27.35,57.6 C27.35,56.3 27.7666667,55.2333333 28.6,54.4 C29.5333333,53.4666667 30.6,53 31.8,53 L39.1,53 C40.4,53 41.4666667,53.4666667 42.3,54.4 C43.2333333,55.2333333 43.7,56.3 43.7,57.6 C43.7,58.8 43.2333333,59.8666667 42.3,60.8 L41.3,61.5 L29.6,61.5 M47.9,61.5 C47.5333333,61.3333333 47.2,61.1 46.9,60.8 C46.0333333,59.8666667 45.6,58.8 45.6,57.6 C45.6,56.3 46.0333333,55.2333333 46.9,54.4 C47.8,53.4666667 48.8666667,53 50.1,53 L57.4,53 C58.7,53 59.7666667,53.4666667 60.6,54.4 L61.45,55.4 C60.8166667,59.4666667 58.4,61.5 54.2,61.5 L47.9,61.5 M61.5,51.55 L59.05,51.55 C57.85,51.55 56.7833333,51.1 55.85,50.2 C54.9833333,49.3333333 54.55,48.2666667 54.55,47 C54.55,45.7666667 54.9833333,44.7 55.85,43.8 C56.7833333,42.9333333 57.85,42.5 59.05,42.5 L61.5,42.5 L61.5,51.55 M61.5,38.75 C61.3333333,39.25 61.0333333,39.6833333 60.6,40.05 C59.7666667,40.95 58.7,41.4 57.4,41.4 L50.1,41.4 C48.8666667,41.4 47.8,40.95 46.9,40.05 C46.0333333,39.1833333 45.6,38.1166667 45.6,36.85 C45.6,35.6166667 46.0333333,34.55 46.9,33.65 C47.8,32.7833333 48.8666667,32.35 50.1,32.35 L57.4,32.35 C58.7,32.35 59.7666667,32.7833333 60.6,33.65 L61.5,34.9 L61.5,38.75 M61.5,31.1 L59.05,31.1 C57.85,31.1 56.7833333,30.6333333 55.85,29.7 C54.9833333,28.8666667 54.55,27.8 54.55,26.5 C54.55,25.3 54.9833333,24.2333333 55.85,23.3 C56.7833333,22.4666667 57.85,22.05 59.05,22.05 L61.5,22.05 L61.5,31.1 M61.5,18.2 L60.6,19.45 C59.7666667,20.3833333 58.7,20.85 57.4,20.85 L50.1,20.85 C48.8666667,20.85 47.8,20.3833333 46.9,19.45 C46.0333333,18.6166667 45.6,17.55 45.6,16.25 C45.6,15.05 46.0333333,13.9833333 46.9,13.05 C47.8,12.2166667 48.8666667,11.8 50.1,11.8 L57.4,11.8 C58.7,11.8 59.7666667,12.2166667 60.6,13.05 L61.5,14.35 L61.5,18.2 M61.5,10.85 L59.05,10.85 C57.85,10.85 56.7833333,10.4333333 55.85,9.6 C54.9833333,8.66666667 54.55,7.6 54.55,6.4 C54.55,5.1 54.9833333,4.03333333 55.85,3.2 L55.95,3.2 C59.55,3.73333333 61.4,6.28333333 61.5,10.85 M28.6,13.45 C29.5333333,12.5833333 30.6,12.15 31.8,12.15 L39.1,12.15 C40.4,12.15 41.4666667,12.5833333 42.3,13.45 C43.2333333,14.35 43.7,15.4166667 43.7,16.65 C43.7,17.9166667 43.2333333,18.9833333 42.3,19.85 C41.4666667,20.75 40.4,21.2 39.1,21.2 L31.8,21.2 C30.6,21.2 29.5333333,20.75 28.6,19.85 C27.7666667,18.9833333 27.35,17.9166667 27.35,16.65 C27.35,15.4166667 27.7666667,14.35 28.6,13.45 M50.9,23.3 C51.8333333,24.2333333 52.3,25.3 52.3,26.5 C52.3,27.8 51.8333333,28.8666667 50.9,29.7 C50.0666667,30.6333333 49,31.1 47.7,31.1 L40.4,31.1 C39.1666667,31.1 38.1,30.6333333 37.2,29.7 C36.3333333,28.8666667 35.9,27.8 35.9,26.5 C35.9,25.3 36.3333333,24.2333333 37.2,23.3 C38.1,22.4666667 39.1666667,22.05 40.4,22.05 L47.7,22.05 C49,22.05 50.0666667,22.4666667 50.9,23.3 M50.9,43.8 C51.8333333,44.7 52.3,45.7666667 52.3,47 C52.3,48.2666667 51.8333333,49.3333333 50.9,50.2 C50.0666667,51.1 49,51.55 47.7,51.55 L40.4,51.55 C39.1666667,51.55 38.1,51.1 37.2,50.2 C36.3333333,49.3333333 35.9,48.2666667 35.9,47 C35.9,45.7666667 36.3333333,44.7 37.2,43.8 C38.1,42.9333333 39.1666667,42.5 40.4,42.5 L47.7,42.5 C49,42.5 50.0666667,42.9333333 50.9,43.8 M32.8,23.3 C33.7333333,24.2333333 34.2,25.3 34.2,26.5 C34.2,27.8 33.7333333,28.8666667 32.8,29.7 C31.9666667,30.6333333 30.9,31.1 29.6,31.1 L22.3,31.1 C21.0666667,31.1 20,30.6333333 19.1,29.7 C18.2333333,28.8666667 17.8,27.8 17.8,26.5 C17.8,25.3 18.2333333,24.2333333 19.1,23.3 C20,22.4666667 21.0666667,22.05 22.3,22.05 L29.6,22.05 C30.9,22.05 31.9666667,22.4666667 32.8,23.3 M32.8,43.8 C33.7333333,44.7 34.2,45.7666667 34.2,47 C34.2,48.2666667 33.7333333,49.3333333 32.8,50.2 C31.9666667,51.1 30.9,51.55 29.6,51.55 L22.3,51.55 C21.0666667,51.55 20,51.1 19.1,50.2 C18.2333333,49.3333333 17.8,48.2666667 17.8,47 C17.8,45.7666667 18.2333333,44.7 19.1,43.8 C20,42.9333333 21.0666667,42.5 22.3,42.5 L29.6,42.5 C30.9,42.5 31.9666667,42.9333333 32.8,43.8 M28.6,40.05 C27.7666667,39.1833333 27.35,38.1166667 27.35,36.85 C27.35,35.6166667 27.7666667,34.55 28.6,33.65 C29.5333333,32.7833333 30.6,32.35 31.8,32.35 L39.1,32.35 C40.4,32.35 41.4666667,32.7833333 42.3,33.65 C43.2333333,34.55 43.7,35.6166667 43.7,36.85 C43.7,38.1166667 43.2333333,39.1833333 42.3,40.05 C41.4666667,40.95 40.4,41.4 39.1,41.4 L31.8,41.4 C30.6,41.4 29.5333333,40.95 28.6,40.05 M10.3,40.05 C9.46666667,39.1833333 9.05,38.1166667 9.05,36.85 C9.05,35.6166667 9.46666667,34.55 10.3,33.65 C11.2333333,32.7833333 12.3,32.35 13.5,32.35 L20.85,32.35 C22.1166667,32.35 23.1833333,32.7833333 24.05,33.65 C24.95,34.55 25.4,35.6166667 25.4,36.85 C25.4,38.1166667 24.95,39.1833333 24.05,40.05 C23.1833333,40.95 22.1166667,41.4 20.85,41.4 L13.5,41.4 C12.3,41.4 11.2333333,40.95 10.3,40.05" id="Shape" fill="#CDCDCD" sketch:type="MSShapeGroup"></path>
        </g>
    </g>
</svg>