<?xml version="1.0" encoding="UTF-8" standalone="no"?>
<svg width="64px" height="64px" viewBox="0 0 64 64" version="1.1" xmlns="http://www.w3.org/2000/svg" xmlns:xlink="http://www.w3.org/1999/xlink" xmlns:sketch="http://www.bohemiancoding.com/sketch/ns">
    <!-- Generator: Sketch 3.4.1 (15681) - http://www.bohemiancoding.com/sketch -->
    <title>wall-brown</title>
    <desc>Created with Sketch.</desc>
    <defs></defs>
    <g id="Page-1" stroke="none" stroke-width="1" fill="none" fill-rule="evenodd" sketch:type="MSPage">
        <g id="wall-brown" sketch:type="MSLayerGroup">
            <g id="Shape" sketch:type="MSShapeGroup">
                <path d="M37.4999991,2.18412698 C36.6666658,3.06455026 36.2499991,4.14814815 36.2499991,5.43492063 C36.2499991,6.68783069 36.6666658,7.77142857 37.4999991,8.68571429 C38.4333324,9.56613757 39.4999991,10.0063492 40.699999,10.0063492 L47.9999988,10.0063492 C49.2666655,10.0063492 50.3166655,9.56613757 51.1499988,8.68571429 C52.0499987,7.77142857 52.4999987,6.68783069 52.4999987,5.43492063 C52.4999987,4.14814815 52.0499987,3.06455026 51.1499988,2.18412698 L51.0499988,2.03174603 L56.1499986,2.03174603 C55.6499986,2.60740741 55.3499987,3.13227513 55.1499987,3.70793651 C54.9166653,4.18201058 54.7999987,4.74074074 54.7999987,5.38412698 C54.7999987,6.07830688 54.9166653,6.67089947 55.1499987,7.21269841 C55.3499987,7.72063492 55.6499986,8.21164021 56.0499986,8.68571429 C56.7166653,9.32910053 57.4833319,9.73544974 58.3499986,9.9047619 L59.1499986,10.0063492 L62.5999985,10.0063492 L62.5999985,21.3333333 L59.2499986,21.3333333 C58.0499986,21.3333333 56.9833319,21.773545 56.0499986,22.6539683 C55.2166653,23.568254 54.7999987,24.6518519 54.7999987,25.9047619 C54.7999987,27.1915344 55.2166653,28.2751323 56.0499986,29.1555556 C56.9833319,30.0698413 58.0499986,30.5269841 59.2499986,30.5269841 L62.5999985,30.5269841 L62.5999985,42.0571429 L59.2499986,42.0571429 C58.0499986,42.0571429 56.9833319,42.4804233 56.0499986,43.3269841 C55.2166653,44.2751323 54.7999987,45.3587302 54.7999987,46.5777778 L54.8999987,47.6444444 C54.9999987,48.4910053 55.383332,49.2529101 56.0499986,49.9301587 C56.9833319,50.8783069 58.0499986,51.352381 59.2499986,51.352381 L61.6999985,51.352381 L62.5999985,51.2507937 L62.5999985,61.4603175 L59.5999985,61.4603175 L60.7999985,60.5460317 C61.6999985,59.6656085 62.1499985,58.5820106 62.1499985,57.2952381 C62.1499985,56.042328 61.6999985,54.9587302 60.7999985,54.0444444 C59.9333319,53.1640212 58.8666652,52.7238095 57.5999986,52.7238095 L50.3499988,52.7238095 C49.1166655,52.7238095 48.0499988,53.1640212 47.1499989,54.0444444 C46.3166656,54.9587302 45.8999989,56.042328 45.8999989,57.2952381 C45.8999989,58.7005291 46.3166656,59.784127 47.1499989,60.6984127 L48.1499988,61.4603175 L41.599999,61.4603175 L42.599999,60.6984127 C43.5333323,59.784127 43.9999989,58.7005291 43.9999989,57.447619 C43.9999989,56.1608466 43.5333323,55.0772487 42.599999,54.1968254 C41.7666657,53.2825397 40.7166657,52.8253968 39.4499991,52.8253968 L32.1499992,52.8253968 C30.9499993,52.8253968 29.8999993,53.2825397 28.9999993,54.1968254 C28.1333327,55.0772487 27.6999994,56.1608466 27.6999994,57.447619 C27.6999994,58.7005291 28.1333327,59.784127 28.9999993,60.6984127 L29.9999993,61.4603175 L23.4499995,61.4603175 L24.0499994,61.1047619 L24.4499994,60.6984127 C25.3499994,59.784127 25.7999994,58.7005291 25.7999994,57.447619 C25.7999994,56.1608466 25.3499994,55.0772487 24.4499994,54.1968254 L24.0499994,53.8412698 C23.2833328,53.1640212 22.3499995,52.8253968 21.2499995,52.8253968 L13.9999997,52.8253968 C12.7666664,52.8253968 11.6999998,53.2825397 10.7999998,54.1968254 C9.93333313,55.0772487 9.49999981,56.1608466 9.49999981,57.447619 C9.49999981,58.7005291 9.93333313,59.784127 10.7999998,60.6984127 L11.7999998,61.4603175 L5.49999991,61.4603175 L6.49999989,60.647619 L6.69999988,60.5460317 C7.49999986,59.6656085 7.89999985,58.6328042 7.89999985,57.447619 C7.89999985,56.1439153 7.4333332,55.0603175 6.49999989,54.1460317 C5.73333324,53.3333333 4.73333326,52.8931217 3.49999996,52.8253968 L2,52.8253968 L2,50.4888889 L3.49999996,51.352381 L4.79999993,51.5047619 L12.1499997,51.5047619 C13.383333,51.5047619 14.4499997,51.047619 15.3499997,50.1333333 C15.9499996,49.5238095 16.333333,48.778836 16.4999996,47.8984127 L16.5999996,47.0857143 L16.5999996,46.8825397 L16.4999996,45.968254 C16.333333,45.0878307 15.9499996,44.3089947 15.3499997,43.631746 L13.8999997,42.7174603 L12.1499997,42.3111111 L4.79999993,42.3111111 L3.49999996,42.5142857 C2.96666664,42.6835979 2.46666665,42.9544974 2,43.3269841 L2,41.7015873 L3.34999997,41.7015873 C4.6666666,41.6338624 5.66666657,41.1597884 6.49999989,40.2793651 C7.4333332,39.4328042 7.89999985,38.3492063 7.89999985,37.0285714 C7.89999985,35.8095238 7.4333332,34.7259259 6.49999989,33.7777778 C5.66666657,32.9312169 4.6666666,32.5079365 3.49999996,32.5079365 L2,32.5079365 L2,29.5111111 L3.49999996,30.3238095 L4.79999993,30.5269841 L12.1499997,30.5269841 C13.383333,30.5269841 14.4499997,30.0698413 15.3499997,29.1555556 C15.9499996,28.5121693 16.333333,27.7671958 16.4999996,26.9206349 L16.5999996,26.0571429 L16.5999996,25.8031746 L16.4999996,24.9396825 C16.333333,24.0931217 15.9499996,23.3312169 15.3499997,22.6539683 L13.8999997,21.6888889 L12.1499997,21.3333333 L4.79999993,21.3333333 L3.49999996,21.5365079 C2.96666664,21.7058201 2.46666665,21.9767196 2,22.3492063 L2,20.8761905 L3.34999997,20.8761905 C4.6666666,20.8084656 5.66666657,20.3513228 6.49999989,19.5047619 C7.4333332,18.6243386 7.89999985,17.5407407 7.89999985,16.2539683 C7.89999985,15.0010582 7.4333332,13.9174603 6.49999989,13.0031746 C5.66666657,12.1227513 4.6666666,11.6825397 3.49999996,11.6825397 L2,11.6825397 L2,9.19365079 L3.49999996,10.0063492 L4.79999993,10.2095238 L12.1499997,10.2095238 C13.383333,10.2095238 14.4499997,9.76931217 15.3499997,8.88888889 C16.183333,7.97460317 16.5999996,6.89100529 16.5999996,5.63809524 L16.4499996,4.16507937 L15.3499997,2.38730159 L14.9999997,2.03174603 L19.8999995,2.03174603 L19.4999996,2.38730159 C18.6666662,3.26772487 18.2499996,4.35132275 18.2499996,5.63809524 C18.2499996,6.89100529 18.6666662,7.97460317 19.4999996,8.88888889 C20.4333329,9.76931217 21.4999995,10.2095238 22.6999995,10.2095238 L29.9999993,10.2095238 C31.2666659,10.2095238 32.3166659,9.76931217 33.1499992,8.88888889 C34.0499992,7.97460317 34.4999992,6.89100529 34.4999992,5.63809524 C34.4999992,4.35132275 34.0499992,3.26772487 33.1499992,2.38730159 L32.8999992,2.03174603 L37.6999991,2.03174603 L37.4999991,2.18412698 Z M24.4499994,12.5968254 L24.0499994,12.3428571 C23.2833328,11.6656085 22.3499995,11.3269841 21.2499995,11.3269841 L13.9999997,11.3269841 C12.7666664,11.3269841 11.6999998,11.7502646 10.7999998,12.5968254 C9.93333313,13.5449735 9.49999981,14.6285714 9.49999981,15.847619 C9.49999981,17.168254 9.93333313,18.2518519 10.7999998,19.0984127 C11.6999998,20.0465608 12.7666664,20.5206349 13.9999997,20.5206349 L21.2499995,20.5206349 C22.3499995,20.5206349 23.2833328,20.1820106 24.0499994,19.5047619 L24.4499994,19.0984127 C25.3499994,18.2518519 25.7999994,17.168254 25.7999994,15.847619 C25.7999994,14.6285714 25.3499994,13.5449735 24.4499994,12.5968254 M50.3499988,10.9206349 C49.1166655,10.9206349 48.0499988,11.3608466 47.1499989,12.2412698 C46.3166656,13.1555556 45.8999989,14.2391534 45.8999989,15.4920635 C45.8999989,16.778836 46.3166656,17.8624339 47.1499989,18.7428571 C48.0499988,19.6571429 49.1166655,20.1142857 50.3499988,20.1142857 L57.5999986,20.1142857 C58.8666652,20.1142857 59.9333319,19.6571429 60.7999985,18.7428571 L61.4999985,17.8793651 C61.9333318,17.2021164 62.1499985,16.4063492 62.1499985,15.4920635 C62.1499985,14.5439153 61.9166652,13.7142857 61.4499985,13.0031746 L60.7999985,12.2412698 C59.9333319,11.3608466 58.8666652,10.9206349 57.5999986,10.9206349 L50.3499988,10.9206349 M42.599999,12.5968254 C41.7666657,11.7502646 40.7166657,11.3269841 39.4499991,11.3269841 L32.1499992,11.3269841 C30.9499993,11.3269841 29.8999993,11.7502646 28.9999993,12.5968254 C28.1333327,13.5449735 27.6999994,14.6285714 27.6999994,15.847619 C27.6999994,17.168254 28.1333327,18.2518519 28.9999993,19.0984127 C29.8999993,20.0465608 30.9499993,20.5206349 32.1499992,20.5206349 L39.4499991,20.5206349 C40.7166657,20.5206349 41.7666657,20.0465608 42.599999,19.0984127 C43.5333323,18.2518519 43.9999989,17.168254 43.9999989,15.847619 C43.9999989,14.6285714 43.5333323,13.5449735 42.599999,12.5968254 M47.1499989,33.015873 C46.3166656,33.9640212 45.8999989,35.047619 45.8999989,36.2666667 L45.8999989,36.368254 L45.9999989,37.3333333 C46.0999989,38.1798942 46.4833322,38.9417989 47.1499989,39.6190476 C48.0499988,40.5671958 49.1166655,41.0412698 50.3499988,41.0412698 L57.5999986,41.0412698 C58.8666652,41.0412698 59.9333319,40.5671958 60.7999985,39.6190476 C61.2333318,39.2465608 61.5333318,38.8232804 61.6999985,38.3492063 L62.1499985,36.2666667 C62.1499985,35.047619 61.6999985,33.9640212 60.7999985,33.015873 C59.9333319,32.1693122 58.8666652,31.7460317 57.5999986,31.7460317 L50.3499988,31.7460317 C49.1166655,31.7460317 48.0499988,32.1693122 47.1499989,33.015873 M52.4999987,25.9047619 C52.4999987,24.6518519 52.0499987,23.568254 51.1499988,22.6539683 C50.3166655,21.773545 49.2666655,21.3333333 47.9999988,21.3333333 L40.699999,21.3333333 C39.4999991,21.3333333 38.4333324,21.773545 37.4999991,22.6539683 C36.6666658,23.568254 36.2499991,24.6518519 36.2499991,25.9047619 C36.2499991,27.1915344 36.6666658,28.2751323 37.4999991,29.1555556 C38.4333324,30.0698413 39.4999991,30.5269841 40.699999,30.5269841 L47.9999988,30.5269841 C49.2666655,30.5269841 50.3166655,30.0698413 51.1499988,29.1555556 C52.0499987,28.2751323 52.4999987,27.1915344 52.4999987,25.9047619 M28.1499993,34.4380952 C27.8499993,35.047619 27.6999994,35.6910053 27.6999994,36.368254 C27.6999994,37.6888889 28.1333327,38.7724868 28.9999993,39.6190476 C29.8999993,40.5671958 30.9499993,41.0412698 32.1499992,41.0412698 L39.4499991,41.0412698 C40.7166657,41.0412698 41.7666657,40.5671958 42.599999,39.6190476 C43.5333323,38.7724868 43.9999989,37.6888889 43.9999989,36.368254 C43.9999989,35.6910053 43.8333323,35.047619 43.499999,34.4380952 L42.599999,33.1174603 C41.7666657,32.2708995 40.7166657,31.847619 39.4499991,31.847619 L32.1499992,31.847619 C30.9499993,31.847619 29.8999993,32.2708995 28.9999993,33.1174603 L28.1499993,34.4380952 M24.0499994,32.8634921 C23.2833328,32.1862434 22.3499995,31.847619 21.2499995,31.847619 L13.9999997,31.847619 C12.7666664,31.847619 11.6999998,32.2708995 10.7999998,33.1174603 C9.93333313,34.0656085 9.49999981,35.1492063 9.49999981,36.368254 C9.49999981,37.6888889 9.93333313,38.7724868 10.7999998,39.6190476 C11.6999998,40.5671958 12.7666664,41.0412698 13.9999997,41.0412698 L21.2499995,41.0412698 C22.3499995,41.0412698 23.2833328,40.7026455 24.0499994,40.0253968 L24.4499994,39.6190476 C25.3499994,38.7724868 25.7999994,37.6888889 25.7999994,36.368254 C25.7999994,35.6910053 25.6499994,35.047619 25.3499994,34.4380952 L24.4499994,33.1174603 L24.0499994,32.8634921 M33.1499992,22.6539683 C32.3166659,21.773545 31.2666659,21.3333333 29.9999993,21.3333333 L22.6999995,21.3333333 C21.4999995,21.3333333 20.4333329,21.773545 19.4999996,22.6539683 C18.6666662,23.568254 18.2499996,24.6518519 18.2499996,25.9047619 C18.2499996,27.1915344 18.6666662,28.2751323 19.4999996,29.1555556 C20.4333329,30.0698413 21.4999995,30.5269841 22.6999995,30.5269841 L29.9999993,30.5269841 C31.2666659,30.5269841 32.3166659,30.0698413 33.1499992,29.1555556 C34.0499992,28.2751323 34.4999992,27.1915344 34.4999992,25.9047619 C34.4999992,24.6518519 34.0499992,23.568254 33.1499992,22.6539683 M29.9999993,51.352381 C31.2666659,51.352381 32.3166659,50.8783069 33.1499992,49.9301587 C34.0499992,49.0835979 34.4999992,48 34.4999992,46.6793651 C34.4999992,45.4603175 34.0499992,44.3767196 33.1499992,43.4285714 L32.3499992,42.768254 C31.6833326,42.3619048 30.8999993,42.1587302 29.9999993,42.1587302 L22.6999995,42.1587302 C21.8666662,42.1587302 21.0833329,42.3619048 20.3499995,42.768254 L19.4999996,43.4285714 C18.6666662,44.3767196 18.2499996,45.4603175 18.2499996,46.6793651 C18.2499996,48 18.6666662,49.0835979 19.4999996,49.9301587 C20.4333329,50.8783069 21.4999995,51.352381 22.6999995,51.352381 L29.9999993,51.352381 M50.3499988,42.768254 C49.6833321,42.3619048 48.8999988,42.1587302 47.9999988,42.1587302 L40.699999,42.1587302 C39.8666657,42.1587302 39.0833324,42.3619048 38.3499991,42.768254 L37.4999991,43.4285714 C36.6666658,44.3767196 36.2499991,45.4603175 36.2499991,46.6793651 C36.2499991,48 36.6666658,49.0835979 37.4999991,49.9301587 C38.4333324,50.8783069 39.4999991,51.352381 40.699999,51.352381 L47.9999988,51.352381 C49.2666655,51.352381 50.3166655,50.8783069 51.1499988,49.9301587 C52.0499987,49.0835979 52.4999987,48 52.4999987,46.6793651 C52.4999987,45.4603175 52.0499987,44.3767196 51.1499988,43.4285714 L50.3499988,42.768254" fill="#B7916A"></path>
                <path d="M50.35,42.768254 L51.15,43.4285714 C52.05,44.3767196 52.5,45.4603175 52.5,46.6793651 C52.5,48 52.05,49.0835979 51.15,49.9301587 C50.3166667,50.8783069 49.2666667,51.352381 48,51.352381 L40.7,51.352381 C39.5,51.352381 38.4333333,50.8783069 37.5,49.9301587 C36.6666667,49.0835979 36.25,48 36.25,46.6793651 C36.25,45.4603175 36.6666667,44.3767196 37.5,43.4285714 L38.35,42.768254 C39.0833333,42.3619048 39.8666667,42.1587302 40.7,42.1587302 L48,42.1587302 C48.9,42.1587302 49.6833333,42.3619048 50.35,42.768254 M51.05,2.03174603 L51.15,2.18412698 C52.05,3.06455026 52.5,4.14814815 52.5,5.43492063 C52.5,6.68783069 52.05,7.77142857 51.15,8.68571429 C50.3166667,9.56613757 49.2666667,10.0063492 48,10.0063492 L40.7,10.0063492 C39.5,10.0063492 38.4333333,9.56613757 37.5,8.68571429 C36.6666667,7.77142857 36.25,6.68783069 36.25,5.43492063 C36.25,4.14814815 36.6666667,3.06455026 37.5,2.18412698 L37.7,2.03174603 L51.05,2.03174603 M32.9,2.03174603 L33.15,2.38730159 C34.05,3.26772487 34.5,4.35132275 34.5,5.63809524 C34.5,6.89100529 34.05,7.97460317 33.15,8.88888889 C32.3166667,9.76931217 31.2666667,10.2095238 30,10.2095238 L22.7,10.2095238 C21.5,10.2095238 20.4333333,9.76931217 19.5,8.88888889 C18.6666667,7.97460317 18.25,6.89100529 18.25,5.63809524 C18.25,4.35132275 18.6666667,3.26772487 19.5,2.38730159 L19.9,2.03174603 L32.9,2.03174603 M15,2.03174603 L15.25,2.28571429 L15.35,2.38730159 L16.45,4.16507937 L16.6,5.53650794 L16.6,5.63809524 C16.6,6.89100529 16.1833333,7.97460317 15.35,8.88888889 C14.45,9.76931217 13.3833333,10.2095238 12.15,10.2095238 L4.8,10.2095238 L3.5,10.0063492 L2,9.19365079 L2,2.03174603 L15,2.03174603 M2,11.6825397 L3.35,11.6825397 L3.5,11.6825397 C4.66666667,11.6825397 5.66666667,12.1227513 6.5,13.0031746 C7.43333333,13.9174603 7.9,15.0010582 7.9,16.2539683 C7.9,17.5407407 7.43333333,18.6243386 6.5,19.5047619 C5.66666667,20.3513228 4.66666667,20.8084656 3.5,20.8761905 L3.35,20.8761905 L2,20.8761905 L2,11.6825397 M2,22.3492063 C2.46666667,21.9767196 2.96666667,21.7058201 3.5,21.5365079 L4.8,21.3333333 L12.15,21.3333333 L13.9,21.6888889 L15.35,22.6539683 C15.95,23.3312169 16.3333333,24.0931217 16.5,24.9396825 L16.6,25.8031746 L16.6,25.9047619 L16.6,26.0571429 L16.5,26.9206349 C16.3333333,27.7671958 15.95,28.5121693 15.35,29.1555556 C14.45,30.0698413 13.3833333,30.5269841 12.15,30.5269841 L4.8,30.5269841 L3.5,30.3238095 L2,29.5111111 L2,22.3492063 M2,32.5079365 L3.35,32.5079365 L3.5,32.5079365 C4.66666667,32.5079365 5.66666667,32.9312169 6.5,33.7777778 C7.43333333,34.7259259 7.9,35.8095238 7.9,37.0285714 C7.9,38.3492063 7.43333333,39.4328042 6.5,40.2793651 C5.66666667,41.1597884 4.66666667,41.6338624 3.5,41.7015873 L3.35,41.7015873 L2,41.7015873 L2,32.5079365 M2,43.3269841 C2.46666667,42.9544974 2.96666667,42.6835979 3.5,42.5142857 L4.8,42.3111111 L12.15,42.3111111 L13.9,42.7174603 L15.35,43.631746 C15.95,44.3089947 16.3333333,45.0878307 16.5,45.968254 L16.6,46.7809524 L16.6,46.8825397 L16.6,47.0857143 L16.5,47.8984127 C16.3333333,48.778836 15.95,49.5238095 15.35,50.1333333 C14.45,51.047619 13.3833333,51.5047619 12.15,51.5047619 L4.8,51.5047619 L3.5,51.352381 L2,50.4888889 L2,43.3269841 M2,52.8253968 L3.35,52.8253968 L3.5,52.8253968 C4.73333333,52.8931217 5.73333333,53.3333333 6.5,54.1460317 C7.43333333,55.0603175 7.9,56.1439153 7.9,57.3968254 L7.9,57.447619 C7.9,58.6328042 7.5,59.6656085 6.7,60.5460317 L6.5,60.647619 L5.5,61.4603175 L2,61.4603175 L2,52.8253968 M11.8,61.4603175 L10.8,60.6984127 C9.93333333,59.784127 9.5,58.7005291 9.5,57.447619 C9.5,56.1608466 9.93333333,55.0772487 10.8,54.1968254 C11.7,53.2825397 12.7666667,52.8253968 14,52.8253968 L21.25,52.8253968 C22.35,52.8253968 23.2833333,53.1640212 24.05,53.8412698 L24.45,54.1968254 C25.35,55.0772487 25.8,56.1608466 25.8,57.447619 C25.8,58.7005291 25.35,59.784127 24.45,60.6984127 L24.05,61.1047619 L23.45,61.4603175 L11.8,61.4603175 M30,61.4603175 L29,60.6984127 C28.1333333,59.784127 27.7,58.7005291 27.7,57.447619 C27.7,56.1608466 28.1333333,55.0772487 29,54.1968254 C29.9,53.2825397 30.95,52.8253968 32.15,52.8253968 L39.45,52.8253968 C40.7166667,52.8253968 41.7666667,53.2825397 42.6,54.1968254 C43.5333333,55.0772487 44,56.1608466 44,57.447619 C44,58.7005291 43.5333333,59.784127 42.6,60.6984127 L41.6,61.4603175 L30,61.4603175 M48.15,61.4603175 L47.15,60.6984127 C46.3166667,59.784127 45.9,58.7005291 45.9,57.447619 L45.9,57.2952381 C45.9,56.042328 46.3166667,54.9587302 47.15,54.0444444 C48.05,53.1640212 49.1166667,52.7238095 50.35,52.7238095 L57.6,52.7238095 C58.8666667,52.7238095 59.9333333,53.1640212 60.8,54.0444444 C61.7,54.9587302 62.15,56.042328 62.15,57.2952381 C62.15,58.5820106 61.7,59.6656085 60.8,60.5460317 L59.6,61.4603175 L48.15,61.4603175 M62.6,51.2507937 L61.7,51.2507937 L61.7,51.352381 L59.25,51.352381 C58.05,51.352381 56.9833333,50.8783069 56.05,49.9301587 C55.3833333,49.2529101 55,48.4910053 54.9,47.6444444 L54.8,46.6793651 L54.8,46.5777778 C54.8,45.3587302 55.2166667,44.2751323 56.05,43.3269841 C56.9833333,42.4804233 58.05,42.0571429 59.25,42.0571429 L62.6,42.0571429 L62.6,51.2507937 M62.6,30.5269841 L59.25,30.5269841 C58.05,30.5269841 56.9833333,30.0698413 56.05,29.1555556 C55.2166667,28.2751323 54.8,27.1915344 54.8,25.9047619 C54.8,24.6518519 55.2166667,23.568254 56.05,22.6539683 C56.9833333,21.773545 58.05,21.3333333 59.25,21.3333333 L62.6,21.3333333 L62.6,30.5269841 M62.6,10.0063492 L59.15,10.0063492 L58.35,9.9047619 C57.4833333,9.73544974 56.7166667,9.32910053 56.05,8.68571429 C55.65,8.21164021 55.35,7.72063492 55.15,7.21269841 C54.9166667,6.67089947 54.8,6.07830688 54.8,5.43492063 L54.8,5.38412698 C54.8,4.74074074 54.9166667,4.18201058 55.15,3.70793651 C55.35,3.13227513 55.65,2.60740741 56.05,2.13333333 L56.15,2.03174603 L62.6,2.03174603 L62.6,10.0063492 M42.6,12.5968254 C43.5333333,13.5449735 44,14.6285714 44,15.847619 C44,17.168254 43.5333333,18.2518519 42.6,19.0984127 C41.7666667,20.0465608 40.7166667,20.5206349 39.45,20.5206349 L32.15,20.5206349 C30.95,20.5206349 29.9,20.0465608 29,19.0984127 C28.1333333,18.2518519 27.7,17.168254 27.7,15.847619 C27.7,14.6285714 28.1333333,13.5449735 29,12.5968254 C29.9,11.7502646 30.95,11.3269841 32.15,11.3269841 L39.45,11.3269841 C40.7166667,11.3269841 41.7666667,11.7502646 42.6,12.5968254 M50.35,10.9206349 L57.6,10.9206349 C58.8666667,10.9206349 59.9333333,11.3608466 60.8,12.2412698 L61.45,13.0031746 C61.9166667,13.7142857 62.15,14.5439153 62.15,15.4920635 C62.15,16.4063492 61.9333333,17.2021164 61.5,17.8793651 L60.8,18.7428571 C59.9333333,19.6571429 58.8666667,20.1142857 57.6,20.1142857 L50.35,20.1142857 C49.1166667,20.1142857 48.05,19.6571429 47.15,18.7428571 C46.3166667,17.8624339 45.9,16.778836 45.9,15.4920635 C45.9,14.2391534 46.3166667,13.1555556 47.15,12.2412698 C48.05,11.3608466 49.1166667,10.9206349 50.35,10.9206349 M24.45,12.5968254 C25.35,13.5449735 25.8,14.6285714 25.8,15.847619 C25.8,17.168254 25.35,18.2518519 24.45,19.0984127 L24.05,19.5047619 C23.2833333,20.1820106 22.35,20.5206349 21.25,20.5206349 L14,20.5206349 C12.7666667,20.5206349 11.7,20.0465608 10.8,19.0984127 C9.93333333,18.2518519 9.5,17.168254 9.5,15.847619 C9.5,14.6285714 9.93333333,13.5449735 10.8,12.5968254 C11.7,11.7502646 12.7666667,11.3269841 14,11.3269841 L21.25,11.3269841 C22.35,11.3269841 23.2833333,11.6656085 24.05,12.3428571 L24.45,12.5968254 M33.15,22.6539683 C34.05,23.568254 34.5,24.6518519 34.5,25.9047619 C34.5,27.1915344 34.05,28.2751323 33.15,29.1555556 C32.3166667,30.0698413 31.2666667,30.5269841 30,30.5269841 L22.7,30.5269841 C21.5,30.5269841 20.4333333,30.0698413 19.5,29.1555556 C18.6666667,28.2751323 18.25,27.1915344 18.25,25.9047619 C18.25,24.6518519 18.6666667,23.568254 19.5,22.6539683 C20.4333333,21.773545 21.5,21.3333333 22.7,21.3333333 L30,21.3333333 C31.2666667,21.3333333 32.3166667,21.773545 33.15,22.6539683 M24.05,32.8634921 L24.45,33.1174603 L25.35,34.4380952 C25.65,35.047619 25.8,35.6910053 25.8,36.368254 C25.8,37.6888889 25.35,38.7724868 24.45,39.6190476 L24.05,40.0253968 C23.2833333,40.7026455 22.35,41.0412698 21.25,41.0412698 L14,41.0412698 C12.7666667,41.0412698 11.7,40.5671958 10.8,39.6190476 C9.93333333,38.7724868 9.5,37.6888889 9.5,36.368254 C9.5,35.1492063 9.93333333,34.0656085 10.8,33.1174603 C11.7,32.2708995 12.7666667,31.847619 14,31.847619 L21.25,31.847619 C22.35,31.847619 23.2833333,32.1862434 24.05,32.8634921 M28.15,34.4380952 L29,33.1174603 C29.9,32.2708995 30.95,31.847619 32.15,31.847619 L39.45,31.847619 C40.7166667,31.847619 41.7666667,32.2708995 42.6,33.1174603 L43.5,34.4380952 C43.8333333,35.047619 44,35.6910053 44,36.368254 C44,37.6888889 43.5333333,38.7724868 42.6,39.6190476 C41.7666667,40.5671958 40.7166667,41.0412698 39.45,41.0412698 L32.15,41.0412698 C30.95,41.0412698 29.9,40.5671958 29,39.6190476 C28.1333333,38.7724868 27.7,37.6888889 27.7,36.368254 C27.7,35.6910053 27.85,35.047619 28.15,34.4380952 M52.5,25.9047619 C52.5,27.1915344 52.05,28.2751323 51.15,29.1555556 C50.3166667,30.0698413 49.2666667,30.5269841 48,30.5269841 L40.7,30.5269841 C39.5,30.5269841 38.4333333,30.0698413 37.5,29.1555556 C36.6666667,28.2751323 36.25,27.1915344 36.25,25.9047619 C36.25,24.6518519 36.6666667,23.568254 37.5,22.6539683 C38.4333333,21.773545 39.5,21.3333333 40.7,21.3333333 L48,21.3333333 C49.2666667,21.3333333 50.3166667,21.773545 51.15,22.6539683 C52.05,23.568254 52.5,24.6518519 52.5,25.9047619 M47.15,33.015873 C48.05,32.1693122 49.1166667,31.7460317 50.35,31.7460317 L57.6,31.7460317 C58.8666667,31.7460317 59.9333333,32.1693122 60.8,33.015873 C61.7,33.9640212 62.15,35.047619 62.15,36.2666667 L61.7,38.3492063 C61.5333333,38.8232804 61.2333333,39.2465608 60.8,39.6190476 C59.9333333,40.5671958 58.8666667,41.0412698 57.6,41.0412698 L50.35,41.0412698 C49.1166667,41.0412698 48.05,40.5671958 47.15,39.6190476 C46.4833333,38.9417989 46.1,38.1798942 46,37.3333333 L45.9,36.368254 L45.9,36.2666667 C45.9,35.047619 46.3166667,33.9640212 47.15,33.015873 M30,51.352381 L22.7,51.352381 C21.5,51.352381 20.4333333,50.8783069 19.5,49.9301587 C18.6666667,49.0835979 18.25,48 18.25,46.6793651 C18.25,45.4603175 18.6666667,44.3767196 19.5,43.4285714 L20.35,42.768254 C21.0833333,42.3619048 21.8666667,42.1587302 22.7,42.1587302 L30,42.1587302 C30.9,42.1587302 31.6833333,42.3619048 32.35,42.768254 L33.15,43.4285714 C34.05,44.3767196 34.5,45.4603175 34.5,46.6793651 C34.5,48 34.05,49.0835979 33.15,49.9301587 C32.3166667,50.8783069 31.2666667,51.352381 30,51.352381" fill="#97714A"></path>
                <path d="M37.25,2.75 L32.45,2.75 L19.45,2.75 L14.55,2.75 L1.55,2.75 L1.55,9.8 L1.55,12.25 L1.55,21.3 L1.55,22.75 L1.55,29.8 L1.55,32.75 L1.55,41.8 L1.55,43.4 L1.55,50.45 L1.55,52.75 L1.55,61.25 L5.05,61.25 L11.35,61.25 L23,61.25 L29.55,61.25 L41.15,61.25 L47.7,61.25 L59.15,61.25 L62.15,61.25 L62.15,51.2 L62.15,42.15 L62.15,30.8 L62.15,21.75 L62.15,10.6 L62.15,2.75 L55.7,2.75 L50.6,2.75 L37.25,2.75 M9.7,0 L10.35,0 L64,0 L64,64 L0,64 L0,0 L9.7,0" fill="#886644"></path>
                <path d="M9.55145326,2.03174603 C5.16339356,2.16719577 2.87038492,4.82539683 2.67242734,10.0063492 L2.67242734,10.5650794 L2.67242734,53.0285714 C2.67242734,56.7195767 3.7282011,59.2253968 5.83974863,60.5460317 C6.86252946,61.0878307 8.1162608,61.3925926 9.60094266,61.4603175 L-1.77635684e-15,61.4603175 L-1.77635684e-15,2.03174603 L9.55145326,2.03174603 M60.2780833,10.0063492 C60.1461115,5.36719577 58.3150039,2.75978836 54.7847604,2.18412698 L53.7949725,2.03174603 L63,2.03174603 L63,61.4603175 L53.4980361,61.4603175 C57.358209,61.3248677 59.5852317,59.2592593 60.1791045,55.2634921 L60.2780833,53.0285714 L60.2780833,10.5650794 L60.2780833,10.0063492" fill-opacity="0.6" fill="#886644"></path>
            </g>
        </g>
    </g>
</svg>