<?xml version="1.0" encoding="UTF-8" standalone="no"?>
<svg width="64px" height="64px" viewBox="0 0 64 64" version="1.1" xmlns="http://www.w3.org/2000/svg" xmlns:xlink="http://www.w3.org/1999/xlink" xmlns:sketch="http://www.bohemiancoding.com/sketch/ns">
    <!-- Generator: Sketch 3.4.1 (15681) - http://www.bohemiancoding.com/sketch -->
    <title>wall-brown-rounded</title>
    <desc>Created with Sketch.</desc>
    <defs></defs>
    <g id="Page-1" stroke="none" stroke-width="1" fill="none" fill-rule="evenodd" sketch:type="MSPage">
        <g id="wall-brown-rounded" sketch:type="MSLayerGroup" transform="translate(0.000000, -1.000000)">
            <path d="M56.15,1.25 C61.2166667,1.81666667 63.8333333,5.23333333 64,11.5 L64,11.6 L64,12.15 L64,53.95 L63.9,56.4 L63.9,56.6 C63.0666667,62.2 59.75,65 53.95,65 L10.05,65 C7.88333333,65 6.1,64.5666667 4.7,63.7 L4.6,63.7 C1.53333333,62.0666667 0,58.8166667 0,53.95 L0,12.15 L0,11.6 L0,11.5 C0.266666667,4.36666667 3.61666667,0.866666667 10.05,1 L53.95,1 L56.35,1.25 L56.15,1.25 M55.7,3.9 L53.95,3.75 L50.6,3.75 L37.15,3.75 L32.3,3.75 L19.2,3.75 L14.3,3.75 L10.05,3.75 C5.38333333,3.75 2.95,6.36666667 2.75,11.6 L2.75,12.15 L2.75,13.25 L2.75,22.3 L2.75,22.95 L2.75,31.6 L2.75,33.75 L2.75,42.8 L2.75,43.6 L2.75,52.3 L2.75,53.75 L2.75,53.95 C2.75,57.5833333 3.81666667,60.05 5.95,61.35 C7.05,61.95 8.41666667,62.25 10.05,62.25 L11.1,62.25 L22.8,62.25 L29.35,62.25 L41.05,62.25 L47.65,62.25 L53.95,62.25 C58.15,62.25 60.5666667,60.2166667 61.2,56.15 L61.25,53.95 L61.25,52.3 L61.25,43.25 L61.25,39.5 L61.25,35.65 L61.25,31.8 L61.25,22.75 L61.25,18.9 L61.25,15.05 L61.25,12.15 L61.25,11.6 C61.15,7.03333333 59.3,4.46666667 55.7,3.9" id="Shape" fill="#886644" sketch:type="MSShapeGroup"></path>
            <path d="M55.7,3.9 L55.6,3.9 C54.7333333,4.76666667 54.3,5.83333333 54.3,7.1 C54.3,8.33333333 54.7333333,9.4 55.6,10.3 C56.5333333,11.1666667 57.6,11.6 58.8,11.6 L61.25,11.6 L61.25,12.15 L61.25,15.05 L60.35,13.8 C59.5166667,12.9333333 58.45,12.5 57.15,12.5 L49.85,12.5 C48.6166667,12.5 47.55,12.9333333 46.65,13.8 C45.7833333,14.7 45.35,15.7666667 45.35,17 C45.35,18.2666667 45.7833333,19.3333333 46.65,20.2 C47.55,21.1 48.6166667,21.55 49.85,21.55 L57.15,21.55 C58.45,21.55 59.5166667,21.1 60.35,20.2 C60.7833333,19.8333333 61.0833333,19.4 61.25,18.9 L61.25,22.75 L58.8,22.75 C57.6,22.75 56.5333333,23.1833333 55.6,24.05 C54.7333333,24.95 54.3,26.0166667 54.3,27.25 C54.3,28.5166667 54.7333333,29.5833333 55.6,30.45 C56.5333333,31.35 57.6,31.8 58.8,31.8 L61.25,31.8 L61.25,35.65 L60.35,34.35 C59.5166667,33.5166667 58.45,33.1 57.15,33.1 L49.85,33.1 C48.6166667,33.1 47.55,33.5166667 46.65,34.35 L45.8,35.65 C45.5,36.25 45.35,36.8833333 45.35,37.55 C45.35,38.85 45.7833333,39.9166667 46.65,40.75 C47.55,41.6833333 48.6166667,42.15 49.85,42.15 L57.15,42.15 C58.45,42.15 59.5166667,41.6833333 60.35,40.75 L61.25,39.5 L61.25,43.25 L58.8,43.25 C57.9333333,43.25 57.15,43.45 56.45,43.85 L55.6,44.5 C54.7333333,45.4333333 54.3,46.5 54.3,47.7 C54.3,49 54.7333333,50.0666667 55.6,50.9 C56.5333333,51.8333333 57.6,52.3 58.8,52.3 L61.25,52.3 L61.25,53.95 L61.2,56.15 L60.35,55.1 C59.5166667,54.2 58.45,53.75 57.15,53.75 L49.85,53.75 C48.6166667,53.75 47.55,54.2 46.65,55.1 C45.7833333,55.9666667 45.35,57.0333333 45.35,58.3 C45.35,59.5333333 45.7833333,60.6 46.65,61.5 C46.95,61.8333333 47.2833333,62.0833333 47.65,62.25 L41.05,62.25 L42.05,61.5 C42.9833333,60.6 43.45,59.5333333 43.45,58.3 C43.45,57.0333333 42.9833333,55.9666667 42.05,55.1 C41.2166667,54.2 40.15,53.75 38.85,53.75 L31.55,53.75 C30.35,53.75 29.2833333,54.2 28.35,55.1 C27.5166667,55.9666667 27.1,57.0333333 27.1,58.3 C27.1,59.5333333 27.5166667,60.6 28.35,61.5 L29.35,62.25 L22.8,62.25 L23.8,61.5 C24.7,60.6 25.15,59.5333333 25.15,58.3 C25.15,57.0333333 24.7,55.9666667 23.8,55.1 C22.9333333,54.2 21.8666667,53.75 20.6,53.75 L13.25,53.75 C12.05,53.75 10.9833333,54.2 10.05,55.1 C9.21666667,55.9666667 8.8,57.0333333 8.8,58.3 C8.8,59.5333333 9.21666667,60.6 10.05,61.5 L11.1,62.25 L10.05,62.25 C8.41666667,62.25 7.05,61.95 5.95,61.35 C6.75,60.4833333 7.15,59.4666667 7.15,58.3 C7.15,57.0333333 6.68333333,55.9666667 5.75,55.1 C4.91666667,54.2666667 3.91666667,53.8166667 2.75,53.75 L2.75,52.3 L4.15,52.45 L11.45,52.45 C12.65,52.45 13.7166667,52 14.65,51.1 C15.4833333,50.2333333 15.9,49.1666667 15.9,47.9 C15.9,46.6666667 15.4833333,45.6 14.65,44.7 C13.7166667,43.8333333 12.65,43.4 11.45,43.4 L4.15,43.4 L2.75,43.6 L2.75,42.8 C3.91666667,42.7333333 4.91666667,42.2666667 5.75,41.4 C6.68333333,40.5666667 7.15,39.5 7.15,38.2 C7.15,37 6.68333333,35.9333333 5.75,35 C4.91666667,34.1666667 3.91666667,33.75 2.75,33.75 L2.75,31.6 L4.15,31.8 L11.45,31.8 C12.65,31.8 13.7166667,31.35 14.65,30.45 C15.4833333,29.5833333 15.9,28.5166667 15.9,27.25 C15.9,26.0166667 15.4833333,24.95 14.65,24.05 C13.7166667,23.1833333 12.65,22.75 11.45,22.75 L4.15,22.75 L2.75,22.95 L2.75,22.3 C3.91666667,22.2333333 4.91666667,21.7833333 5.75,20.95 C6.68333333,20.0833333 7.15,19.0166667 7.15,17.75 C7.15,16.5166667 6.68333333,15.45 5.75,14.55 C4.91666667,13.6833333 3.91666667,13.25 2.75,13.25 L2.75,12.15 L2.75,11.6 L4.15,11.8 L11.45,11.8 C12.65,11.8 13.7166667,11.3666667 14.65,10.5 C15.4833333,9.6 15.9,8.53333333 15.9,7.3 C15.9,6.03333333 15.4833333,4.96666667 14.65,4.1 L14.3,3.75 L19.2,3.75 L18.85,4.1 C17.9833333,4.96666667 17.55,6.03333333 17.55,7.3 C17.55,8.53333333 17.9833333,9.6 18.85,10.5 C19.75,11.3666667 20.8166667,11.8 22.05,11.8 L29.35,11.8 C30.65,11.8 31.7166667,11.3666667 32.55,10.5 C33.4833333,9.6 33.95,8.53333333 33.95,7.3 C33.95,6.03333333 33.4833333,4.96666667 32.55,4.1 L32.3,3.75 L37.15,3.75 L36.95,3.9 C36.0833333,4.76666667 35.65,5.83333333 35.65,7.1 C35.65,8.33333333 36.0833333,9.4 36.95,10.3 C37.85,11.1666667 38.9166667,11.6 40.15,11.6 L47.45,11.6 C48.75,11.6 49.8166667,11.1666667 50.65,10.3 C51.5833333,9.4 52.05,8.33333333 52.05,7.1 C52.05,5.83333333 51.5833333,4.76666667 50.65,3.9 L50.6,3.75 L53.95,3.75 L55.7,3.9 M31.55,33.1 C30.35,33.1 29.2833333,33.5166667 28.35,34.35 L27.55,35.65 C27.25,36.25 27.1,36.8833333 27.1,37.55 C27.1,38.85 27.5166667,39.9166667 28.35,40.75 C29.2833333,41.6833333 30.35,42.15 31.55,42.15 L38.85,42.15 C40.15,42.15 41.2166667,41.6833333 42.05,40.75 C42.9833333,39.9166667 43.45,38.85 43.45,37.55 C43.45,36.8833333 43.3,36.25 43,35.65 L42.05,34.35 C41.2166667,33.5166667 40.15,33.1 38.85,33.1 L31.55,33.1 M32.55,24.05 C31.7166667,23.1833333 30.65,22.75 29.35,22.75 L22.05,22.75 C20.8166667,22.75 19.75,23.1833333 18.85,24.05 C17.9833333,24.95 17.55,26.0166667 17.55,27.25 C17.55,28.5166667 17.9833333,29.5833333 18.85,30.45 C19.75,31.35 20.8166667,31.8 22.05,31.8 L29.35,31.8 C30.65,31.8 31.7166667,31.35 32.55,30.45 C33.4833333,29.5833333 33.95,28.5166667 33.95,27.25 C33.95,26.0166667 33.4833333,24.95 32.55,24.05 M40.15,22.75 C38.9166667,22.75 37.85,23.1833333 36.95,24.05 C36.0833333,24.95 35.65,26.0166667 35.65,27.25 C35.65,28.5166667 36.0833333,29.5833333 36.95,30.45 C37.85,31.35 38.9166667,31.8 40.15,31.8 L47.45,31.8 C48.75,31.8 49.8166667,31.35 50.65,30.45 C51.5833333,29.5833333 52.05,28.5166667 52.05,27.25 C52.05,26.0166667 51.5833333,24.95 50.65,24.05 C49.8166667,23.1833333 48.75,22.75 47.45,22.75 L40.15,22.75 M31.55,12.9 C30.35,12.9 29.2833333,13.3166667 28.35,14.15 C27.5166667,15.0833333 27.1,16.15 27.1,17.35 C27.1,18.65 27.5166667,19.7166667 28.35,20.55 C29.2833333,21.4833333 30.35,21.95 31.55,21.95 L38.85,21.95 C40.15,21.95 41.2166667,21.4833333 42.05,20.55 C42.9833333,19.7166667 43.45,18.65 43.45,17.35 C43.45,16.15 42.9833333,15.0833333 42.05,14.15 C41.2166667,13.3166667 40.15,12.9 38.85,12.9 L31.55,12.9 M49.85,43.85 C49.1833333,43.45 48.3833333,43.25 47.45,43.25 L40.15,43.25 C39.2833333,43.25 38.4833333,43.45 37.75,43.85 L36.95,44.5 C36.0833333,45.4333333 35.65,46.5 35.65,47.7 C35.65,49 36.0833333,50.0666667 36.95,50.9 C37.85,51.8333333 38.9166667,52.3 40.15,52.3 L47.45,52.3 C48.75,52.3 49.8166667,51.8333333 50.65,50.9 C51.5833333,50.0666667 52.05,49 52.05,47.7 C52.05,46.5 51.5833333,45.4333333 50.65,44.5 L49.85,43.85 M31.75,43.85 C31.0833333,43.45 30.2833333,43.25 29.35,43.25 L22.05,43.25 C21.1833333,43.25 20.3833333,43.45 19.65,43.85 L18.85,44.5 C17.9833333,45.4333333 17.55,46.5 17.55,47.7 C17.55,49 17.9833333,50.0666667 18.85,50.9 C19.75,51.8333333 20.8166667,52.3 22.05,52.3 L29.35,52.3 C30.65,52.3 31.7166667,51.8333333 32.55,50.9 C33.4833333,50.0666667 33.95,49 33.95,47.7 C33.95,46.5 33.4833333,45.4333333 32.55,44.5 L31.75,43.85 M13.25,12.9 C12.05,12.9 10.9833333,13.3166667 10.05,14.15 C9.21666667,15.0833333 8.8,16.15 8.8,17.35 C8.8,18.65 9.21666667,19.7166667 10.05,20.55 C10.9833333,21.4833333 12.05,21.95 13.25,21.95 L20.6,21.95 C21.8666667,21.95 22.9333333,21.4833333 23.8,20.55 C24.7,19.7166667 25.15,18.65 25.15,17.35 C25.15,16.15 24.7,15.0833333 23.8,14.15 C22.9333333,13.3166667 21.8666667,12.9 20.6,12.9 L13.25,12.9 M8.8,37.55 C8.8,38.85 9.21666667,39.9166667 10.05,40.75 C10.9833333,41.6833333 12.05,42.15 13.25,42.15 L20.6,42.15 C21.8666667,42.15 22.9333333,41.6833333 23.8,40.75 C24.7,39.9166667 25.15,38.85 25.15,37.55 C25.15,36.8833333 25,36.25 24.7,35.65 L23.8,34.35 C22.9333333,33.5166667 21.8666667,33.1 20.6,33.1 L13.25,33.1 C12.05,33.1 10.9833333,33.5166667 10.05,34.35 C9.21666667,35.2833333 8.8,36.35 8.8,37.55" id="Shape" fill="#B7916A" sketch:type="MSShapeGroup"></path>
            <path d="M8.8,37.55 C8.8,36.35 9.21666667,35.2833333 10.05,34.35 C10.9833333,33.5166667 12.05,33.1 13.25,33.1 L20.6,33.1 C21.8666667,33.1 22.9333333,33.5166667 23.8,34.35 L24.7,35.65 C25,36.25 25.15,36.8833333 25.15,37.55 C25.15,38.85 24.7,39.9166667 23.8,40.75 C22.9333333,41.6833333 21.8666667,42.15 20.6,42.15 L13.25,42.15 C12.05,42.15 10.9833333,41.6833333 10.05,40.75 C9.21666667,39.9166667 8.8,38.85 8.8,37.55 M61.25,11.6 L58.8,11.6 C57.6,11.6 56.5333333,11.1666667 55.6,10.3 C54.7333333,9.4 54.3,8.33333333 54.3,7.1 C54.3,5.83333333 54.7333333,4.76666667 55.6,3.9 L55.7,3.9 C59.3,4.46666667 61.15,7.03333333 61.25,11.6 M50.6,3.75 L50.65,3.9 C51.5833333,4.76666667 52.05,5.83333333 52.05,7.1 C52.05,8.33333333 51.5833333,9.4 50.65,10.3 C49.8166667,11.1666667 48.75,11.6 47.45,11.6 L40.15,11.6 C38.9166667,11.6 37.85,11.1666667 36.95,10.3 C36.0833333,9.4 35.65,8.33333333 35.65,7.1 C35.65,5.83333333 36.0833333,4.76666667 36.95,3.9 L37.15,3.75 L50.6,3.75 M32.3,3.75 L32.55,4.1 C33.4833333,4.96666667 33.95,6.03333333 33.95,7.3 C33.95,8.53333333 33.4833333,9.6 32.55,10.5 C31.7166667,11.3666667 30.65,11.8 29.35,11.8 L22.05,11.8 C20.8166667,11.8 19.75,11.3666667 18.85,10.5 C17.9833333,9.6 17.55,8.53333333 17.55,7.3 C17.55,6.03333333 17.9833333,4.96666667 18.85,4.1 L19.2,3.75 L32.3,3.75 M14.3,3.75 L14.65,4.1 C15.4833333,4.96666667 15.9,6.03333333 15.9,7.3 C15.9,8.53333333 15.4833333,9.6 14.65,10.5 C13.7166667,11.3666667 12.65,11.8 11.45,11.8 L4.15,11.8 L2.75,11.6 C2.95,6.36666667 5.38333333,3.75 10.05,3.75 L14.3,3.75 M2.75,13.25 C3.91666667,13.25 4.91666667,13.6833333 5.75,14.55 C6.68333333,15.45 7.15,16.5166667 7.15,17.75 C7.15,19.0166667 6.68333333,20.0833333 5.75,20.95 C4.91666667,21.7833333 3.91666667,22.2333333 2.75,22.3 L2.75,13.25 M2.75,22.95 L4.15,22.75 L11.45,22.75 C12.65,22.75 13.7166667,23.1833333 14.65,24.05 C15.4833333,24.95 15.9,26.0166667 15.9,27.25 C15.9,28.5166667 15.4833333,29.5833333 14.65,30.45 C13.7166667,31.35 12.65,31.8 11.45,31.8 L4.15,31.8 L2.75,31.6 L2.75,22.95 M2.75,33.75 C3.91666667,33.75 4.91666667,34.1666667 5.75,35 C6.68333333,35.9333333 7.15,37 7.15,38.2 C7.15,39.5 6.68333333,40.5666667 5.75,41.4 C4.91666667,42.2666667 3.91666667,42.7333333 2.75,42.8 L2.75,33.75 M2.75,43.6 L4.15,43.4 L11.45,43.4 C12.65,43.4 13.7166667,43.8333333 14.65,44.7 C15.4833333,45.6 15.9,46.6666667 15.9,47.9 C15.9,49.1666667 15.4833333,50.2333333 14.65,51.1 C13.7166667,52 12.65,52.45 11.45,52.45 L4.15,52.45 L2.75,52.3 L2.75,43.6 M2.75,53.75 C3.91666667,53.8166667 4.91666667,54.2666667 5.75,55.1 C6.68333333,55.9666667 7.15,57.0333333 7.15,58.3 C7.15,59.4666667 6.75,60.4833333 5.95,61.35 C3.81666667,60.05 2.75,57.5833333 2.75,53.95 L2.75,53.75 M11.1,62.25 L10.05,61.5 C9.21666667,60.6 8.8,59.5333333 8.8,58.3 C8.8,57.0333333 9.21666667,55.9666667 10.05,55.1 C10.9833333,54.2 12.05,53.75 13.25,53.75 L20.6,53.75 C21.8666667,53.75 22.9333333,54.2 23.8,55.1 C24.7,55.9666667 25.15,57.0333333 25.15,58.3 C25.15,59.5333333 24.7,60.6 23.8,61.5 L22.8,62.25 L11.1,62.25 M29.35,62.25 L28.35,61.5 C27.5166667,60.6 27.1,59.5333333 27.1,58.3 C27.1,57.0333333 27.5166667,55.9666667 28.35,55.1 C29.2833333,54.2 30.35,53.75 31.55,53.75 L38.85,53.75 C40.15,53.75 41.2166667,54.2 42.05,55.1 C42.9833333,55.9666667 43.45,57.0333333 43.45,58.3 C43.45,59.5333333 42.9833333,60.6 42.05,61.5 L41.05,62.25 L29.35,62.25 M47.65,62.25 C47.2833333,62.0833333 46.95,61.8333333 46.65,61.5 C45.7833333,60.6 45.35,59.5333333 45.35,58.3 C45.35,57.0333333 45.7833333,55.9666667 46.65,55.1 C47.55,54.2 48.6166667,53.75 49.85,53.75 L57.15,53.75 C58.45,53.75 59.5166667,54.2 60.35,55.1 L61.2,56.15 C60.5666667,60.2166667 58.15,62.25 53.95,62.25 L47.65,62.25 M61.25,52.3 L58.8,52.3 C57.6,52.3 56.5333333,51.8333333 55.6,50.9 C54.7333333,50.0666667 54.3,49 54.3,47.7 C54.3,46.5 54.7333333,45.4333333 55.6,44.5 L56.45,43.85 C57.15,43.45 57.9333333,43.25 58.8,43.25 L61.25,43.25 L61.25,52.3 M61.25,39.5 L60.35,40.75 C59.5166667,41.6833333 58.45,42.15 57.15,42.15 L49.85,42.15 C48.6166667,42.15 47.55,41.6833333 46.65,40.75 C45.7833333,39.9166667 45.35,38.85 45.35,37.55 C45.35,36.8833333 45.5,36.25 45.8,35.65 L46.65,34.35 C47.55,33.5166667 48.6166667,33.1 49.85,33.1 L57.15,33.1 C58.45,33.1 59.5166667,33.5166667 60.35,34.35 L61.25,35.65 L61.25,39.5 M61.25,31.8 L58.8,31.8 C57.6,31.8 56.5333333,31.35 55.6,30.45 C54.7333333,29.5833333 54.3,28.5166667 54.3,27.25 C54.3,26.0166667 54.7333333,24.95 55.6,24.05 C56.5333333,23.1833333 57.6,22.75 58.8,22.75 L61.25,22.75 L61.25,31.8 M61.25,18.9 C61.0833333,19.4 60.7833333,19.8333333 60.35,20.2 C59.5166667,21.1 58.45,21.55 57.15,21.55 L49.85,21.55 C48.6166667,21.55 47.55,21.1 46.65,20.2 C45.7833333,19.3333333 45.35,18.2666667 45.35,17 C45.35,15.7666667 45.7833333,14.7 46.65,13.8 C47.55,12.9333333 48.6166667,12.5 49.85,12.5 L57.15,12.5 C58.45,12.5 59.5166667,12.9333333 60.35,13.8 L61.25,15.05 L61.25,18.9 M31.55,12.9 L38.85,12.9 C40.15,12.9 41.2166667,13.3166667 42.05,14.15 C42.9833333,15.0833333 43.45,16.15 43.45,17.35 C43.45,18.65 42.9833333,19.7166667 42.05,20.55 C41.2166667,21.4833333 40.15,21.95 38.85,21.95 L31.55,21.95 C30.35,21.95 29.2833333,21.4833333 28.35,20.55 C27.5166667,19.7166667 27.1,18.65 27.1,17.35 C27.1,16.15 27.5166667,15.0833333 28.35,14.15 C29.2833333,13.3166667 30.35,12.9 31.55,12.9 M40.15,22.75 L47.45,22.75 C48.75,22.75 49.8166667,23.1833333 50.65,24.05 C51.5833333,24.95 52.05,26.0166667 52.05,27.25 C52.05,28.5166667 51.5833333,29.5833333 50.65,30.45 C49.8166667,31.35 48.75,31.8 47.45,31.8 L40.15,31.8 C38.9166667,31.8 37.85,31.35 36.95,30.45 C36.0833333,29.5833333 35.65,28.5166667 35.65,27.25 C35.65,26.0166667 36.0833333,24.95 36.95,24.05 C37.85,23.1833333 38.9166667,22.75 40.15,22.75 M32.55,24.05 C33.4833333,24.95 33.95,26.0166667 33.95,27.25 C33.95,28.5166667 33.4833333,29.5833333 32.55,30.45 C31.7166667,31.35 30.65,31.8 29.35,31.8 L22.05,31.8 C20.8166667,31.8 19.75,31.35 18.85,30.45 C17.9833333,29.5833333 17.55,28.5166667 17.55,27.25 C17.55,26.0166667 17.9833333,24.95 18.85,24.05 C19.75,23.1833333 20.8166667,22.75 22.05,22.75 L29.35,22.75 C30.65,22.75 31.7166667,23.1833333 32.55,24.05 M31.55,33.1 L38.85,33.1 C40.15,33.1 41.2166667,33.5166667 42.05,34.35 L43,35.65 C43.3,36.25 43.45,36.8833333 43.45,37.55 C43.45,38.85 42.9833333,39.9166667 42.05,40.75 C41.2166667,41.6833333 40.15,42.15 38.85,42.15 L31.55,42.15 C30.35,42.15 29.2833333,41.6833333 28.35,40.75 C27.5166667,39.9166667 27.1,38.85 27.1,37.55 C27.1,36.8833333 27.25,36.25 27.55,35.65 L28.35,34.35 C29.2833333,33.5166667 30.35,33.1 31.55,33.1 M49.85,43.85 L50.65,44.5 C51.5833333,45.4333333 52.05,46.5 52.05,47.7 C52.05,49 51.5833333,50.0666667 50.65,50.9 C49.8166667,51.8333333 48.75,52.3 47.45,52.3 L40.15,52.3 C38.9166667,52.3 37.85,51.8333333 36.95,50.9 C36.0833333,50.0666667 35.65,49 35.65,47.7 C35.65,46.5 36.0833333,45.4333333 36.95,44.5 L37.75,43.85 C38.4833333,43.45 39.2833333,43.25 40.15,43.25 L47.45,43.25 C48.3833333,43.25 49.1833333,43.45 49.85,43.85 M31.75,43.85 L32.55,44.5 C33.4833333,45.4333333 33.95,46.5 33.95,47.7 C33.95,49 33.4833333,50.0666667 32.55,50.9 C31.7166667,51.8333333 30.65,52.3 29.35,52.3 L22.05,52.3 C20.8166667,52.3 19.75,51.8333333 18.85,50.9 C17.9833333,50.0666667 17.55,49 17.55,47.7 C17.55,46.5 17.9833333,45.4333333 18.85,44.5 L19.65,43.85 C20.3833333,43.45 21.1833333,43.25 22.05,43.25 L29.35,43.25 C30.2833333,43.25 31.0833333,43.45 31.75,43.85 M13.25,12.9 L20.6,12.9 C21.8666667,12.9 22.9333333,13.3166667 23.8,14.15 C24.7,15.0833333 25.15,16.15 25.15,17.35 C25.15,18.65 24.7,19.7166667 23.8,20.55 C22.9333333,21.4833333 21.8666667,21.95 20.6,21.95 L13.25,21.95 C12.05,21.95 10.9833333,21.4833333 10.05,20.55 C9.21666667,19.7166667 8.8,18.65 8.8,17.35 C8.8,16.15 9.21666667,15.0833333 10.05,14.15 C10.9833333,13.3166667 12.05,12.9 13.25,12.9" id="Shape" fill="#97714A" sketch:type="MSShapeGroup"></path>
        </g>
    </g>
</svg>