<?xml version="1.0" encoding="UTF-8" standalone="no"?>
<svg width="64px" height="64px" viewBox="0 0 64 64" version="1.1" xmlns="http://www.w3.org/2000/svg" xmlns:xlink="http://www.w3.org/1999/xlink" xmlns:sketch="http://www.bohemiancoding.com/sketch/ns">
    <!-- Generator: Sketch 3.4.1 (15681) - http://www.bohemiancoding.com/sketch -->
    <title>ground-grey</title>
    <desc>Created with Sketch.</desc>
    <defs></defs>
    <g id="Page-1" stroke="none" stroke-width="1" fill="none" fill-rule="evenodd" sketch:type="MSPage">
        <g id="ground-grey" sketch:type="MSLayerGroup">
            <path d="M34.6,57.1 L34.15,56.9 L33.7,57.1 L33.5,57.55 L33.7,58 C33.8333333,58.1333333 33.9833333,58.2 34.15,58.2 L34.6,58 L34.8,57.55 L34.6,57.1 M17.95,55.8 C17.95,55 17.6666667,54.3166667 17.1,53.75 C16.5666667,53.2166667 15.9,52.95 15.1,52.95 C14.3,52.95 13.6166667,53.2166667 13.05,53.75 C12.5166667,54.3166667 12.25,55 12.25,55.8 C12.25,56.6 12.5166667,57.2666667 13.05,57.8 C13.6166667,58.3666667 14.3,58.65 15.1,58.65 C15.9,58.65 16.5666667,58.3666667 17.1,57.8 C17.6666667,57.2666667 17.95,56.6 17.95,55.8 M19.25,34.9 C19.25,35.7 19.5333333,36.3833333 20.1,36.95 C20.7,37.55 21.4,37.85 22.2,37.85 C23,37.85 23.6833333,37.55 24.25,36.95 C24.85,36.3833333 25.15,35.7 25.15,34.9 C25.15,34.1 24.85,33.4 24.25,32.8 C23.6833333,32.2333333 23,31.95 22.2,31.95 C21.4,31.95 20.7,32.2333333 20.1,32.8 C19.5333333,33.4 19.25,34.1 19.25,34.9 M42.05,44.7 L42.4,43.85 C42.4,43.5166667 42.2833333,43.2333333 42.05,43 C41.8166667,42.7666667 41.5333333,42.65 41.2,42.65 C40.8666667,42.65 40.5833333,42.7666667 40.35,43 C40.1166667,43.2333333 40,43.5166667 40,43.85 C40,44.1833333 40.1166667,44.4666667 40.35,44.7 C40.5833333,44.9333333 40.8666667,45.05 41.2,45.05 L42.05,44.7 M54.9,56 C54.9,55.3333333 54.65,54.75 54.15,54.25 C53.6833333,53.7833333 53.1166667,53.55 52.45,53.55 C51.7833333,53.55 51.2,53.7833333 50.7,54.25 C50.2333333,54.75 50,55.3333333 50,56 C50,56.6666667 50.2333333,57.2333333 50.7,57.7 C51.2,58.2 51.7833333,58.45 52.45,58.45 C53.1166667,58.45 53.6833333,58.2 54.15,57.7 C54.65,57.2333333 54.9,56.6666667 54.9,56 M56.2,36.15 L56.4,35.7 L56.2,35.25 L55.75,35.05 L55.3,35.25 L55.1,35.7 L55.3,36.15 C55.4333333,36.2833333 55.5833333,36.35 55.75,36.35 L56.2,36.15 M8.05,41.6 C8.28333333,41.4 8.4,41.1333333 8.4,40.8 C8.4,40.4666667 8.28333333,40.1833333 8.05,39.95 C7.85,39.75 7.58333333,39.65 7.25,39.65 C6.91666667,39.65 6.63333333,39.75 6.4,39.95 C6.2,40.1833333 6.1,40.4666667 6.1,40.8 C6.1,41.1333333 6.2,41.4 6.4,41.6 C6.63333333,41.8333333 6.91666667,41.95 7.25,41.95 C7.58333333,41.95 7.85,41.8333333 8.05,41.6 M4.4,21.2 L4.25,20.9 L4,20.8 L3.7,20.9 L3.6,21.2 L3.7,21.45 L4,21.6 L4.25,21.45 L4.4,21.2 M40.5,23.85 C40.1666667,23.85 39.8833333,23.95 39.65,24.15 C39.45,24.3833333 39.35,24.6666667 39.35,25 C39.35,25.3333333 39.45,25.6 39.65,25.8 C39.8833333,26.0333333 40.1666667,26.15 40.5,26.15 C40.8333333,26.15 41.1,26.0333333 41.3,25.8 C41.5333333,25.6 41.65,25.3333333 41.65,25 C41.65,24.6666667 41.5333333,24.3833333 41.3,24.15 C41.1,23.95 40.8333333,23.85 40.5,23.85 M49.75,11.15 C49.75,11.6833333 49.9333333,12.1333333 50.3,12.5 C50.7,12.9 51.1666667,13.1 51.7,13.1 C52.2333333,13.1 52.6833333,12.9 53.05,12.5 C53.45,12.1333333 53.65,11.6833333 53.65,11.15 C53.65,10.6166667 53.45,10.15 53.05,9.75 C52.6833333,9.38333333 52.2333333,9.2 51.7,9.2 C51.1666667,9.2 50.7,9.38333333 50.3,9.75 C49.9333333,10.15 49.75,10.6166667 49.75,11.15 M15.35,17.65 C15.55,17.85 15.7833333,17.95 16.05,17.95 C16.3166667,17.95 16.5333333,17.85 16.7,17.65 L17,17 L16.7,16.3 L16.05,16.05 L15.35,16.3 C15.1833333,16.5 15.1,16.7333333 15.1,17 L15.35,17.65 M14.55,9.3 C14.2166667,8.96666667 13.8,8.8 13.3,8.8 C12.8,8.8 12.3666667,8.96666667 12,9.3 C11.6666667,9.66666667 11.5,10.1 11.5,10.6 C11.5,11.1 11.6666667,11.5166667 12,11.85 C12.3666667,12.2166667 12.8,12.4 13.3,12.4 C13.8,12.4 14.2166667,12.2166667 14.55,11.85 C14.9166667,11.5166667 15.1,11.1 15.1,10.6 C15.1,10.1 14.9166667,9.66666667 14.55,9.3 M28.9,3.75 C28.3,4.35 28,5.06666667 28,5.9 C28,6.73333333 28.3,7.45 28.9,8.05 C29.5,8.65 30.2166667,8.95 31.05,8.95 C31.8833333,8.95 32.6,8.65 33.2,8.05 C33.8,7.45 34.1,6.73333333 34.1,5.9 C34.1,5.06666667 33.8,4.35 33.2,3.75 C32.6,3.15 31.8833333,2.85 31.05,2.85 C30.2166667,2.85 29.5,3.15 28.9,3.75 M64,0 L64,64 L0,64 L0,0 L64,0" id="Shape" fill="#989AA7" sketch:type="MSShapeGroup"></path>
            <path d="M28.9,3.75 C29.5,3.15 30.2166667,2.85 31.05,2.85 C31.8833333,2.85 32.6,3.15 33.2,3.75 C33.8,4.35 34.1,5.06666667 34.1,5.9 C34.1,6.73333333 33.8,7.45 33.2,8.05 C32.6,8.65 31.8833333,8.95 31.05,8.95 C30.2166667,8.95 29.5,8.65 28.9,8.05 C28.3,7.45 28,6.73333333 28,5.9 C28,5.06666667 28.3,4.35 28.9,3.75 M14.55,9.3 C14.9166667,9.66666667 15.1,10.1 15.1,10.6 C15.1,11.1 14.9166667,11.5166667 14.55,11.85 C14.2166667,12.2166667 13.8,12.4 13.3,12.4 C12.8,12.4 12.3666667,12.2166667 12,11.85 C11.6666667,11.5166667 11.5,11.1 11.5,10.6 C11.5,10.1 11.6666667,9.66666667 12,9.3 C12.3666667,8.96666667 12.8,8.8 13.3,8.8 C13.8,8.8 14.2166667,8.96666667 14.55,9.3 M15.35,17.65 L15.1,17 C15.1,16.7333333 15.1833333,16.5 15.35,16.3 L16.05,16.05 L16.7,16.3 L17,17 L16.7,17.65 C16.5333333,17.85 16.3166667,17.95 16.05,17.95 C15.7833333,17.95 15.55,17.85 15.35,17.65 M49.75,11.15 C49.75,10.6166667 49.9333333,10.15 50.3,9.75 C50.7,9.38333333 51.1666667,9.2 51.7,9.2 C52.2333333,9.2 52.6833333,9.38333333 53.05,9.75 C53.45,10.15 53.65,10.6166667 53.65,11.15 C53.65,11.6833333 53.45,12.1333333 53.05,12.5 C52.6833333,12.9 52.2333333,13.1 51.7,13.1 C51.1666667,13.1 50.7,12.9 50.3,12.5 C49.9333333,12.1333333 49.75,11.6833333 49.75,11.15 M40.5,23.85 C40.8333333,23.85 41.1,23.95 41.3,24.15 C41.5333333,24.3833333 41.65,24.6666667 41.65,25 C41.65,25.3333333 41.5333333,25.6 41.3,25.8 C41.1,26.0333333 40.8333333,26.15 40.5,26.15 C40.1666667,26.15 39.8833333,26.0333333 39.65,25.8 C39.45,25.6 39.35,25.3333333 39.35,25 C39.35,24.6666667 39.45,24.3833333 39.65,24.15 C39.8833333,23.95 40.1666667,23.85 40.5,23.85 M4.4,21.2 L4.25,21.45 L4,21.6 L3.7,21.45 L3.6,21.2 L3.7,20.9 L4,20.8 L4.25,20.9 L4.4,21.2 M8.05,41.6 C7.85,41.8333333 7.58333333,41.95 7.25,41.95 C6.91666667,41.95 6.63333333,41.8333333 6.4,41.6 C6.2,41.4 6.1,41.1333333 6.1,40.8 C6.1,40.4666667 6.2,40.1833333 6.4,39.95 C6.63333333,39.75 6.91666667,39.65 7.25,39.65 C7.58333333,39.65 7.85,39.75 8.05,39.95 C8.28333333,40.1833333 8.4,40.4666667 8.4,40.8 C8.4,41.1333333 8.28333333,41.4 8.05,41.6 M56.2,36.15 L55.75,36.35 C55.5833333,36.35 55.4333333,36.2833333 55.3,36.15 L55.1,35.7 L55.3,35.25 L55.75,35.05 L56.2,35.25 L56.4,35.7 L56.2,36.15 M54.9,56 C54.9,56.6666667 54.65,57.2333333 54.15,57.7 C53.6833333,58.2 53.1166667,58.45 52.45,58.45 C51.7833333,58.45 51.2,58.2 50.7,57.7 C50.2333333,57.2333333 50,56.6666667 50,56 C50,55.3333333 50.2333333,54.75 50.7,54.25 C51.2,53.7833333 51.7833333,53.55 52.45,53.55 C53.1166667,53.55 53.6833333,53.7833333 54.15,54.25 C54.65,54.75 54.9,55.3333333 54.9,56 M42.05,44.7 L41.2,45.05 C40.8666667,45.05 40.5833333,44.9333333 40.35,44.7 C40.1166667,44.4666667 40,44.1833333 40,43.85 C40,43.5166667 40.1166667,43.2333333 40.35,43 C40.5833333,42.7666667 40.8666667,42.65 41.2,42.65 C41.5333333,42.65 41.8166667,42.7666667 42.05,43 C42.2833333,43.2333333 42.4,43.5166667 42.4,43.85 L42.05,44.7 M19.25,34.9 C19.25,34.1 19.5333333,33.4 20.1,32.8 C20.7,32.2333333 21.4,31.95 22.2,31.95 C23,31.95 23.6833333,32.2333333 24.25,32.8 C24.85,33.4 25.15,34.1 25.15,34.9 C25.15,35.7 24.85,36.3833333 24.25,36.95 C23.6833333,37.55 23,37.85 22.2,37.85 C21.4,37.85 20.7,37.55 20.1,36.95 C19.5333333,36.3833333 19.25,35.7 19.25,34.9 M17.95,55.8 C17.95,56.6 17.6666667,57.2666667 17.1,57.8 C16.5666667,58.3666667 15.9,58.65 15.1,58.65 C14.3,58.65 13.6166667,58.3666667 13.05,57.8 C12.5166667,57.2666667 12.25,56.6 12.25,55.8 C12.25,55 12.5166667,54.3166667 13.05,53.75 C13.6166667,53.2166667 14.3,52.95 15.1,52.95 C15.9,52.95 16.5666667,53.2166667 17.1,53.75 C17.6666667,54.3166667 17.95,55 17.95,55.8 M34.6,57.1 L34.8,57.55 L34.6,58 L34.15,58.2 C33.9833333,58.2 33.8333333,58.1333333 33.7,58 L33.5,57.55 L33.7,57.1 L34.15,56.9 L34.6,57.1" id="Shape" fill="#838796" sketch:type="MSShapeGroup"></path>
        </g>
    </g>
</svg>