<?xml version="1.0" encoding="UTF-8" standalone="no"?>
<svg width="64px" height="64px" viewBox="0 0 64 64" version="1.1" xmlns="http://www.w3.org/2000/svg" xmlns:xlink="http://www.w3.org/1999/xlink" xmlns:sketch="http://www.bohemiancoding.com/sketch/ns">
    <!-- Generator: Sketch 3.4.1 (15681) - http://www.bohemiancoding.com/sketch -->
    <title>wall-beige-rounded</title>
    <desc>Created with Sketch.</desc>
    <defs></defs>
    <g id="Page-1" stroke="none" stroke-width="1" fill="none" fill-rule="evenodd" sketch:type="MSPage">
        <g id="wall-beige-rounded" sketch:type="MSLayerGroup">
            <path d="M10.05,0.00366972477 L53.95,0.00366972477 L56.35,0.303669725 L56.15,0.303669725 C61.2166667,0.837003058 63.8333333,4.23700306 64,10.5036697 L64,10.6036697 L64,11.1536697 L64,52.9536697 L63.9,55.4036697 L63.9,55.6036697 C63.0666667,61.2036697 59.75,64.0036697 53.95,64.0036697 L10.05,64.0036697 C7.88333333,64.0036697 6.1,63.5703364 4.7,62.7036697 L4.6,62.7036697 C1.53333333,61.0703364 0,57.8203364 0,52.9536697 L0,11.1536697 L0,10.6036697 L0,10.5036697 C0.266666667,3.37033639 3.61666667,-0.129663609 10.05,0.00366972477" id="Shape" fill="#AA9D7E" sketch:type="MSShapeGroup"></path>
            <path d="M3,9.85 L4.4,10.05 L11.7,10.05 C12.9,10.05 13.9666667,9.61666667 14.9,8.75 C15.7333333,7.85 16.15,6.78333333 16.15,5.55 C16.15,4.28333333 15.7333333,3.21666667 14.9,2.35 L14.55,2 L19.45,2 L19.1,2.35 C18.2333333,3.21666667 17.8,4.28333333 17.8,5.55 C17.8,6.78333333 18.2333333,7.85 19.1,8.75 C20,9.61666667 21.0666667,10.05 22.3,10.05 L29.6,10.05 C30.9,10.05 31.9666667,9.61666667 32.8,8.75 C33.7333333,7.85 34.2,6.78333333 34.2,5.55 C34.2,4.28333333 33.7333333,3.21666667 32.8,2.35 L32.55,2 L37.4,2 L37.2,2.2 C36.3333333,3.03333333 35.9,4.1 35.9,5.4 C35.9,6.6 36.3333333,7.66666667 37.2,8.6 C38.1,9.43333333 39.1666667,9.85 40.4,9.85 L47.7,9.85 C49,9.85 50.0666667,9.43333333 50.9,8.6 C51.8333333,7.66666667 52.3,6.6 52.3,5.4 C52.3,4.1 51.8333333,3.03333333 50.9,2.2 L50.85,2 L54.2,2 L55.95,2.2 L55.85,2.2 C54.9833333,3.03333333 54.55,4.1 54.55,5.4 C54.55,6.6 54.9833333,7.66666667 55.85,8.6 C56.7833333,9.43333333 57.85,9.85 59.05,9.85 L61.5,9.85 L61.5,10.4 L61.5,13.35 L60.6,12.05 C59.7666667,11.1833333 58.7,10.75 57.4,10.75 L50.1,10.75 C48.8666667,10.75 47.8,11.1833333 46.9,12.05 C46.0333333,12.95 45.6,14.0166667 45.6,15.25 C45.6,16.5166667 46.0333333,17.5833333 46.9,18.45 C47.8,19.35 48.8666667,19.8 50.1,19.8 L57.4,19.8 C58.7,19.8 59.7666667,19.35 60.6,18.45 C61.0333333,18.0833333 61.3333333,17.65 61.5,17.15 L61.5,21 L59.05,21 C57.85,21 56.7833333,21.4333333 55.85,22.3 C54.9833333,23.2 54.55,24.2666667 54.55,25.5 C54.55,26.7666667 54.9833333,27.8333333 55.85,28.7 C56.7833333,29.6 57.85,30.05 59.05,30.05 L61.5,30.05 L61.5,33.9 L60.6,32.65 C59.7666667,31.7833333 58.7,31.35 57.4,31.35 L50.1,31.35 C48.8666667,31.35 47.8,31.7833333 46.9,32.65 C46.0333333,33.55 45.6,34.6166667 45.6,35.85 C45.6,37.1166667 46.0333333,38.1833333 46.9,39.05 C47.8,39.95 48.8666667,40.4 50.1,40.4 L57.4,40.4 C58.7,40.4 59.7666667,39.95 60.6,39.05 C61.0333333,38.6833333 61.3333333,38.25 61.5,37.75 L61.5,41.5 L59.05,41.5 C57.85,41.5 56.7833333,41.9166667 55.85,42.75 C54.9833333,43.6833333 54.55,44.75 54.55,45.95 C54.55,47.25 54.9833333,48.3166667 55.85,49.15 C56.7833333,50.0833333 57.85,50.55 59.05,50.55 L61.5,50.55 L61.5,52.2 L61.45,54.4 L60.6,53.4 C59.7666667,52.4666667 58.7,52 57.4,52 L50.1,52 C48.8666667,52 47.8,52.4666667 46.9,53.4 C46.0333333,54.2333333 45.6,55.3 45.6,56.6 C45.6,57.8 46.0333333,58.8666667 46.9,59.8 C47.2,60.1 47.5333333,60.3333333 47.9,60.5 L41.3,60.5 L42.3,59.8 C43.2333333,58.8666667 43.7,57.8 43.7,56.6 C43.7,55.3 43.2333333,54.2333333 42.3,53.4 C41.4666667,52.4666667 40.4,52 39.1,52 L31.8,52 C30.6,52 29.5333333,52.4666667 28.6,53.4 C27.7666667,54.2333333 27.35,55.3 27.35,56.6 C27.35,57.8 27.7666667,58.8666667 28.6,59.8 L29.6,60.5 L23.05,60.5 L24.05,59.8 C24.95,58.8666667 25.4,57.8 25.4,56.6 C25.4,55.3 24.95,54.2333333 24.05,53.4 C23.1833333,52.4666667 22.1166667,52 20.85,52 L13.5,52 C12.3,52 11.2333333,52.4666667 10.3,53.4 C9.46666667,54.2333333 9.05,55.3 9.05,56.6 C9.05,57.8 9.46666667,58.8666667 10.3,59.8 L11.35,60.5 L10.3,60.5 C8.66666667,60.5 7.3,60.2 6.2,59.6 C7,58.7333333 7.4,57.7333333 7.4,56.6 C7.4,55.3 6.93333333,54.2333333 6,53.4 C5.16666667,52.5333333 4.16666667,52.0666667 3,52 L3,50.55 L4.4,50.75 L11.7,50.75 C12.9,50.75 13.9666667,50.2833333 14.9,49.35 C15.7333333,48.5166667 16.15,47.45 16.15,46.15 C16.15,44.95 15.7333333,43.8833333 14.9,42.95 C13.9666667,42.1166667 12.9,41.7 11.7,41.7 L4.4,41.7 L3,41.85 L3,41.05 C4.16666667,40.9833333 5.16666667,40.5166667 6,39.65 C6.93333333,38.8166667 7.4,37.75 7.4,36.45 C7.4,35.25 6.93333333,34.1833333 6,33.25 C5.16666667,32.4166667 4.16666667,32 3,32 L3,29.9 L4.4,30.05 L11.7,30.05 C12.9,30.05 13.9666667,29.6 14.9,28.7 C15.7333333,27.8333333 16.15,26.7666667 16.15,25.5 C16.15,24.2666667 15.7333333,23.2 14.9,22.3 C13.9666667,21.4333333 12.9,21 11.7,21 L4.4,21 L3,21.2 L3,20.55 C4.16666667,20.4833333 5.16666667,20.0333333 6,19.2 C6.93333333,18.3333333 7.4,17.2666667 7.4,16 C7.4,14.7666667 6.93333333,13.7 6,12.8 C5.16666667,11.9333333 4.16666667,11.5 3,11.5 L3,10.4 L3,9.85 M19.1,42.75 C18.2333333,43.6833333 17.8,44.75 17.8,45.95 C17.8,47.25 18.2333333,48.3166667 19.1,49.15 C20,50.0833333 21.0666667,50.55 22.3,50.55 L29.6,50.55 C30.9,50.55 31.9666667,50.0833333 32.8,49.15 C33.7333333,48.3166667 34.2,47.25 34.2,45.95 C34.2,44.75 33.7333333,43.6833333 32.8,42.75 C31.9666667,41.9166667 30.9,41.5 29.6,41.5 L22.3,41.5 C21.0666667,41.5 20,41.9166667 19.1,42.75 M25.4,35.85 C25.4,34.6166667 24.95,33.55 24.05,32.65 C23.1833333,31.7833333 22.1166667,31.35 20.85,31.35 L13.5,31.35 C12.3,31.35 11.2333333,31.7833333 10.3,32.65 C9.46666667,33.55 9.05,34.6166667 9.05,35.85 C9.05,37.1166667 9.46666667,38.1833333 10.3,39.05 C11.2333333,39.95 12.3,40.4 13.5,40.4 L20.85,40.4 C22.1166667,40.4 23.1833333,39.95 24.05,39.05 C24.95,38.1833333 25.4,37.1166667 25.4,35.85 M22.3,21 C21.0666667,21 20,21.4333333 19.1,22.3 C18.2333333,23.2 17.8,24.2666667 17.8,25.5 C17.8,26.7666667 18.2333333,27.8333333 19.1,28.7 C20,29.6 21.0666667,30.05 22.3,30.05 L29.6,30.05 C30.9,30.05 31.9666667,29.6 32.8,28.7 C33.7333333,27.8333333 34.2,26.7666667 34.2,25.5 C34.2,24.2666667 33.7333333,23.2 32.8,22.3 C31.9666667,21.4333333 30.9,21 29.6,21 L22.3,21 M24.05,12.4 C23.1833333,11.5666667 22.1166667,11.15 20.85,11.15 L13.5,11.15 C12.3,11.15 11.2333333,11.5666667 10.3,12.4 C9.46666667,13.3333333 9.05,14.4 9.05,15.6 C9.05,16.9 9.46666667,17.9666667 10.3,18.8 C11.2333333,19.7333333 12.3,20.2 13.5,20.2 L20.85,20.2 C22.1166667,20.2 23.1833333,19.7333333 24.05,18.8 C24.95,17.9666667 25.4,16.9 25.4,15.6 C25.4,14.4 24.95,13.3333333 24.05,12.4 M40.4,21 C39.1666667,21 38.1,21.4333333 37.2,22.3 C36.3333333,23.2 35.9,24.2666667 35.9,25.5 C35.9,26.7666667 36.3333333,27.8333333 37.2,28.7 C38.1,29.6 39.1666667,30.05 40.4,30.05 L47.7,30.05 C49,30.05 50.0666667,29.6 50.9,28.7 C51.8333333,27.8333333 52.3,26.7666667 52.3,25.5 C52.3,24.2666667 51.8333333,23.2 50.9,22.3 C50.0666667,21.4333333 49,21 47.7,21 L40.4,21 M42.3,12.4 C41.4666667,11.5666667 40.4,11.15 39.1,11.15 L31.8,11.15 C30.6,11.15 29.5333333,11.5666667 28.6,12.4 C27.7666667,13.3333333 27.35,14.4 27.35,15.6 C27.35,16.9 27.7666667,17.9666667 28.6,18.8 C29.5333333,19.7333333 30.6,20.2 31.8,20.2 L39.1,20.2 C40.4,20.2 41.4666667,19.7333333 42.3,18.8 C43.2333333,17.9666667 43.7,16.9 43.7,15.6 C43.7,14.4 43.2333333,13.3333333 42.3,12.4 M47.7,50.55 C49,50.55 50.0666667,50.0833333 50.9,49.15 C51.8333333,48.3166667 52.3,47.25 52.3,45.95 C52.3,44.75 51.8333333,43.6833333 50.9,42.75 C50.0666667,41.9166667 49,41.5 47.7,41.5 L40.4,41.5 C39.1666667,41.5 38.1,41.9166667 37.2,42.75 C36.3333333,43.6833333 35.9,44.75 35.9,45.95 C35.9,47.25 36.3333333,48.3166667 37.2,49.15 C38.1,50.0833333 39.1666667,50.55 40.4,50.55 L47.7,50.55 M42.3,39.05 C43.2333333,38.1833333 43.7,37.1166667 43.7,35.85 C43.7,34.6166667 43.2333333,33.55 42.3,32.65 C41.4666667,31.7833333 40.4,31.35 39.1,31.35 L31.8,31.35 C30.6,31.35 29.5333333,31.7833333 28.6,32.65 C27.7666667,33.55 27.35,34.6166667 27.35,35.85 C27.35,37.1166667 27.7666667,38.1833333 28.6,39.05 C29.5333333,39.95 30.6,40.4 31.8,40.4 L39.1,40.4 C40.4,40.4 41.4666667,39.95 42.3,39.05" id="Shape" fill="#ECE3CE" sketch:type="MSShapeGroup"></path>
            <path d="M42.3,39.05 C41.4666667,39.95 40.4,40.4 39.1,40.4 L31.8,40.4 C30.6,40.4 29.5333333,39.95 28.6,39.05 C27.7666667,38.1833333 27.35,37.1166667 27.35,35.85 C27.35,34.6166667 27.7666667,33.55 28.6,32.65 C29.5333333,31.7833333 30.6,31.35 31.8,31.35 L39.1,31.35 C40.4,31.35 41.4666667,31.7833333 42.3,32.65 C43.2333333,33.55 43.7,34.6166667 43.7,35.85 C43.7,37.1166667 43.2333333,38.1833333 42.3,39.05 M14.55,2 L14.9,2.35 C15.7333333,3.21666667 16.15,4.28333333 16.15,5.55 C16.15,6.78333333 15.7333333,7.85 14.9,8.75 C13.9666667,9.61666667 12.9,10.05 11.7,10.05 L4.4,10.05 L3,9.85 C3.2,4.61666667 5.63333333,2 10.3,2 L14.55,2 M3,11.5 C4.16666667,11.5 5.16666667,11.9333333 6,12.8 C6.93333333,13.7 7.4,14.7666667 7.4,16 C7.4,17.2666667 6.93333333,18.3333333 6,19.2 C5.16666667,20.0333333 4.16666667,20.4833333 3,20.55 L3,11.5 M3,21.2 L4.4,21 L11.7,21 C12.9,21 13.9666667,21.4333333 14.9,22.3 C15.7333333,23.2 16.15,24.2666667 16.15,25.5 C16.15,26.7666667 15.7333333,27.8333333 14.9,28.7 C13.9666667,29.6 12.9,30.05 11.7,30.05 L4.4,30.05 L3,29.9 L3,21.2 M3,32 C4.16666667,32 5.16666667,32.4166667 6,33.25 C6.93333333,34.1833333 7.4,35.25 7.4,36.45 C7.4,37.75 6.93333333,38.8166667 6,39.65 C5.16666667,40.5166667 4.16666667,40.9833333 3,41.05 L3,32 M3,41.85 L4.4,41.7 L11.7,41.7 C12.9,41.7 13.9666667,42.1166667 14.9,42.95 C15.7333333,43.8833333 16.15,44.95 16.15,46.15 C16.15,47.45 15.7333333,48.5166667 14.9,49.35 C13.9666667,50.2833333 12.9,50.75 11.7,50.75 L4.4,50.75 L3,50.55 L3,41.85 M3,52 C4.16666667,52.0666667 5.16666667,52.5333333 6,53.4 C6.93333333,54.2333333 7.4,55.3 7.4,56.6 C7.4,57.7333333 7,58.7333333 6.2,59.6 C4.06666667,58.3333333 3,55.8666667 3,52.2 L3,52 M11.35,60.5 L10.3,59.8 C9.46666667,58.8666667 9.05,57.8 9.05,56.6 C9.05,55.3 9.46666667,54.2333333 10.3,53.4 C11.2333333,52.4666667 12.3,52 13.5,52 L20.85,52 C22.1166667,52 23.1833333,52.4666667 24.05,53.4 C24.95,54.2333333 25.4,55.3 25.4,56.6 C25.4,57.8 24.95,58.8666667 24.05,59.8 L23.05,60.5 L11.35,60.5 M29.6,60.5 L28.6,59.8 C27.7666667,58.8666667 27.35,57.8 27.35,56.6 C27.35,55.3 27.7666667,54.2333333 28.6,53.4 C29.5333333,52.4666667 30.6,52 31.8,52 L39.1,52 C40.4,52 41.4666667,52.4666667 42.3,53.4 C43.2333333,54.2333333 43.7,55.3 43.7,56.6 C43.7,57.8 43.2333333,58.8666667 42.3,59.8 L41.3,60.5 L29.6,60.5 M47.9,60.5 C47.5333333,60.3333333 47.2,60.1 46.9,59.8 C46.0333333,58.8666667 45.6,57.8 45.6,56.6 C45.6,55.3 46.0333333,54.2333333 46.9,53.4 C47.8,52.4666667 48.8666667,52 50.1,52 L57.4,52 C58.7,52 59.7666667,52.4666667 60.6,53.4 L61.45,54.4 C60.8166667,58.4666667 58.4,60.5 54.2,60.5 L47.9,60.5 M61.5,50.55 L59.05,50.55 C57.85,50.55 56.7833333,50.0833333 55.85,49.15 C54.9833333,48.3166667 54.55,47.25 54.55,45.95 C54.55,44.75 54.9833333,43.6833333 55.85,42.75 C56.7833333,41.9166667 57.85,41.5 59.05,41.5 L61.5,41.5 L61.5,50.55 M61.5,37.75 C61.3333333,38.25 61.0333333,38.6833333 60.6,39.05 C59.7666667,39.95 58.7,40.4 57.4,40.4 L50.1,40.4 C48.8666667,40.4 47.8,39.95 46.9,39.05 C46.0333333,38.1833333 45.6,37.1166667 45.6,35.85 C45.6,34.6166667 46.0333333,33.55 46.9,32.65 C47.8,31.7833333 48.8666667,31.35 50.1,31.35 L57.4,31.35 C58.7,31.35 59.7666667,31.7833333 60.6,32.65 L61.5,33.9 L61.5,37.75 M61.5,30.05 L59.05,30.05 C57.85,30.05 56.7833333,29.6 55.85,28.7 C54.9833333,27.8333333 54.55,26.7666667 54.55,25.5 C54.55,24.2666667 54.9833333,23.2 55.85,22.3 C56.7833333,21.4333333 57.85,21 59.05,21 L61.5,21 L61.5,30.05 M61.5,17.15 C61.3333333,17.65 61.0333333,18.0833333 60.6,18.45 C59.7666667,19.35 58.7,19.8 57.4,19.8 L50.1,19.8 C48.8666667,19.8 47.8,19.35 46.9,18.45 C46.0333333,17.5833333 45.6,16.5166667 45.6,15.25 C45.6,14.0166667 46.0333333,12.95 46.9,12.05 C47.8,11.1833333 48.8666667,10.75 50.1,10.75 L57.4,10.75 C58.7,10.75 59.7666667,11.1833333 60.6,12.05 L61.5,13.35 L61.5,17.15 M61.5,9.85 L59.05,9.85 C57.85,9.85 56.7833333,9.43333333 55.85,8.6 C54.9833333,7.66666667 54.55,6.6 54.55,5.4 C54.55,4.1 54.9833333,3.03333333 55.85,2.2 L55.95,2.2 C59.55,2.73333333 61.4,5.28333333 61.5,9.85 M50.85,2 L50.9,2.2 C51.8333333,3.03333333 52.3,4.1 52.3,5.4 C52.3,6.6 51.8333333,7.66666667 50.9,8.6 C50.0666667,9.43333333 49,9.85 47.7,9.85 L40.4,9.85 C39.1666667,9.85 38.1,9.43333333 37.2,8.6 C36.3333333,7.66666667 35.9,6.6 35.9,5.4 C35.9,4.1 36.3333333,3.03333333 37.2,2.2 L37.4,2 L50.85,2 M32.55,2 L32.8,2.35 C33.7333333,3.21666667 34.2,4.28333333 34.2,5.55 C34.2,6.78333333 33.7333333,7.85 32.8,8.75 C31.9666667,9.61666667 30.9,10.05 29.6,10.05 L22.3,10.05 C21.0666667,10.05 20,9.61666667 19.1,8.75 C18.2333333,7.85 17.8,6.78333333 17.8,5.55 C17.8,4.28333333 18.2333333,3.21666667 19.1,2.35 L19.45,2 L32.55,2 M24.05,12.4 C24.95,13.3333333 25.4,14.4 25.4,15.6 C25.4,16.9 24.95,17.9666667 24.05,18.8 C23.1833333,19.7333333 22.1166667,20.2 20.85,20.2 L13.5,20.2 C12.3,20.2 11.2333333,19.7333333 10.3,18.8 C9.46666667,17.9666667 9.05,16.9 9.05,15.6 C9.05,14.4 9.46666667,13.3333333 10.3,12.4 C11.2333333,11.5666667 12.3,11.15 13.5,11.15 L20.85,11.15 C22.1166667,11.15 23.1833333,11.5666667 24.05,12.4 M22.3,21 L29.6,21 C30.9,21 31.9666667,21.4333333 32.8,22.3 C33.7333333,23.2 34.2,24.2666667 34.2,25.5 C34.2,26.7666667 33.7333333,27.8333333 32.8,28.7 C31.9666667,29.6 30.9,30.05 29.6,30.05 L22.3,30.05 C21.0666667,30.05 20,29.6 19.1,28.7 C18.2333333,27.8333333 17.8,26.7666667 17.8,25.5 C17.8,24.2666667 18.2333333,23.2 19.1,22.3 C20,21.4333333 21.0666667,21 22.3,21 M25.4,35.85 C25.4,37.1166667 24.95,38.1833333 24.05,39.05 C23.1833333,39.95 22.1166667,40.4 20.85,40.4 L13.5,40.4 C12.3,40.4 11.2333333,39.95 10.3,39.05 C9.46666667,38.1833333 9.05,37.1166667 9.05,35.85 C9.05,34.6166667 9.46666667,33.55 10.3,32.65 C11.2333333,31.7833333 12.3,31.35 13.5,31.35 L20.85,31.35 C22.1166667,31.35 23.1833333,31.7833333 24.05,32.65 C24.95,33.55 25.4,34.6166667 25.4,35.85 M19.1,42.75 C20,41.9166667 21.0666667,41.5 22.3,41.5 L29.6,41.5 C30.9,41.5 31.9666667,41.9166667 32.8,42.75 C33.7333333,43.6833333 34.2,44.75 34.2,45.95 C34.2,47.25 33.7333333,48.3166667 32.8,49.15 C31.9666667,50.0833333 30.9,50.55 29.6,50.55 L22.3,50.55 C21.0666667,50.55 20,50.0833333 19.1,49.15 C18.2333333,48.3166667 17.8,47.25 17.8,45.95 C17.8,44.75 18.2333333,43.6833333 19.1,42.75 M42.3,12.4 C43.2333333,13.3333333 43.7,14.4 43.7,15.6 C43.7,16.9 43.2333333,17.9666667 42.3,18.8 C41.4666667,19.7333333 40.4,20.2 39.1,20.2 L31.8,20.2 C30.6,20.2 29.5333333,19.7333333 28.6,18.8 C27.7666667,17.9666667 27.35,16.9 27.35,15.6 C27.35,14.4 27.7666667,13.3333333 28.6,12.4 C29.5333333,11.5666667 30.6,11.15 31.8,11.15 L39.1,11.15 C40.4,11.15 41.4666667,11.5666667 42.3,12.4 M40.4,21 L47.7,21 C49,21 50.0666667,21.4333333 50.9,22.3 C51.8333333,23.2 52.3,24.2666667 52.3,25.5 C52.3,26.7666667 51.8333333,27.8333333 50.9,28.7 C50.0666667,29.6 49,30.05 47.7,30.05 L40.4,30.05 C39.1666667,30.05 38.1,29.6 37.2,28.7 C36.3333333,27.8333333 35.9,26.7666667 35.9,25.5 C35.9,24.2666667 36.3333333,23.2 37.2,22.3 C38.1,21.4333333 39.1666667,21 40.4,21 M47.7,50.55 L40.4,50.55 C39.1666667,50.55 38.1,50.0833333 37.2,49.15 C36.3333333,48.3166667 35.9,47.25 35.9,45.95 C35.9,44.75 36.3333333,43.6833333 37.2,42.75 C38.1,41.9166667 39.1666667,41.5 40.4,41.5 L47.7,41.5 C49,41.5 50.0666667,41.9166667 50.9,42.75 C51.8333333,43.6833333 52.3,44.75 52.3,45.95 C52.3,47.25 51.8333333,48.3166667 50.9,49.15 C50.0666667,50.0833333 49,50.55 47.7,50.55" id="Shape" fill="#E0D1AF" sketch:type="MSShapeGroup"></path>
        </g>
    </g>
</svg>